M48
; DRILL file {KiCad (5.1.5)-3} date 07/09/2020 19:25:51
; FORMAT={-:-/ absolute / inch / decimal}
; #@! TF.CreationDate,2020-09-07T19:25:51+02:00
; #@! TF.GenerationSoftware,Kicad,Pcbnew,(5.1.5)-3
; #@! TF.FileFunction,NonPlated,1,2,NPTH
FMAT,2
INCH
T1C0.0197
%
G90
G05
T1
X8.998Y-3.5453
X8.998Y-3.5748
X8.998Y-3.6043
X9.0571Y-3.5453
X9.0571Y-3.5748
X9.0571Y-3.6043
X2.4823Y-1.7933
X2.4823Y-1.8524
X2.5118Y-1.7933
X2.5118Y-1.8524
X2.5413Y-1.7933
X2.5413Y-1.8524
X5.1004Y-1.7933
X5.1004Y-1.8524
X5.1299Y-1.7933
X5.1299Y-1.8524
X5.1594Y-1.7933
X5.1594Y-1.8524
X8.4469Y-5.6516
X8.4469Y-5.7106
X8.4764Y-5.6516
X8.4764Y-5.7106
X8.5059Y-5.6516
X8.5059Y-5.7106
X8.5059Y-1.7933
X8.5059Y-1.8524
X8.5354Y-1.7933
X8.5354Y-1.8524
X8.565Y-1.7933
X8.565Y-1.8524
X5.2579Y-5.6516
X5.2579Y-5.7106
X5.2874Y-5.6516
X5.2874Y-5.7106
X5.3169Y-5.6516
X5.3169Y-5.7106
X1.9902Y-3.4862
X1.9902Y-3.5453
X2.0492Y-3.4862
X2.0492Y-3.5453
X2.5807Y-5.6516
X2.5807Y-5.7106
X2.6102Y-5.6516
X2.6102Y-5.7106
X2.6398Y-5.6516
X2.6398Y-5.7106
T0
M30
