M48
; DRILL file {KiCad (5.1.5)-3} date 07/09/2020 19:25:51
; FORMAT={-:-/ absolute / inch / decimal}
; #@! TF.CreationDate,2020-09-07T19:25:51+02:00
; #@! TF.GenerationSoftware,Kicad,Pcbnew,(5.1.5)-3
; #@! TF.FileFunction,Plated,1,2,PTH
FMAT,2
INCH
T1C0.0157
T2C0.1260
T3C0.1378
%
G90
G05
T1
X2.1575Y-7.1181
X2.1575Y-7.5118
X2.4724Y-1.8819
X2.5649Y-7.1181
X2.5649Y-7.5118
X2.9723Y-7.1181
X2.9723Y-7.5118
X3.3797Y-7.1181
X3.3797Y-7.5118
X3.7871Y-7.1181
X3.7871Y-7.5118
X4.1945Y-7.1181
X4.1945Y-7.5118
X4.6018Y-7.1181
X4.6018Y-7.5118
X5.0092Y-7.1181
X5.0092Y-7.5118
X5.4166Y-7.1181
X5.4166Y-7.5118
X5.4724Y-2.0866
X5.4724Y-2.2835
X5.4724Y-2.4803
X5.4724Y-2.6772
X5.4724Y-2.874
X5.4724Y-3.0709
X5.4724Y-3.2677
X5.4724Y-3.4646
X5.4724Y-3.6614
X5.4724Y-3.8583
X5.4724Y-4.0551
X5.4724Y-4.252
X5.4724Y-4.4488
X5.4724Y-4.6457
X5.4724Y-4.8425
X5.4724Y-5.0394
X5.4724Y-5.2362
X5.5512Y-2.0079
X5.5512Y-5.3543
X5.5512Y-5.5118
X5.6299Y-2.2835
X5.6299Y-2.4803
X5.6299Y-2.6772
X5.6299Y-2.874
X5.6299Y-3.0709
X5.6299Y-3.2677
X5.6299Y-3.4646
X5.6299Y-3.6614
X5.6299Y-3.8583
X5.6299Y-4.0551
X5.6299Y-4.252
X5.6299Y-4.4488
X5.6299Y-4.6457
X5.6299Y-4.8425
X5.6299Y-5.0394
X5.6299Y-5.2362
X5.748Y-2.0079
X5.748Y-2.1654
X5.748Y-5.3543
X5.748Y-5.5118
X5.824Y-7.1181
X5.824Y-7.5118
X5.9449Y-2.0079
X5.9449Y-2.1654
X5.9449Y-5.3543
X5.9449Y-5.5118
X6.1417Y-2.0079
X6.1417Y-2.1654
X6.1417Y-5.3543
X6.1417Y-5.5118
X6.2314Y-7.1181
X6.2314Y-7.5118
X6.3386Y-2.0079
X6.3386Y-2.1654
X6.3386Y-5.3543
X6.3386Y-5.5118
X6.5354Y-2.0079
X6.5354Y-2.1654
X6.5354Y-5.3543
X6.5354Y-5.5118
X6.6388Y-7.1181
X6.6388Y-7.5118
X6.6535Y-2.2835
X6.6535Y-2.4803
X6.6535Y-2.6772
X6.6535Y-2.874
X6.6535Y-3.0709
X6.6535Y-3.2677
X6.6535Y-3.4646
X6.6535Y-3.6614
X6.6535Y-3.8583
X6.6535Y-4.0551
X6.6535Y-4.252
X6.6535Y-4.4488
X6.6535Y-4.6457
X6.6535Y-4.8425
X6.6535Y-5.0394
X6.6535Y-5.2362
X6.7323Y-2.0079
X6.811Y-2.0866
X6.811Y-2.2835
X6.811Y-2.4803
X6.811Y-2.6772
X6.811Y-2.874
X6.811Y-3.0709
X6.811Y-3.2677
X6.811Y-3.4646
X6.811Y-3.6614
X6.811Y-3.8583
X6.811Y-4.0551
X6.811Y-4.252
X6.811Y-4.4488
X6.811Y-4.6457
X6.811Y-4.8425
X6.811Y-5.0394
X6.811Y-5.2362
X6.811Y-5.4331
X7.0462Y-7.1181
X7.0462Y-7.5118
X7.4536Y-7.1181
X7.4536Y-7.5118
X7.861Y-7.1181
X7.861Y-7.5118
X8.2684Y-7.1181
X8.2684Y-7.5118
X8.5748Y-1.9213
X8.6758Y-7.1181
X8.6758Y-7.5118
X9.0832Y-7.1181
X9.0832Y-7.5118
X9.4906Y-7.1181
X9.4906Y-7.5118
X9.898Y-7.1181
X9.898Y-7.5118
X10.3054Y-7.1181
X10.3054Y-7.5118
X10.7128Y-7.1181
X10.7128Y-7.5118
X11.1202Y-7.1181
X11.1202Y-7.5118
X11.4094Y-1.0157
X11.4094Y-1.4094
X11.4094Y-1.8031
X11.4094Y-2.1969
X11.4094Y-2.5906
X11.4094Y-2.9843
X11.4094Y-3.378
X11.4094Y-3.7717
X11.4094Y-4.1654
X11.4094Y-4.5591
X11.4094Y-4.9528
X11.4094Y-5.3465
X11.4094Y-5.7402
X11.4094Y-6.1339
X11.4094Y-6.5276
X11.4094Y-6.9213
X11.4094Y-7.315
X11.5276Y-7.1181
X11.5276Y-7.5118
X11.6457Y-1.0157
X11.6457Y-1.4094
X11.6457Y-1.8031
X11.6457Y-2.1969
X11.6457Y-2.5906
X11.6457Y-2.9843
X11.6457Y-3.378
X11.6457Y-3.7717
X11.6457Y-4.1654
X11.6457Y-4.5591
X11.6457Y-4.9528
X11.6457Y-5.3465
X11.6457Y-5.7402
X11.6457Y-6.1339
X11.6457Y-6.5276
X11.6457Y-6.9213
X11.6457Y-7.315
T2
X4.3701Y-2.0866
X4.3701Y-5.4331
X2.7953Y-2.0866
X2.7953Y-5.4331
T3
X1.5276Y-1.5276
X1.5276Y-6.6063
X10.937Y-1.5276
X10.937Y-6.6063
T0
M30
