%TF.GenerationSoftware,KiCad,Pcbnew,(5.1.5)-3*%
%TF.CreationDate,2020-09-07T19:44:54+02:00*%
%TF.ProjectId,fusion,66757369-6f6e-42e6-9b69-6361645f7063,rev?*%
%TF.SameCoordinates,Original*%
%TF.FileFunction,Profile,NP*%
%FSLAX46Y46*%
G04 Gerber Fmt 4.6, Leading zero omitted, Abs format (unit mm)*
G04 Created by KiCad (PCBNEW (5.1.5)-3) date 2020-09-07 19:44:54*
%MOMM*%
%LPD*%
G04 APERTURE LIST*
%ADD10C,0.150000*%
%ADD11C,0.100000*%
%ADD12C,0.120000*%
%ADD13C,0.050000*%
G04 APERTURE END LIST*
D10*
X68300000Y-145300000D02*
X132300000Y-145300000D01*
X55300000Y-145300000D02*
X64300000Y-145300000D01*
X132300000Y-47300000D02*
X214800000Y-47300000D01*
X65800000Y-47300000D02*
X128300000Y-47300000D01*
X52300000Y-140300000D02*
X52300000Y-91300000D01*
X64300000Y-143300000D02*
X55300000Y-143300000D01*
X132300000Y-143300000D02*
X68300000Y-143300000D01*
X213300000Y-143300000D02*
X136300000Y-143300000D01*
X225300000Y-143300000D02*
X217300000Y-143300000D01*
X228300000Y-140300000D02*
X228300000Y-92800000D01*
X228300000Y-50300000D02*
X228300000Y-88800000D01*
X225300000Y-47300000D02*
X218800000Y-47300000D01*
X225300000Y-47300000D02*
G75*
G02X228300000Y-50300000I0J-3000000D01*
G01*
X228300000Y-140300000D02*
G75*
G02X225300000Y-143300000I-3000000J0D01*
G01*
X55300000Y-143300000D02*
G75*
G02X52300000Y-140300000I0J3000000D01*
G01*
X61800000Y-47300000D02*
X55300000Y-47300000D01*
X52300000Y-87300000D02*
X52300000Y-50300000D01*
X52300000Y-50300000D02*
G75*
G02X55300000Y-47300000I3000000J0D01*
G01*
X61800000Y-45300000D02*
X55300000Y-45300000D01*
X50300000Y-87300000D02*
X50300000Y-50300000D01*
X50300000Y-140300000D02*
X50300000Y-91300000D01*
X213300000Y-145300000D02*
X136300000Y-145300000D01*
X225300000Y-145300000D02*
X217300000Y-145300000D01*
X230300000Y-92800000D02*
X230300000Y-140300000D01*
X230300000Y-50300000D02*
X230300000Y-88800000D01*
X218800000Y-45300000D02*
X225300000Y-45300000D01*
X132300000Y-45300000D02*
X214800000Y-45300000D01*
X65800000Y-45300000D02*
X128300000Y-45300000D01*
D11*
X19300000Y-18800000D02*
X19300000Y-196800000D01*
X299300000Y-18800000D02*
X19300000Y-18800000D01*
X299300000Y-196800000D02*
X299300000Y-18800000D01*
X19300000Y-196800000D02*
X299300000Y-196800000D01*
D10*
X55300000Y-145300000D02*
G75*
G02X50300000Y-140300000I0J5000000D01*
G01*
X230300000Y-140300000D02*
G75*
G02X225300000Y-145300000I-5000000J0D01*
G01*
X225300000Y-45300000D02*
G75*
G02X230300000Y-50300000I0J-5000000D01*
G01*
X50300000Y-50300000D02*
G75*
G02X55300000Y-45300000I5000000J0D01*
G01*
D12*
X82700000Y-157000000D02*
G75*
G03X82700000Y-157000000I-3500000J0D01*
G01*
X259800000Y-145300000D02*
G75*
G03X259800000Y-145300000I-3500000J0D01*
G01*
X175150000Y-157000000D02*
G75*
G03X175150000Y-157000000I-2650000J0D01*
G01*
X188850000Y-157000000D02*
G75*
G03X188850000Y-157000000I-2650000J0D01*
G01*
X202550000Y-157000000D02*
G75*
G03X202550000Y-157000000I-2650000J0D01*
G01*
X215050000Y-157000000D02*
G75*
G03X215050000Y-157000000I-2650000J0D01*
G01*
X269350000Y-117300000D02*
G75*
G03X269350000Y-117300000I-2650000J0D01*
G01*
X250850000Y-117300000D02*
G75*
G03X250850000Y-117300000I-2650000J0D01*
G01*
X250850000Y-104500000D02*
G75*
G03X250850000Y-104500000I-2650000J0D01*
G01*
X269350000Y-104500000D02*
G75*
G03X269350000Y-104500000I-2650000J0D01*
G01*
X269350000Y-91700000D02*
G75*
G03X269350000Y-91700000I-2650000J0D01*
G01*
X250850000Y-91700000D02*
G75*
G03X250850000Y-91700000I-2650000J0D01*
G01*
X250850000Y-78900000D02*
G75*
G03X250850000Y-78900000I-2650000J0D01*
G01*
X269350000Y-78900000D02*
G75*
G03X269350000Y-78900000I-2650000J0D01*
G01*
X251700000Y-64200000D02*
G75*
G03X251700000Y-64200000I-3500000J0D01*
G01*
X269350000Y-64200000D02*
G75*
G03X269350000Y-64200000I-2650000J0D01*
G01*
X269350000Y-49000000D02*
G75*
G03X269350000Y-49000000I-2650000J0D01*
G01*
X161450000Y-157000000D02*
G75*
G03X161450000Y-157000000I-2650000J0D01*
G01*
X147750000Y-157000000D02*
G75*
G03X147750000Y-157000000I-2650000J0D01*
G01*
X134050000Y-157000000D02*
G75*
G03X134050000Y-157000000I-2650000J0D01*
G01*
X108700000Y-157000000D02*
G75*
G03X108700000Y-157000000I-3500000J0D01*
G01*
X56700000Y-157000000D02*
G75*
G03X56700000Y-157000000I-3500000J0D01*
G01*
D13*
X76000000Y-70460000D02*
X92500000Y-70460000D01*
X161200000Y-96460000D02*
X144700000Y-96460000D01*
X146700000Y-117000000D02*
X161200000Y-117000000D01*
X146700000Y-134500000D02*
X146700000Y-117000000D01*
X144700000Y-81460000D02*
X161200000Y-81460000D01*
X161200000Y-99460000D02*
X161200000Y-114460000D01*
X144700000Y-99460000D02*
X161200000Y-99460000D01*
X161200000Y-134500000D02*
X146700000Y-134500000D01*
X144700000Y-96460000D02*
X144700000Y-81460000D01*
X161200000Y-114460000D02*
X144700000Y-114460000D01*
X144700000Y-114460000D02*
X144700000Y-99460000D01*
X161200000Y-117000000D02*
X161200000Y-134500000D01*
X161200000Y-81460000D02*
X161200000Y-96460000D01*
X78000000Y-123500000D02*
X78000000Y-106000000D01*
X78000000Y-106000000D02*
X92500000Y-106000000D01*
X92500000Y-106000000D02*
X92500000Y-123500000D01*
X92500000Y-123500000D02*
X78000000Y-123500000D01*
X76000000Y-103460000D02*
X76000000Y-88460000D01*
X76000000Y-88460000D02*
X92500000Y-88460000D01*
X92500000Y-88460000D02*
X92500000Y-103460000D01*
X92500000Y-103460000D02*
X76000000Y-103460000D01*
X76000000Y-85460000D02*
X76000000Y-70460000D01*
X92500000Y-70460000D02*
X92500000Y-85460000D01*
X92500000Y-85460000D02*
X76000000Y-85460000D01*
D10*
X50300000Y-87300000D02*
G75*
G03X52300000Y-87300000I1000000J0D01*
G01*
X52300000Y-91300000D02*
G75*
G03X50300000Y-91300000I-1000000J0D01*
G01*
X228300000Y-88800000D02*
G75*
G03X230300000Y-88800000I1000000J0D01*
G01*
X230300000Y-92800000D02*
G75*
G03X228300000Y-92800000I-1000000J0D01*
G01*
X217300000Y-143300000D02*
G75*
G03X217300000Y-145300000I0J-1000000D01*
G01*
X213300000Y-145300000D02*
G75*
G03X213300000Y-143300000I0J1000000D01*
G01*
X68300000Y-143300000D02*
G75*
G03X68300000Y-145300000I0J-1000000D01*
G01*
X64300000Y-145300000D02*
G75*
G03X64300000Y-143300000I0J1000000D01*
G01*
X136300000Y-143300000D02*
G75*
G03X136300000Y-145300000I0J-1000000D01*
G01*
X132300000Y-145300000D02*
G75*
G03X132300000Y-143300000I0J1000000D01*
G01*
X132300000Y-45300000D02*
G75*
G03X132300000Y-47300000I0J-1000000D01*
G01*
X128300000Y-47300000D02*
G75*
G03X128300000Y-45300000I0J1000000D01*
G01*
X218800000Y-45300000D02*
G75*
G03X218800000Y-47300000I0J-1000000D01*
G01*
X214800000Y-47300000D02*
G75*
G03X214800000Y-45300000I0J1000000D01*
G01*
X65800000Y-45300000D02*
G75*
G03X65800000Y-47300000I0J-1000000D01*
G01*
X61800000Y-47300000D02*
G75*
G03X61800000Y-45300000I0J1000000D01*
G01*
M02*
