%TF.GenerationSoftware,KiCad,Pcbnew,(5.1.5)-3*%
%TF.CreationDate,2020-09-07T19:44:54+02:00*%
%TF.ProjectId,fusion,66757369-6f6e-42e6-9b69-6361645f7063,rev?*%
%TF.SameCoordinates,Original*%
%TF.FileFunction,Copper,L1,Top*%
%TF.FilePolarity,Positive*%
%FSLAX46Y46*%
G04 Gerber Fmt 4.6, Leading zero omitted, Abs format (unit mm)*
G04 Created by KiCad (PCBNEW (5.1.5)-3) date 2020-09-07 19:44:54*
%MOMM*%
%LPD*%
G04 APERTURE LIST*
%ADD10C,7.000000*%
%ADD11C,6.400000*%
%ADD12C,0.800000*%
%ADD13C,0.250000*%
%ADD14C,0.254000*%
G04 APERTURE END LIST*
D10*
X38800000Y-38800000D03*
X277800000Y-38800000D03*
X38800000Y-167800000D03*
X277800000Y-167800000D03*
D11*
X71000000Y-53000000D03*
X111000000Y-53000000D03*
X111000000Y-138000000D03*
X71000000Y-138000000D03*
D12*
X217800000Y-48800000D03*
X62800000Y-47800000D03*
X295800000Y-175800000D03*
X295800000Y-165800000D03*
X295800000Y-155800000D03*
X295800000Y-145800000D03*
X295800000Y-135800000D03*
X295800000Y-125800000D03*
X295800000Y-115800000D03*
X295800000Y-105800000D03*
X295800000Y-95800000D03*
X295800000Y-85800000D03*
X295800000Y-75800000D03*
X295800000Y-65800000D03*
X295800000Y-55800000D03*
X295800000Y-45800000D03*
X295800000Y-35800000D03*
X295800000Y-185800000D03*
X295800000Y-25800000D03*
X289800000Y-35800000D03*
X289800000Y-45800000D03*
X289800000Y-55800000D03*
X289800000Y-65800000D03*
X289800000Y-75800000D03*
X289800000Y-85800000D03*
X289800000Y-95800000D03*
X289800000Y-105800000D03*
X289800000Y-115800000D03*
X289800000Y-125800000D03*
X289800000Y-135800000D03*
X289800000Y-145800000D03*
X289800000Y-155800000D03*
X289800000Y-165800000D03*
X289800000Y-175800000D03*
X289800000Y-25800000D03*
X289800000Y-185800000D03*
X65147826Y-190800000D03*
X75495652Y-190800000D03*
X85843478Y-190800000D03*
X96191304Y-190800000D03*
X106539130Y-190800000D03*
X116886956Y-190800000D03*
X127234782Y-190800000D03*
X137582608Y-190800000D03*
X147930434Y-190800000D03*
X158278260Y-190800000D03*
X168626086Y-190800000D03*
X178973913Y-190800000D03*
X189321739Y-190800000D03*
X199669565Y-190800000D03*
X210017391Y-190800000D03*
X220365217Y-190800000D03*
X230713043Y-190800000D03*
X241060869Y-190800000D03*
X251408695Y-190800000D03*
X261756521Y-190800000D03*
X272104347Y-190800000D03*
X282452173Y-190800000D03*
X54800000Y-190800000D03*
X292800000Y-190800000D03*
X282452173Y-180800000D03*
X272104347Y-180800000D03*
X261756521Y-180800000D03*
X251408695Y-180800000D03*
X241060869Y-180800000D03*
X230713043Y-180800000D03*
X220365217Y-180800000D03*
X210017391Y-180800000D03*
X199669565Y-180800000D03*
X189321739Y-180800000D03*
X178973913Y-180800000D03*
X168626086Y-180800000D03*
X158278260Y-180800000D03*
X147930434Y-180800000D03*
X137582608Y-180800000D03*
X127234782Y-180800000D03*
X116886956Y-180800000D03*
X106539130Y-180800000D03*
X96191304Y-180800000D03*
X85843478Y-180800000D03*
X75495652Y-180800000D03*
X65147826Y-180800000D03*
X292800000Y-180800000D03*
X54800000Y-180800000D03*
X166000000Y-51000000D03*
X161000000Y-51000000D03*
X156000000Y-51000000D03*
X151000000Y-51000000D03*
X146000000Y-51000000D03*
X171000000Y-51000000D03*
X141000000Y-51000000D03*
X146000000Y-55000000D03*
X151000000Y-55000000D03*
X156000000Y-55000000D03*
X161000000Y-55000000D03*
X166000000Y-55000000D03*
X166000000Y-136000000D03*
X161000000Y-136000000D03*
X156000000Y-136000000D03*
X151000000Y-136000000D03*
X146000000Y-136000000D03*
X141000000Y-136000000D03*
X146000000Y-140000000D03*
X151000000Y-140000000D03*
X156000000Y-140000000D03*
X161000000Y-140000000D03*
X166000000Y-140000000D03*
X141000000Y-140000000D03*
X143000000Y-128000000D03*
X143000000Y-123000000D03*
X143000000Y-118000000D03*
X143000000Y-113000000D03*
X143000000Y-108000000D03*
X143000000Y-103000000D03*
X143000000Y-98000000D03*
X143000000Y-93000000D03*
X143000000Y-88000000D03*
X143000000Y-83000000D03*
X143000000Y-78000000D03*
X143000000Y-73000000D03*
X143000000Y-68000000D03*
X143000000Y-63000000D03*
X143000000Y-58000000D03*
X143000000Y-133000000D03*
X139000000Y-58000000D03*
X139000000Y-63000000D03*
X139000000Y-68000000D03*
X139000000Y-73000000D03*
X139000000Y-78000000D03*
X139000000Y-83000000D03*
X139000000Y-88000000D03*
X139000000Y-93000000D03*
X139000000Y-98000000D03*
X139000000Y-103000000D03*
X139000000Y-108000000D03*
X139000000Y-113000000D03*
X139000000Y-118000000D03*
X139000000Y-123000000D03*
X139000000Y-128000000D03*
X139000000Y-53000000D03*
X139000000Y-133000000D03*
X173000000Y-133000000D03*
X173000000Y-128000000D03*
X173000000Y-123000000D03*
X173000000Y-118000000D03*
X173000000Y-113000000D03*
X173000000Y-108000000D03*
X173000000Y-103000000D03*
X173000000Y-98000000D03*
X173000000Y-93000000D03*
X173000000Y-88000000D03*
X173000000Y-83000000D03*
X173000000Y-78000000D03*
X173000000Y-73000000D03*
X173000000Y-68000000D03*
X173000000Y-63000000D03*
X173000000Y-58000000D03*
X173000000Y-138000000D03*
X173000000Y-53000000D03*
X169000000Y-58000000D03*
X169000000Y-63000000D03*
X169000000Y-68000000D03*
X169000000Y-73000000D03*
X169000000Y-78000000D03*
X169000000Y-83000000D03*
X169000000Y-88000000D03*
X169000000Y-93000000D03*
X169000000Y-98000000D03*
X169000000Y-103000000D03*
X169000000Y-108000000D03*
X169000000Y-113000000D03*
X169000000Y-118000000D03*
X169000000Y-123000000D03*
X169000000Y-128000000D03*
X169000000Y-133000000D03*
D13*
X171000000Y-138000000D02*
X141000000Y-138000000D01*
X171000000Y-53000000D02*
X171000000Y-138000000D01*
X141000000Y-138000000D02*
X111000000Y-138000000D01*
X141000000Y-53000000D02*
X141000000Y-133000000D01*
X141000000Y-53000000D02*
X171000000Y-53000000D01*
X111000000Y-53000000D02*
X141000000Y-53000000D01*
D14*
G36*
X298823000Y-196323000D02*
G01*
X19777000Y-196323000D01*
X19777000Y-170714155D01*
X36065450Y-170714155D01*
X36461634Y-171234550D01*
X37176612Y-171624748D01*
X37953976Y-171867964D01*
X38763853Y-171954851D01*
X39575118Y-171882069D01*
X40356597Y-171652415D01*
X41078256Y-171274715D01*
X41138366Y-171234550D01*
X41534550Y-170714155D01*
X275065450Y-170714155D01*
X275461634Y-171234550D01*
X276176612Y-171624748D01*
X276953976Y-171867964D01*
X277763853Y-171954851D01*
X278575118Y-171882069D01*
X279356597Y-171652415D01*
X280078256Y-171274715D01*
X280138366Y-171234550D01*
X280534550Y-170714155D01*
X277800000Y-167979605D01*
X275065450Y-170714155D01*
X41534550Y-170714155D01*
X38800000Y-167979605D01*
X36065450Y-170714155D01*
X19777000Y-170714155D01*
X19777000Y-167763853D01*
X34645149Y-167763853D01*
X34717931Y-168575118D01*
X34947585Y-169356597D01*
X35325285Y-170078256D01*
X35365450Y-170138366D01*
X35885845Y-170534550D01*
X38620395Y-167800000D01*
X38979605Y-167800000D01*
X41714155Y-170534550D01*
X42234550Y-170138366D01*
X42624748Y-169423388D01*
X42867964Y-168646024D01*
X42954851Y-167836147D01*
X42948366Y-167763853D01*
X273645149Y-167763853D01*
X273717931Y-168575118D01*
X273947585Y-169356597D01*
X274325285Y-170078256D01*
X274365450Y-170138366D01*
X274885845Y-170534550D01*
X277620395Y-167800000D01*
X277979605Y-167800000D01*
X280714155Y-170534550D01*
X281234550Y-170138366D01*
X281624748Y-169423388D01*
X281867964Y-168646024D01*
X281954851Y-167836147D01*
X281882069Y-167024882D01*
X281652415Y-166243403D01*
X281274715Y-165521744D01*
X281234550Y-165461634D01*
X280714155Y-165065450D01*
X277979605Y-167800000D01*
X277620395Y-167800000D01*
X274885845Y-165065450D01*
X274365450Y-165461634D01*
X273975252Y-166176612D01*
X273732036Y-166953976D01*
X273645149Y-167763853D01*
X42948366Y-167763853D01*
X42882069Y-167024882D01*
X42652415Y-166243403D01*
X42274715Y-165521744D01*
X42234550Y-165461634D01*
X41714155Y-165065450D01*
X38979605Y-167800000D01*
X38620395Y-167800000D01*
X35885845Y-165065450D01*
X35365450Y-165461634D01*
X34975252Y-166176612D01*
X34732036Y-166953976D01*
X34645149Y-167763853D01*
X19777000Y-167763853D01*
X19777000Y-164885845D01*
X36065450Y-164885845D01*
X38800000Y-167620395D01*
X41534550Y-164885845D01*
X275065450Y-164885845D01*
X277800000Y-167620395D01*
X280534550Y-164885845D01*
X280138366Y-164365450D01*
X279423388Y-163975252D01*
X278646024Y-163732036D01*
X277836147Y-163645149D01*
X277024882Y-163717931D01*
X276243403Y-163947585D01*
X275521744Y-164325285D01*
X275461634Y-164365450D01*
X275065450Y-164885845D01*
X41534550Y-164885845D01*
X41138366Y-164365450D01*
X40423388Y-163975252D01*
X39646024Y-163732036D01*
X38836147Y-163645149D01*
X38024882Y-163717931D01*
X37243403Y-163947585D01*
X36521744Y-164325285D01*
X36461634Y-164365450D01*
X36065450Y-164885845D01*
X19777000Y-164885845D01*
X19777000Y-156607245D01*
X49212295Y-156607245D01*
X49212295Y-157392755D01*
X49365540Y-158163171D01*
X49666141Y-158888887D01*
X50102547Y-159542014D01*
X50657986Y-160097453D01*
X51311113Y-160533859D01*
X52036829Y-160834460D01*
X52807245Y-160987705D01*
X53592755Y-160987705D01*
X54363171Y-160834460D01*
X55088887Y-160533859D01*
X55742014Y-160097453D01*
X56297453Y-159542014D01*
X56733859Y-158888887D01*
X57034460Y-158163171D01*
X57187705Y-157392755D01*
X57187705Y-156607245D01*
X75212295Y-156607245D01*
X75212295Y-157392755D01*
X75365540Y-158163171D01*
X75666141Y-158888887D01*
X76102547Y-159542014D01*
X76657986Y-160097453D01*
X77311113Y-160533859D01*
X78036829Y-160834460D01*
X78807245Y-160987705D01*
X79592755Y-160987705D01*
X80363171Y-160834460D01*
X81088887Y-160533859D01*
X81742014Y-160097453D01*
X82297453Y-159542014D01*
X82733859Y-158888887D01*
X83034460Y-158163171D01*
X83187705Y-157392755D01*
X83187705Y-156607245D01*
X101212295Y-156607245D01*
X101212295Y-157392755D01*
X101365540Y-158163171D01*
X101666141Y-158888887D01*
X102102547Y-159542014D01*
X102657986Y-160097453D01*
X103311113Y-160533859D01*
X104036829Y-160834460D01*
X104807245Y-160987705D01*
X105592755Y-160987705D01*
X106363171Y-160834460D01*
X107088887Y-160533859D01*
X107742014Y-160097453D01*
X108297453Y-159542014D01*
X108733859Y-158888887D01*
X109034460Y-158163171D01*
X109187705Y-157392755D01*
X109187705Y-156690560D01*
X128258202Y-156690560D01*
X128258202Y-157309440D01*
X128378939Y-157916429D01*
X128615775Y-158488199D01*
X128959606Y-159002780D01*
X129397220Y-159440394D01*
X129911801Y-159784225D01*
X130483571Y-160021061D01*
X131090560Y-160141798D01*
X131709440Y-160141798D01*
X132316429Y-160021061D01*
X132888199Y-159784225D01*
X133402780Y-159440394D01*
X133840394Y-159002780D01*
X134184225Y-158488199D01*
X134421061Y-157916429D01*
X134541798Y-157309440D01*
X134541798Y-156690560D01*
X141958202Y-156690560D01*
X141958202Y-157309440D01*
X142078939Y-157916429D01*
X142315775Y-158488199D01*
X142659606Y-159002780D01*
X143097220Y-159440394D01*
X143611801Y-159784225D01*
X144183571Y-160021061D01*
X144790560Y-160141798D01*
X145409440Y-160141798D01*
X146016429Y-160021061D01*
X146588199Y-159784225D01*
X147102780Y-159440394D01*
X147540394Y-159002780D01*
X147884225Y-158488199D01*
X148121061Y-157916429D01*
X148241798Y-157309440D01*
X148241798Y-156690560D01*
X155658202Y-156690560D01*
X155658202Y-157309440D01*
X155778939Y-157916429D01*
X156015775Y-158488199D01*
X156359606Y-159002780D01*
X156797220Y-159440394D01*
X157311801Y-159784225D01*
X157883571Y-160021061D01*
X158490560Y-160141798D01*
X159109440Y-160141798D01*
X159716429Y-160021061D01*
X160288199Y-159784225D01*
X160802780Y-159440394D01*
X161240394Y-159002780D01*
X161584225Y-158488199D01*
X161821061Y-157916429D01*
X161941798Y-157309440D01*
X161941798Y-156690560D01*
X169358202Y-156690560D01*
X169358202Y-157309440D01*
X169478939Y-157916429D01*
X169715775Y-158488199D01*
X170059606Y-159002780D01*
X170497220Y-159440394D01*
X171011801Y-159784225D01*
X171583571Y-160021061D01*
X172190560Y-160141798D01*
X172809440Y-160141798D01*
X173416429Y-160021061D01*
X173988199Y-159784225D01*
X174502780Y-159440394D01*
X174940394Y-159002780D01*
X175284225Y-158488199D01*
X175521061Y-157916429D01*
X175641798Y-157309440D01*
X175641798Y-156690560D01*
X183058202Y-156690560D01*
X183058202Y-157309440D01*
X183178939Y-157916429D01*
X183415775Y-158488199D01*
X183759606Y-159002780D01*
X184197220Y-159440394D01*
X184711801Y-159784225D01*
X185283571Y-160021061D01*
X185890560Y-160141798D01*
X186509440Y-160141798D01*
X187116429Y-160021061D01*
X187688199Y-159784225D01*
X188202780Y-159440394D01*
X188640394Y-159002780D01*
X188984225Y-158488199D01*
X189221061Y-157916429D01*
X189341798Y-157309440D01*
X189341798Y-156690560D01*
X196758202Y-156690560D01*
X196758202Y-157309440D01*
X196878939Y-157916429D01*
X197115775Y-158488199D01*
X197459606Y-159002780D01*
X197897220Y-159440394D01*
X198411801Y-159784225D01*
X198983571Y-160021061D01*
X199590560Y-160141798D01*
X200209440Y-160141798D01*
X200816429Y-160021061D01*
X201388199Y-159784225D01*
X201902780Y-159440394D01*
X202340394Y-159002780D01*
X202684225Y-158488199D01*
X202921061Y-157916429D01*
X203041798Y-157309440D01*
X203041798Y-156690560D01*
X209258202Y-156690560D01*
X209258202Y-157309440D01*
X209378939Y-157916429D01*
X209615775Y-158488199D01*
X209959606Y-159002780D01*
X210397220Y-159440394D01*
X210911801Y-159784225D01*
X211483571Y-160021061D01*
X212090560Y-160141798D01*
X212709440Y-160141798D01*
X213316429Y-160021061D01*
X213888199Y-159784225D01*
X214402780Y-159440394D01*
X214840394Y-159002780D01*
X215184225Y-158488199D01*
X215421061Y-157916429D01*
X215541798Y-157309440D01*
X215541798Y-156690560D01*
X215421061Y-156083571D01*
X215184225Y-155511801D01*
X214840394Y-154997220D01*
X214402780Y-154559606D01*
X213888199Y-154215775D01*
X213316429Y-153978939D01*
X212709440Y-153858202D01*
X212090560Y-153858202D01*
X211483571Y-153978939D01*
X210911801Y-154215775D01*
X210397220Y-154559606D01*
X209959606Y-154997220D01*
X209615775Y-155511801D01*
X209378939Y-156083571D01*
X209258202Y-156690560D01*
X203041798Y-156690560D01*
X202921061Y-156083571D01*
X202684225Y-155511801D01*
X202340394Y-154997220D01*
X201902780Y-154559606D01*
X201388199Y-154215775D01*
X200816429Y-153978939D01*
X200209440Y-153858202D01*
X199590560Y-153858202D01*
X198983571Y-153978939D01*
X198411801Y-154215775D01*
X197897220Y-154559606D01*
X197459606Y-154997220D01*
X197115775Y-155511801D01*
X196878939Y-156083571D01*
X196758202Y-156690560D01*
X189341798Y-156690560D01*
X189221061Y-156083571D01*
X188984225Y-155511801D01*
X188640394Y-154997220D01*
X188202780Y-154559606D01*
X187688199Y-154215775D01*
X187116429Y-153978939D01*
X186509440Y-153858202D01*
X185890560Y-153858202D01*
X185283571Y-153978939D01*
X184711801Y-154215775D01*
X184197220Y-154559606D01*
X183759606Y-154997220D01*
X183415775Y-155511801D01*
X183178939Y-156083571D01*
X183058202Y-156690560D01*
X175641798Y-156690560D01*
X175521061Y-156083571D01*
X175284225Y-155511801D01*
X174940394Y-154997220D01*
X174502780Y-154559606D01*
X173988199Y-154215775D01*
X173416429Y-153978939D01*
X172809440Y-153858202D01*
X172190560Y-153858202D01*
X171583571Y-153978939D01*
X171011801Y-154215775D01*
X170497220Y-154559606D01*
X170059606Y-154997220D01*
X169715775Y-155511801D01*
X169478939Y-156083571D01*
X169358202Y-156690560D01*
X161941798Y-156690560D01*
X161821061Y-156083571D01*
X161584225Y-155511801D01*
X161240394Y-154997220D01*
X160802780Y-154559606D01*
X160288199Y-154215775D01*
X159716429Y-153978939D01*
X159109440Y-153858202D01*
X158490560Y-153858202D01*
X157883571Y-153978939D01*
X157311801Y-154215775D01*
X156797220Y-154559606D01*
X156359606Y-154997220D01*
X156015775Y-155511801D01*
X155778939Y-156083571D01*
X155658202Y-156690560D01*
X148241798Y-156690560D01*
X148121061Y-156083571D01*
X147884225Y-155511801D01*
X147540394Y-154997220D01*
X147102780Y-154559606D01*
X146588199Y-154215775D01*
X146016429Y-153978939D01*
X145409440Y-153858202D01*
X144790560Y-153858202D01*
X144183571Y-153978939D01*
X143611801Y-154215775D01*
X143097220Y-154559606D01*
X142659606Y-154997220D01*
X142315775Y-155511801D01*
X142078939Y-156083571D01*
X141958202Y-156690560D01*
X134541798Y-156690560D01*
X134421061Y-156083571D01*
X134184225Y-155511801D01*
X133840394Y-154997220D01*
X133402780Y-154559606D01*
X132888199Y-154215775D01*
X132316429Y-153978939D01*
X131709440Y-153858202D01*
X131090560Y-153858202D01*
X130483571Y-153978939D01*
X129911801Y-154215775D01*
X129397220Y-154559606D01*
X128959606Y-154997220D01*
X128615775Y-155511801D01*
X128378939Y-156083571D01*
X128258202Y-156690560D01*
X109187705Y-156690560D01*
X109187705Y-156607245D01*
X109034460Y-155836829D01*
X108733859Y-155111113D01*
X108297453Y-154457986D01*
X107742014Y-153902547D01*
X107088887Y-153466141D01*
X106363171Y-153165540D01*
X105592755Y-153012295D01*
X104807245Y-153012295D01*
X104036829Y-153165540D01*
X103311113Y-153466141D01*
X102657986Y-153902547D01*
X102102547Y-154457986D01*
X101666141Y-155111113D01*
X101365540Y-155836829D01*
X101212295Y-156607245D01*
X83187705Y-156607245D01*
X83034460Y-155836829D01*
X82733859Y-155111113D01*
X82297453Y-154457986D01*
X81742014Y-153902547D01*
X81088887Y-153466141D01*
X80363171Y-153165540D01*
X79592755Y-153012295D01*
X78807245Y-153012295D01*
X78036829Y-153165540D01*
X77311113Y-153466141D01*
X76657986Y-153902547D01*
X76102547Y-154457986D01*
X75666141Y-155111113D01*
X75365540Y-155836829D01*
X75212295Y-156607245D01*
X57187705Y-156607245D01*
X57034460Y-155836829D01*
X56733859Y-155111113D01*
X56297453Y-154457986D01*
X55742014Y-153902547D01*
X55088887Y-153466141D01*
X54363171Y-153165540D01*
X53592755Y-153012295D01*
X52807245Y-153012295D01*
X52036829Y-153165540D01*
X51311113Y-153466141D01*
X50657986Y-153902547D01*
X50102547Y-154457986D01*
X49666141Y-155111113D01*
X49365540Y-155836829D01*
X49212295Y-156607245D01*
X19777000Y-156607245D01*
X19777000Y-87324652D01*
X49798000Y-87324652D01*
X49800493Y-87349965D01*
X49800493Y-87362949D01*
X49801226Y-87369919D01*
X49822980Y-87563869D01*
X49832438Y-87608364D01*
X49841278Y-87653008D01*
X49843351Y-87659704D01*
X49902364Y-87845734D01*
X49920289Y-87887554D01*
X49937626Y-87929617D01*
X49940959Y-87935783D01*
X50034981Y-88106808D01*
X50035301Y-88107276D01*
X50024140Y-88118437D01*
X49950050Y-88229320D01*
X49899016Y-88352526D01*
X49873000Y-88483321D01*
X49873000Y-88616679D01*
X49899016Y-88747474D01*
X49950050Y-88870680D01*
X50024140Y-88981563D01*
X50118437Y-89075860D01*
X50229320Y-89149950D01*
X50352526Y-89200984D01*
X50483321Y-89227000D01*
X50616679Y-89227000D01*
X50747474Y-89200984D01*
X50870680Y-89149950D01*
X50981563Y-89075860D01*
X51075860Y-88981563D01*
X51149950Y-88870680D01*
X51182251Y-88792699D01*
X51261481Y-88799910D01*
X51306981Y-88799592D01*
X51352480Y-88799910D01*
X51359456Y-88799226D01*
X51417908Y-88793082D01*
X51450050Y-88870680D01*
X51524140Y-88981563D01*
X51618437Y-89075860D01*
X51729320Y-89149950D01*
X51852526Y-89200984D01*
X51983321Y-89227000D01*
X52116679Y-89227000D01*
X52247474Y-89200984D01*
X52370680Y-89149950D01*
X52481563Y-89075860D01*
X52575860Y-88981563D01*
X52649950Y-88870680D01*
X52700984Y-88747474D01*
X52727000Y-88616679D01*
X52727000Y-88483321D01*
X52722362Y-88460000D01*
X75545813Y-88460000D01*
X75548001Y-88482215D01*
X75548000Y-103437795D01*
X75545813Y-103460000D01*
X75554540Y-103548607D01*
X75580386Y-103633810D01*
X75622357Y-103712333D01*
X75678841Y-103781159D01*
X75747667Y-103837643D01*
X75826190Y-103879614D01*
X75911393Y-103905460D01*
X76000000Y-103914187D01*
X76022205Y-103912000D01*
X92477795Y-103912000D01*
X92500000Y-103914187D01*
X92522205Y-103912000D01*
X92588607Y-103905460D01*
X92673810Y-103879614D01*
X92752333Y-103837643D01*
X92821159Y-103781159D01*
X92877643Y-103712333D01*
X92919614Y-103633810D01*
X92945460Y-103548607D01*
X92954187Y-103460000D01*
X92952000Y-103437795D01*
X92952000Y-99460000D01*
X144245813Y-99460000D01*
X144248001Y-99482215D01*
X144248000Y-114437795D01*
X144245813Y-114460000D01*
X144254540Y-114548607D01*
X144280386Y-114633810D01*
X144322357Y-114712333D01*
X144378841Y-114781159D01*
X144447667Y-114837643D01*
X144526190Y-114879614D01*
X144611393Y-114905460D01*
X144700000Y-114914187D01*
X144722205Y-114912000D01*
X161177795Y-114912000D01*
X161200000Y-114914187D01*
X161222205Y-114912000D01*
X161288607Y-114905460D01*
X161373810Y-114879614D01*
X161452333Y-114837643D01*
X161521159Y-114781159D01*
X161577643Y-114712333D01*
X161619614Y-114633810D01*
X161645460Y-114548607D01*
X161654187Y-114460000D01*
X161652000Y-114437795D01*
X161652000Y-99482205D01*
X161654187Y-99460000D01*
X161645460Y-99371393D01*
X161619614Y-99286190D01*
X161577643Y-99207667D01*
X161521159Y-99138841D01*
X161452333Y-99082357D01*
X161373810Y-99040386D01*
X161288607Y-99014540D01*
X161222205Y-99008000D01*
X161200000Y-99005813D01*
X161177795Y-99008000D01*
X144722205Y-99008000D01*
X144700000Y-99005813D01*
X144677795Y-99008000D01*
X144611393Y-99014540D01*
X144526190Y-99040386D01*
X144447667Y-99082357D01*
X144378841Y-99138841D01*
X144322357Y-99207667D01*
X144280386Y-99286190D01*
X144254540Y-99371393D01*
X144245813Y-99460000D01*
X92952000Y-99460000D01*
X92952000Y-88482205D01*
X92954187Y-88460000D01*
X92945460Y-88371393D01*
X92919614Y-88286190D01*
X92877643Y-88207667D01*
X92821159Y-88138841D01*
X92752333Y-88082357D01*
X92673810Y-88040386D01*
X92588607Y-88014540D01*
X92522205Y-88008000D01*
X92500000Y-88005813D01*
X92477795Y-88008000D01*
X76022205Y-88008000D01*
X76000000Y-88005813D01*
X75977795Y-88008000D01*
X75911393Y-88014540D01*
X75826190Y-88040386D01*
X75747667Y-88082357D01*
X75678841Y-88138841D01*
X75622357Y-88207667D01*
X75580386Y-88286190D01*
X75554540Y-88371393D01*
X75545813Y-88460000D01*
X52722362Y-88460000D01*
X52700984Y-88352526D01*
X52649950Y-88229320D01*
X52575860Y-88118437D01*
X52564629Y-88107206D01*
X52572827Y-88095232D01*
X52576161Y-88089066D01*
X52667786Y-87916744D01*
X52685116Y-87874698D01*
X52703048Y-87832859D01*
X52705120Y-87826164D01*
X52761530Y-87639327D01*
X52770375Y-87594655D01*
X52779826Y-87550192D01*
X52780559Y-87543221D01*
X52799604Y-87348988D01*
X52799604Y-87348981D01*
X52802000Y-87324653D01*
X52802000Y-70460000D01*
X75545813Y-70460000D01*
X75548001Y-70482215D01*
X75548000Y-85437795D01*
X75545813Y-85460000D01*
X75554540Y-85548607D01*
X75580386Y-85633810D01*
X75622357Y-85712333D01*
X75678841Y-85781159D01*
X75747667Y-85837643D01*
X75826190Y-85879614D01*
X75911393Y-85905460D01*
X76000000Y-85914187D01*
X76022205Y-85912000D01*
X92477795Y-85912000D01*
X92500000Y-85914187D01*
X92522205Y-85912000D01*
X92588607Y-85905460D01*
X92673810Y-85879614D01*
X92752333Y-85837643D01*
X92821159Y-85781159D01*
X92877643Y-85712333D01*
X92919614Y-85633810D01*
X92945460Y-85548607D01*
X92954187Y-85460000D01*
X92952000Y-85437795D01*
X92952000Y-81460000D01*
X144245813Y-81460000D01*
X144248001Y-81482215D01*
X144248000Y-96437795D01*
X144245813Y-96460000D01*
X144254540Y-96548607D01*
X144280386Y-96633810D01*
X144322357Y-96712333D01*
X144378841Y-96781159D01*
X144447667Y-96837643D01*
X144526190Y-96879614D01*
X144611393Y-96905460D01*
X144700000Y-96914187D01*
X144722205Y-96912000D01*
X161177795Y-96912000D01*
X161200000Y-96914187D01*
X161222205Y-96912000D01*
X161288607Y-96905460D01*
X161373810Y-96879614D01*
X161452333Y-96837643D01*
X161521159Y-96781159D01*
X161577643Y-96712333D01*
X161619614Y-96633810D01*
X161645460Y-96548607D01*
X161654187Y-96460000D01*
X161652000Y-96437795D01*
X161652000Y-81482205D01*
X161654187Y-81460000D01*
X161645460Y-81371393D01*
X161619614Y-81286190D01*
X161577643Y-81207667D01*
X161521159Y-81138841D01*
X161452333Y-81082357D01*
X161373810Y-81040386D01*
X161288607Y-81014540D01*
X161222205Y-81008000D01*
X161200000Y-81005813D01*
X161177795Y-81008000D01*
X144722205Y-81008000D01*
X144700000Y-81005813D01*
X144677795Y-81008000D01*
X144611393Y-81014540D01*
X144526190Y-81040386D01*
X144447667Y-81082357D01*
X144378841Y-81138841D01*
X144322357Y-81207667D01*
X144280386Y-81286190D01*
X144254540Y-81371393D01*
X144245813Y-81460000D01*
X92952000Y-81460000D01*
X92952000Y-70482205D01*
X92954187Y-70460000D01*
X92945460Y-70371393D01*
X92919614Y-70286190D01*
X92877643Y-70207667D01*
X92821159Y-70138841D01*
X92752333Y-70082357D01*
X92673810Y-70040386D01*
X92588607Y-70014540D01*
X92522205Y-70008000D01*
X92500000Y-70005813D01*
X92477795Y-70008000D01*
X76022205Y-70008000D01*
X76000000Y-70005813D01*
X75977795Y-70008000D01*
X75911393Y-70014540D01*
X75826190Y-70040386D01*
X75747667Y-70082357D01*
X75678841Y-70138841D01*
X75622357Y-70207667D01*
X75580386Y-70286190D01*
X75554540Y-70371393D01*
X75545813Y-70460000D01*
X52802000Y-70460000D01*
X52802000Y-55700881D01*
X68478724Y-55700881D01*
X68838912Y-56190548D01*
X69502882Y-56550849D01*
X70224385Y-56774694D01*
X70975695Y-56853480D01*
X71727938Y-56784178D01*
X72452208Y-56569452D01*
X73120670Y-56217555D01*
X73161088Y-56190548D01*
X73521276Y-55700881D01*
X108478724Y-55700881D01*
X108838912Y-56190548D01*
X109502882Y-56550849D01*
X110224385Y-56774694D01*
X110975695Y-56853480D01*
X111727938Y-56784178D01*
X112452208Y-56569452D01*
X113120670Y-56217555D01*
X113161088Y-56190548D01*
X113521276Y-55700881D01*
X111000000Y-53179605D01*
X108478724Y-55700881D01*
X73521276Y-55700881D01*
X71000000Y-53179605D01*
X68478724Y-55700881D01*
X52802000Y-55700881D01*
X52802000Y-52975695D01*
X67146520Y-52975695D01*
X67215822Y-53727938D01*
X67430548Y-54452208D01*
X67782445Y-55120670D01*
X67809452Y-55161088D01*
X68299119Y-55521276D01*
X70820395Y-53000000D01*
X71179605Y-53000000D01*
X73700881Y-55521276D01*
X74190548Y-55161088D01*
X74550849Y-54497118D01*
X74774694Y-53775615D01*
X74853480Y-53024305D01*
X74849002Y-52975695D01*
X107146520Y-52975695D01*
X107215822Y-53727938D01*
X107430548Y-54452208D01*
X107782445Y-55120670D01*
X107809452Y-55161088D01*
X108299119Y-55521276D01*
X110820395Y-53000000D01*
X111179605Y-53000000D01*
X113700881Y-55521276D01*
X114190548Y-55161088D01*
X114550849Y-54497118D01*
X114774694Y-53775615D01*
X114853480Y-53024305D01*
X114784178Y-52272062D01*
X114569452Y-51547792D01*
X114217555Y-50879330D01*
X114190548Y-50838912D01*
X113700881Y-50478724D01*
X111179605Y-53000000D01*
X110820395Y-53000000D01*
X108299119Y-50478724D01*
X107809452Y-50838912D01*
X107449151Y-51502882D01*
X107225306Y-52224385D01*
X107146520Y-52975695D01*
X74849002Y-52975695D01*
X74784178Y-52272062D01*
X74569452Y-51547792D01*
X74217555Y-50879330D01*
X74190548Y-50838912D01*
X73700881Y-50478724D01*
X71179605Y-53000000D01*
X70820395Y-53000000D01*
X68299119Y-50478724D01*
X67809452Y-50838912D01*
X67449151Y-51502882D01*
X67225306Y-52224385D01*
X67146520Y-52975695D01*
X52802000Y-52975695D01*
X52802000Y-50324551D01*
X52804493Y-50299119D01*
X68478724Y-50299119D01*
X71000000Y-52820395D01*
X73521276Y-50299119D01*
X108478724Y-50299119D01*
X111000000Y-52820395D01*
X113521276Y-50299119D01*
X113161088Y-49809452D01*
X112497118Y-49449151D01*
X111775615Y-49225306D01*
X111024305Y-49146520D01*
X110272062Y-49215822D01*
X109547792Y-49430548D01*
X108879330Y-49782445D01*
X108838912Y-49809452D01*
X108478724Y-50299119D01*
X73521276Y-50299119D01*
X73161088Y-49809452D01*
X72497118Y-49449151D01*
X71775615Y-49225306D01*
X71024305Y-49146520D01*
X70272062Y-49215822D01*
X69547792Y-49430548D01*
X68879330Y-49782445D01*
X68838912Y-49809452D01*
X68478724Y-50299119D01*
X52804493Y-50299119D01*
X52851936Y-49815269D01*
X52992709Y-49349005D01*
X53221367Y-48918960D01*
X53529200Y-48541521D01*
X53904480Y-48231061D01*
X54332918Y-47999406D01*
X54798189Y-47855379D01*
X55306059Y-47802000D01*
X61824653Y-47802000D01*
X61849966Y-47799507D01*
X61862949Y-47799507D01*
X61869919Y-47798774D01*
X62063869Y-47777020D01*
X62108364Y-47767562D01*
X62153008Y-47758722D01*
X62159704Y-47756649D01*
X62345734Y-47697636D01*
X62387554Y-47679711D01*
X62429617Y-47662374D01*
X62435783Y-47659041D01*
X62606808Y-47565019D01*
X62607276Y-47564699D01*
X62618437Y-47575860D01*
X62729320Y-47649950D01*
X62852526Y-47700984D01*
X62983321Y-47727000D01*
X63116679Y-47727000D01*
X63247474Y-47700984D01*
X63370680Y-47649950D01*
X63425000Y-47613654D01*
X63479320Y-47649950D01*
X63602526Y-47700984D01*
X63733321Y-47727000D01*
X63866679Y-47727000D01*
X63997474Y-47700984D01*
X64120680Y-47649950D01*
X64175000Y-47613654D01*
X64229320Y-47649950D01*
X64352526Y-47700984D01*
X64483321Y-47727000D01*
X64616679Y-47727000D01*
X64747474Y-47700984D01*
X64870680Y-47649950D01*
X64981563Y-47575860D01*
X64992794Y-47564629D01*
X65004768Y-47572827D01*
X65010934Y-47576161D01*
X65183256Y-47667786D01*
X65225302Y-47685116D01*
X65267141Y-47703048D01*
X65273836Y-47705120D01*
X65460673Y-47761530D01*
X65505345Y-47770375D01*
X65549808Y-47779826D01*
X65556779Y-47780559D01*
X65751012Y-47799604D01*
X65751019Y-47799604D01*
X65775347Y-47802000D01*
X128324653Y-47802000D01*
X128349966Y-47799507D01*
X128362949Y-47799507D01*
X128369919Y-47798774D01*
X128563869Y-47777020D01*
X128608364Y-47767562D01*
X128653008Y-47758722D01*
X128659704Y-47756649D01*
X128845734Y-47697636D01*
X128887554Y-47679711D01*
X128929617Y-47662374D01*
X128935783Y-47659041D01*
X129106808Y-47565019D01*
X129107276Y-47564699D01*
X129118437Y-47575860D01*
X129229320Y-47649950D01*
X129352526Y-47700984D01*
X129483321Y-47727000D01*
X129616679Y-47727000D01*
X129747474Y-47700984D01*
X129870680Y-47649950D01*
X129925000Y-47613654D01*
X129979320Y-47649950D01*
X130102526Y-47700984D01*
X130233321Y-47727000D01*
X130366679Y-47727000D01*
X130497474Y-47700984D01*
X130620680Y-47649950D01*
X130675000Y-47613654D01*
X130729320Y-47649950D01*
X130852526Y-47700984D01*
X130983321Y-47727000D01*
X131116679Y-47727000D01*
X131247474Y-47700984D01*
X131370680Y-47649950D01*
X131481563Y-47575860D01*
X131492794Y-47564629D01*
X131504768Y-47572827D01*
X131510934Y-47576161D01*
X131683256Y-47667786D01*
X131725302Y-47685116D01*
X131767141Y-47703048D01*
X131773836Y-47705120D01*
X131960673Y-47761530D01*
X132005345Y-47770375D01*
X132049808Y-47779826D01*
X132056779Y-47780559D01*
X132251012Y-47799604D01*
X132251019Y-47799604D01*
X132275347Y-47802000D01*
X214824653Y-47802000D01*
X214849966Y-47799507D01*
X214862949Y-47799507D01*
X214869919Y-47798774D01*
X215063869Y-47777020D01*
X215108364Y-47767562D01*
X215153008Y-47758722D01*
X215159704Y-47756649D01*
X215345734Y-47697636D01*
X215387554Y-47679711D01*
X215429617Y-47662374D01*
X215435783Y-47659041D01*
X215606808Y-47565019D01*
X215607276Y-47564699D01*
X215618437Y-47575860D01*
X215729320Y-47649950D01*
X215852526Y-47700984D01*
X215983321Y-47727000D01*
X216116679Y-47727000D01*
X216247474Y-47700984D01*
X216370680Y-47649950D01*
X216425000Y-47613654D01*
X216479320Y-47649950D01*
X216602526Y-47700984D01*
X216733321Y-47727000D01*
X216866679Y-47727000D01*
X216997474Y-47700984D01*
X217120680Y-47649950D01*
X217175000Y-47613654D01*
X217229320Y-47649950D01*
X217352526Y-47700984D01*
X217483321Y-47727000D01*
X217616679Y-47727000D01*
X217747474Y-47700984D01*
X217870680Y-47649950D01*
X217981563Y-47575860D01*
X217992794Y-47564629D01*
X218004768Y-47572827D01*
X218010934Y-47576161D01*
X218183256Y-47667786D01*
X218225302Y-47685116D01*
X218267141Y-47703048D01*
X218273836Y-47705120D01*
X218460673Y-47761530D01*
X218505345Y-47770375D01*
X218549808Y-47779826D01*
X218556779Y-47780559D01*
X218751012Y-47799604D01*
X218751019Y-47799604D01*
X218775347Y-47802000D01*
X225275449Y-47802000D01*
X225784731Y-47851936D01*
X226250995Y-47992709D01*
X226681040Y-48221367D01*
X227058479Y-48529200D01*
X227368939Y-48904480D01*
X227600594Y-49332918D01*
X227744621Y-49798189D01*
X227798000Y-50306059D01*
X227798001Y-88824653D01*
X227800493Y-88849956D01*
X227800493Y-88862949D01*
X227801226Y-88869919D01*
X227822980Y-89063869D01*
X227832438Y-89108364D01*
X227841278Y-89153008D01*
X227843351Y-89159704D01*
X227902364Y-89345734D01*
X227920289Y-89387554D01*
X227937626Y-89429617D01*
X227940959Y-89435783D01*
X228034981Y-89606808D01*
X228035301Y-89607276D01*
X228024140Y-89618437D01*
X227950050Y-89729320D01*
X227899016Y-89852526D01*
X227873000Y-89983321D01*
X227873000Y-90116679D01*
X227899016Y-90247474D01*
X227950050Y-90370680D01*
X227986346Y-90425000D01*
X227950050Y-90479320D01*
X227899016Y-90602526D01*
X227873000Y-90733321D01*
X227873000Y-90866679D01*
X227899016Y-90997474D01*
X227950050Y-91120680D01*
X227986346Y-91175000D01*
X227950050Y-91229320D01*
X227899016Y-91352526D01*
X227873000Y-91483321D01*
X227873000Y-91616679D01*
X227899016Y-91747474D01*
X227950050Y-91870680D01*
X228024140Y-91981563D01*
X228035371Y-91992794D01*
X228027173Y-92004768D01*
X228023839Y-92010933D01*
X227932214Y-92183256D01*
X227914895Y-92225276D01*
X227896952Y-92267140D01*
X227894880Y-92273836D01*
X227838471Y-92460672D01*
X227829633Y-92505309D01*
X227820174Y-92549809D01*
X227819441Y-92556779D01*
X227800396Y-92751013D01*
X227800396Y-92751029D01*
X227798001Y-92775347D01*
X227798000Y-140275449D01*
X227748064Y-140784728D01*
X227607291Y-141250993D01*
X227378633Y-141681040D01*
X227070800Y-142058479D01*
X226695517Y-142368940D01*
X226267082Y-142600594D01*
X225801807Y-142744621D01*
X225293941Y-142798000D01*
X217275347Y-142798000D01*
X217250034Y-142800493D01*
X217237051Y-142800493D01*
X217230080Y-142801226D01*
X217036131Y-142822981D01*
X216991673Y-142832431D01*
X216946992Y-142841278D01*
X216940297Y-142843351D01*
X216754266Y-142902364D01*
X216712478Y-142920275D01*
X216670383Y-142937625D01*
X216664217Y-142940959D01*
X216493192Y-143034981D01*
X216492724Y-143035301D01*
X216481563Y-143024140D01*
X216370680Y-142950050D01*
X216247474Y-142899016D01*
X216116679Y-142873000D01*
X215983321Y-142873000D01*
X215852526Y-142899016D01*
X215729320Y-142950050D01*
X215675000Y-142986346D01*
X215620680Y-142950050D01*
X215497474Y-142899016D01*
X215366679Y-142873000D01*
X215233321Y-142873000D01*
X215102526Y-142899016D01*
X214979320Y-142950050D01*
X214925000Y-142986346D01*
X214870680Y-142950050D01*
X214747474Y-142899016D01*
X214616679Y-142873000D01*
X214483321Y-142873000D01*
X214352526Y-142899016D01*
X214229320Y-142950050D01*
X214118437Y-143024140D01*
X214107206Y-143035371D01*
X214095232Y-143027173D01*
X214089067Y-143023839D01*
X213916744Y-142932214D01*
X213874724Y-142914895D01*
X213832860Y-142896952D01*
X213826164Y-142894880D01*
X213639328Y-142838471D01*
X213594677Y-142829630D01*
X213550191Y-142820174D01*
X213543221Y-142819441D01*
X213348987Y-142800396D01*
X213348981Y-142800396D01*
X213324653Y-142798000D01*
X136275347Y-142798000D01*
X136250034Y-142800493D01*
X136237051Y-142800493D01*
X136230080Y-142801226D01*
X136036131Y-142822981D01*
X135991673Y-142832431D01*
X135946992Y-142841278D01*
X135940297Y-142843351D01*
X135754266Y-142902364D01*
X135712478Y-142920275D01*
X135670383Y-142937625D01*
X135664217Y-142940959D01*
X135493192Y-143034981D01*
X135492724Y-143035301D01*
X135481563Y-143024140D01*
X135370680Y-142950050D01*
X135247474Y-142899016D01*
X135116679Y-142873000D01*
X134983321Y-142873000D01*
X134852526Y-142899016D01*
X134729320Y-142950050D01*
X134675000Y-142986346D01*
X134620680Y-142950050D01*
X134497474Y-142899016D01*
X134366679Y-142873000D01*
X134233321Y-142873000D01*
X134102526Y-142899016D01*
X133979320Y-142950050D01*
X133925000Y-142986346D01*
X133870680Y-142950050D01*
X133747474Y-142899016D01*
X133616679Y-142873000D01*
X133483321Y-142873000D01*
X133352526Y-142899016D01*
X133229320Y-142950050D01*
X133118437Y-143024140D01*
X133107206Y-143035371D01*
X133095232Y-143027173D01*
X133089067Y-143023839D01*
X132916744Y-142932214D01*
X132874724Y-142914895D01*
X132832860Y-142896952D01*
X132826164Y-142894880D01*
X132639328Y-142838471D01*
X132594677Y-142829630D01*
X132550191Y-142820174D01*
X132543221Y-142819441D01*
X132348987Y-142800396D01*
X132348981Y-142800396D01*
X132324653Y-142798000D01*
X68275347Y-142798000D01*
X68250034Y-142800493D01*
X68237051Y-142800493D01*
X68230080Y-142801226D01*
X68036131Y-142822981D01*
X67991673Y-142832431D01*
X67946992Y-142841278D01*
X67940297Y-142843351D01*
X67754266Y-142902364D01*
X67712478Y-142920275D01*
X67670383Y-142937625D01*
X67664217Y-142940959D01*
X67493192Y-143034981D01*
X67492724Y-143035301D01*
X67481563Y-143024140D01*
X67370680Y-142950050D01*
X67247474Y-142899016D01*
X67116679Y-142873000D01*
X66983321Y-142873000D01*
X66852526Y-142899016D01*
X66729320Y-142950050D01*
X66675000Y-142986346D01*
X66620680Y-142950050D01*
X66497474Y-142899016D01*
X66366679Y-142873000D01*
X66233321Y-142873000D01*
X66102526Y-142899016D01*
X65979320Y-142950050D01*
X65925000Y-142986346D01*
X65870680Y-142950050D01*
X65747474Y-142899016D01*
X65616679Y-142873000D01*
X65483321Y-142873000D01*
X65352526Y-142899016D01*
X65229320Y-142950050D01*
X65118437Y-143024140D01*
X65107206Y-143035371D01*
X65095232Y-143027173D01*
X65089067Y-143023839D01*
X64916744Y-142932214D01*
X64874724Y-142914895D01*
X64832860Y-142896952D01*
X64826164Y-142894880D01*
X64639328Y-142838471D01*
X64594677Y-142829630D01*
X64550191Y-142820174D01*
X64543221Y-142819441D01*
X64348987Y-142800396D01*
X64348981Y-142800396D01*
X64324653Y-142798000D01*
X55324551Y-142798000D01*
X54815272Y-142748064D01*
X54349007Y-142607291D01*
X53918960Y-142378633D01*
X53541521Y-142070800D01*
X53231060Y-141695517D01*
X52999406Y-141267082D01*
X52855379Y-140801807D01*
X52844772Y-140700881D01*
X68478724Y-140700881D01*
X68838912Y-141190548D01*
X69502882Y-141550849D01*
X70224385Y-141774694D01*
X70975695Y-141853480D01*
X71727938Y-141784178D01*
X72452208Y-141569452D01*
X73120670Y-141217555D01*
X73161088Y-141190548D01*
X73521276Y-140700881D01*
X108478724Y-140700881D01*
X108838912Y-141190548D01*
X109502882Y-141550849D01*
X110224385Y-141774694D01*
X110975695Y-141853480D01*
X111727938Y-141784178D01*
X112452208Y-141569452D01*
X113120670Y-141217555D01*
X113161088Y-141190548D01*
X113521276Y-140700881D01*
X111000000Y-138179605D01*
X108478724Y-140700881D01*
X73521276Y-140700881D01*
X71000000Y-138179605D01*
X68478724Y-140700881D01*
X52844772Y-140700881D01*
X52802000Y-140293941D01*
X52802000Y-137975695D01*
X67146520Y-137975695D01*
X67215822Y-138727938D01*
X67430548Y-139452208D01*
X67782445Y-140120670D01*
X67809452Y-140161088D01*
X68299119Y-140521276D01*
X70820395Y-138000000D01*
X71179605Y-138000000D01*
X73700881Y-140521276D01*
X74190548Y-140161088D01*
X74550849Y-139497118D01*
X74774694Y-138775615D01*
X74853480Y-138024305D01*
X74849002Y-137975695D01*
X107146520Y-137975695D01*
X107215822Y-138727938D01*
X107430548Y-139452208D01*
X107782445Y-140120670D01*
X107809452Y-140161088D01*
X108299119Y-140521276D01*
X110820395Y-138000000D01*
X111179605Y-138000000D01*
X113700881Y-140521276D01*
X114190548Y-140161088D01*
X114550849Y-139497118D01*
X114774694Y-138775615D01*
X114853480Y-138024305D01*
X114784178Y-137272062D01*
X114569452Y-136547792D01*
X114217555Y-135879330D01*
X114190548Y-135838912D01*
X113700881Y-135478724D01*
X111179605Y-138000000D01*
X110820395Y-138000000D01*
X108299119Y-135478724D01*
X107809452Y-135838912D01*
X107449151Y-136502882D01*
X107225306Y-137224385D01*
X107146520Y-137975695D01*
X74849002Y-137975695D01*
X74784178Y-137272062D01*
X74569452Y-136547792D01*
X74217555Y-135879330D01*
X74190548Y-135838912D01*
X73700881Y-135478724D01*
X71179605Y-138000000D01*
X70820395Y-138000000D01*
X68299119Y-135478724D01*
X67809452Y-135838912D01*
X67449151Y-136502882D01*
X67225306Y-137224385D01*
X67146520Y-137975695D01*
X52802000Y-137975695D01*
X52802000Y-135299119D01*
X68478724Y-135299119D01*
X71000000Y-137820395D01*
X73521276Y-135299119D01*
X108478724Y-135299119D01*
X111000000Y-137820395D01*
X113521276Y-135299119D01*
X113161088Y-134809452D01*
X112497118Y-134449151D01*
X111775615Y-134225306D01*
X111024305Y-134146520D01*
X110272062Y-134215822D01*
X109547792Y-134430548D01*
X108879330Y-134782445D01*
X108838912Y-134809452D01*
X108478724Y-135299119D01*
X73521276Y-135299119D01*
X73161088Y-134809452D01*
X72497118Y-134449151D01*
X71775615Y-134225306D01*
X71024305Y-134146520D01*
X70272062Y-134215822D01*
X69547792Y-134430548D01*
X68879330Y-134782445D01*
X68838912Y-134809452D01*
X68478724Y-135299119D01*
X52802000Y-135299119D01*
X52802000Y-106000000D01*
X77545813Y-106000000D01*
X77548001Y-106022215D01*
X77548000Y-123477795D01*
X77545813Y-123500000D01*
X77554540Y-123588607D01*
X77580386Y-123673810D01*
X77622357Y-123752333D01*
X77678841Y-123821159D01*
X77747667Y-123877643D01*
X77826190Y-123919614D01*
X77911393Y-123945460D01*
X78000000Y-123954187D01*
X78022205Y-123952000D01*
X92477795Y-123952000D01*
X92500000Y-123954187D01*
X92522205Y-123952000D01*
X92588607Y-123945460D01*
X92673810Y-123919614D01*
X92752333Y-123877643D01*
X92821159Y-123821159D01*
X92877643Y-123752333D01*
X92919614Y-123673810D01*
X92945460Y-123588607D01*
X92954187Y-123500000D01*
X92952000Y-123477795D01*
X92952000Y-117000000D01*
X146245813Y-117000000D01*
X146248001Y-117022215D01*
X146248000Y-134477795D01*
X146245813Y-134500000D01*
X146254540Y-134588607D01*
X146280386Y-134673810D01*
X146322357Y-134752333D01*
X146369233Y-134809452D01*
X146378841Y-134821159D01*
X146447667Y-134877643D01*
X146526190Y-134919614D01*
X146611393Y-134945460D01*
X146700000Y-134954187D01*
X146722205Y-134952000D01*
X161177795Y-134952000D01*
X161200000Y-134954187D01*
X161222205Y-134952000D01*
X161288607Y-134945460D01*
X161373810Y-134919614D01*
X161452333Y-134877643D01*
X161521159Y-134821159D01*
X161577643Y-134752333D01*
X161619614Y-134673810D01*
X161645460Y-134588607D01*
X161654187Y-134500000D01*
X161652000Y-134477795D01*
X161652000Y-117022205D01*
X161654187Y-117000000D01*
X161645460Y-116911393D01*
X161619614Y-116826190D01*
X161577643Y-116747667D01*
X161521159Y-116678841D01*
X161452333Y-116622357D01*
X161373810Y-116580386D01*
X161288607Y-116554540D01*
X161222205Y-116548000D01*
X161200000Y-116545813D01*
X161177795Y-116548000D01*
X146722205Y-116548000D01*
X146700000Y-116545813D01*
X146677795Y-116548000D01*
X146611393Y-116554540D01*
X146526190Y-116580386D01*
X146447667Y-116622357D01*
X146378841Y-116678841D01*
X146322357Y-116747667D01*
X146280386Y-116826190D01*
X146254540Y-116911393D01*
X146245813Y-117000000D01*
X92952000Y-117000000D01*
X92952000Y-106022205D01*
X92954187Y-106000000D01*
X92945460Y-105911393D01*
X92919614Y-105826190D01*
X92877643Y-105747667D01*
X92821159Y-105678841D01*
X92752333Y-105622357D01*
X92673810Y-105580386D01*
X92588607Y-105554540D01*
X92522205Y-105548000D01*
X92500000Y-105545813D01*
X92477795Y-105548000D01*
X78022205Y-105548000D01*
X78000000Y-105545813D01*
X77977795Y-105548000D01*
X77911393Y-105554540D01*
X77826190Y-105580386D01*
X77747667Y-105622357D01*
X77678841Y-105678841D01*
X77622357Y-105747667D01*
X77580386Y-105826190D01*
X77554540Y-105911393D01*
X77545813Y-106000000D01*
X52802000Y-106000000D01*
X52802000Y-91275347D01*
X52799507Y-91250034D01*
X52799507Y-91237051D01*
X52798774Y-91230080D01*
X52777019Y-91036131D01*
X52767569Y-90991673D01*
X52758722Y-90946992D01*
X52756649Y-90940297D01*
X52697636Y-90754266D01*
X52679725Y-90712478D01*
X52662375Y-90670383D01*
X52659041Y-90664217D01*
X52565019Y-90493192D01*
X52564699Y-90492724D01*
X52575860Y-90481563D01*
X52649950Y-90370680D01*
X52700984Y-90247474D01*
X52727000Y-90116679D01*
X52727000Y-89983321D01*
X52700984Y-89852526D01*
X52649950Y-89729320D01*
X52575860Y-89618437D01*
X52481563Y-89524140D01*
X52370680Y-89450050D01*
X52247474Y-89399016D01*
X52116679Y-89373000D01*
X51983321Y-89373000D01*
X51852526Y-89399016D01*
X51729320Y-89450050D01*
X51618437Y-89524140D01*
X51524140Y-89618437D01*
X51450050Y-89729320D01*
X51417749Y-89807301D01*
X51338518Y-89800090D01*
X51293019Y-89800408D01*
X51247520Y-89800090D01*
X51240544Y-89800774D01*
X51182092Y-89806918D01*
X51149950Y-89729320D01*
X51075860Y-89618437D01*
X50981563Y-89524140D01*
X50870680Y-89450050D01*
X50747474Y-89399016D01*
X50616679Y-89373000D01*
X50483321Y-89373000D01*
X50352526Y-89399016D01*
X50229320Y-89450050D01*
X50118437Y-89524140D01*
X50024140Y-89618437D01*
X49950050Y-89729320D01*
X49899016Y-89852526D01*
X49873000Y-89983321D01*
X49873000Y-90116679D01*
X49899016Y-90247474D01*
X49950050Y-90370680D01*
X50024140Y-90481563D01*
X50035371Y-90492794D01*
X50027173Y-90504768D01*
X50023839Y-90510933D01*
X49932214Y-90683256D01*
X49914895Y-90725276D01*
X49896952Y-90767140D01*
X49894880Y-90773836D01*
X49838471Y-90960672D01*
X49829633Y-91005309D01*
X49820174Y-91049809D01*
X49819441Y-91056779D01*
X49800396Y-91251013D01*
X49800396Y-91251029D01*
X49798001Y-91275347D01*
X49798000Y-140324652D01*
X49799802Y-140342953D01*
X49852986Y-141067181D01*
X49854902Y-141078881D01*
X49855274Y-141090724D01*
X49865508Y-141147605D01*
X50073028Y-142011987D01*
X50078067Y-142026958D01*
X50081350Y-142042406D01*
X50101496Y-142096575D01*
X50458804Y-142910546D01*
X50466414Y-142924389D01*
X50472381Y-142939010D01*
X50501801Y-142988756D01*
X50997604Y-143726590D01*
X51007542Y-143738862D01*
X51016007Y-143752201D01*
X51053771Y-143795950D01*
X51672398Y-144434323D01*
X51684352Y-144444642D01*
X51695045Y-144456270D01*
X51739959Y-144492641D01*
X52461855Y-145011376D01*
X52475454Y-145019418D01*
X52488031Y-145028965D01*
X52538676Y-145056808D01*
X53341023Y-145439508D01*
X53355831Y-145445015D01*
X53369901Y-145452184D01*
X53424676Y-145470618D01*
X54282111Y-145705186D01*
X54297658Y-145707983D01*
X54312777Y-145712548D01*
X54369951Y-145720991D01*
X55253208Y-145799820D01*
X55275347Y-145802000D01*
X64324653Y-145802000D01*
X64349966Y-145799507D01*
X64362949Y-145799507D01*
X64369919Y-145798774D01*
X64563869Y-145777020D01*
X64608364Y-145767562D01*
X64653008Y-145758722D01*
X64659704Y-145756649D01*
X64845734Y-145697636D01*
X64887554Y-145679711D01*
X64929617Y-145662374D01*
X64935783Y-145659041D01*
X65106808Y-145565019D01*
X65107276Y-145564699D01*
X65118437Y-145575860D01*
X65229320Y-145649950D01*
X65352526Y-145700984D01*
X65483321Y-145727000D01*
X65616679Y-145727000D01*
X65747474Y-145700984D01*
X65870680Y-145649950D01*
X65925000Y-145613654D01*
X65979320Y-145649950D01*
X66102526Y-145700984D01*
X66233321Y-145727000D01*
X66366679Y-145727000D01*
X66497474Y-145700984D01*
X66620680Y-145649950D01*
X66675000Y-145613654D01*
X66729320Y-145649950D01*
X66852526Y-145700984D01*
X66983321Y-145727000D01*
X67116679Y-145727000D01*
X67247474Y-145700984D01*
X67370680Y-145649950D01*
X67481563Y-145575860D01*
X67492794Y-145564629D01*
X67504768Y-145572827D01*
X67510934Y-145576161D01*
X67683256Y-145667786D01*
X67725302Y-145685116D01*
X67767141Y-145703048D01*
X67773836Y-145705120D01*
X67960673Y-145761530D01*
X68005345Y-145770375D01*
X68049808Y-145779826D01*
X68056779Y-145780559D01*
X68251012Y-145799604D01*
X68251019Y-145799604D01*
X68275347Y-145802000D01*
X132324653Y-145802000D01*
X132349966Y-145799507D01*
X132362949Y-145799507D01*
X132369919Y-145798774D01*
X132563869Y-145777020D01*
X132608364Y-145767562D01*
X132653008Y-145758722D01*
X132659704Y-145756649D01*
X132845734Y-145697636D01*
X132887554Y-145679711D01*
X132929617Y-145662374D01*
X132935783Y-145659041D01*
X133106808Y-145565019D01*
X133107276Y-145564699D01*
X133118437Y-145575860D01*
X133229320Y-145649950D01*
X133352526Y-145700984D01*
X133483321Y-145727000D01*
X133616679Y-145727000D01*
X133747474Y-145700984D01*
X133870680Y-145649950D01*
X133925000Y-145613654D01*
X133979320Y-145649950D01*
X134102526Y-145700984D01*
X134233321Y-145727000D01*
X134366679Y-145727000D01*
X134497474Y-145700984D01*
X134620680Y-145649950D01*
X134675000Y-145613654D01*
X134729320Y-145649950D01*
X134852526Y-145700984D01*
X134983321Y-145727000D01*
X135116679Y-145727000D01*
X135247474Y-145700984D01*
X135370680Y-145649950D01*
X135481563Y-145575860D01*
X135492794Y-145564629D01*
X135504768Y-145572827D01*
X135510934Y-145576161D01*
X135683256Y-145667786D01*
X135725302Y-145685116D01*
X135767141Y-145703048D01*
X135773836Y-145705120D01*
X135960673Y-145761530D01*
X136005345Y-145770375D01*
X136049808Y-145779826D01*
X136056779Y-145780559D01*
X136251012Y-145799604D01*
X136251019Y-145799604D01*
X136275347Y-145802000D01*
X213324653Y-145802000D01*
X213349966Y-145799507D01*
X213362949Y-145799507D01*
X213369919Y-145798774D01*
X213563869Y-145777020D01*
X213608364Y-145767562D01*
X213653008Y-145758722D01*
X213659704Y-145756649D01*
X213845734Y-145697636D01*
X213887554Y-145679711D01*
X213929617Y-145662374D01*
X213935783Y-145659041D01*
X214106808Y-145565019D01*
X214107276Y-145564699D01*
X214118437Y-145575860D01*
X214229320Y-145649950D01*
X214352526Y-145700984D01*
X214483321Y-145727000D01*
X214616679Y-145727000D01*
X214747474Y-145700984D01*
X214870680Y-145649950D01*
X214925000Y-145613654D01*
X214979320Y-145649950D01*
X215102526Y-145700984D01*
X215233321Y-145727000D01*
X215366679Y-145727000D01*
X215497474Y-145700984D01*
X215620680Y-145649950D01*
X215675000Y-145613654D01*
X215729320Y-145649950D01*
X215852526Y-145700984D01*
X215983321Y-145727000D01*
X216116679Y-145727000D01*
X216247474Y-145700984D01*
X216370680Y-145649950D01*
X216481563Y-145575860D01*
X216492794Y-145564629D01*
X216504768Y-145572827D01*
X216510934Y-145576161D01*
X216683256Y-145667786D01*
X216725302Y-145685116D01*
X216767141Y-145703048D01*
X216773836Y-145705120D01*
X216960673Y-145761530D01*
X217005345Y-145770375D01*
X217049808Y-145779826D01*
X217056779Y-145780559D01*
X217251012Y-145799604D01*
X217251019Y-145799604D01*
X217275347Y-145802000D01*
X225324653Y-145802000D01*
X225342957Y-145800197D01*
X226067181Y-145747014D01*
X226078881Y-145745098D01*
X226090724Y-145744726D01*
X226147605Y-145734492D01*
X227011987Y-145526972D01*
X227026958Y-145521933D01*
X227042406Y-145518650D01*
X227096565Y-145498508D01*
X227096576Y-145498504D01*
X227096580Y-145498502D01*
X227910546Y-145141196D01*
X227924389Y-145133586D01*
X227939010Y-145127619D01*
X227988756Y-145098199D01*
X228272926Y-144907245D01*
X252312295Y-144907245D01*
X252312295Y-145692755D01*
X252465540Y-146463171D01*
X252766141Y-147188887D01*
X253202547Y-147842014D01*
X253757986Y-148397453D01*
X254411113Y-148833859D01*
X255136829Y-149134460D01*
X255907245Y-149287705D01*
X256692755Y-149287705D01*
X257463171Y-149134460D01*
X258188887Y-148833859D01*
X258842014Y-148397453D01*
X259397453Y-147842014D01*
X259833859Y-147188887D01*
X260134460Y-146463171D01*
X260287705Y-145692755D01*
X260287705Y-144907245D01*
X260134460Y-144136829D01*
X259833859Y-143411113D01*
X259397453Y-142757986D01*
X258842014Y-142202547D01*
X258188887Y-141766141D01*
X257463171Y-141465540D01*
X256692755Y-141312295D01*
X255907245Y-141312295D01*
X255136829Y-141465540D01*
X254411113Y-141766141D01*
X253757986Y-142202547D01*
X253202547Y-142757986D01*
X252766141Y-143411113D01*
X252465540Y-144136829D01*
X252312295Y-144907245D01*
X228272926Y-144907245D01*
X228726590Y-144602396D01*
X228738862Y-144592458D01*
X228752201Y-144583993D01*
X228795950Y-144546229D01*
X229434323Y-143927602D01*
X229444642Y-143915648D01*
X229456270Y-143904955D01*
X229492641Y-143860041D01*
X230011376Y-143138145D01*
X230019418Y-143124546D01*
X230028965Y-143111969D01*
X230056808Y-143061324D01*
X230439508Y-142258977D01*
X230445015Y-142244169D01*
X230452184Y-142230099D01*
X230470618Y-142175324D01*
X230705186Y-141317889D01*
X230707983Y-141302342D01*
X230712548Y-141287223D01*
X230720991Y-141230049D01*
X230799820Y-140346792D01*
X230802000Y-140324653D01*
X230802000Y-116990560D01*
X245058202Y-116990560D01*
X245058202Y-117609440D01*
X245178939Y-118216429D01*
X245415775Y-118788199D01*
X245759606Y-119302780D01*
X246197220Y-119740394D01*
X246711801Y-120084225D01*
X247283571Y-120321061D01*
X247890560Y-120441798D01*
X248509440Y-120441798D01*
X249116429Y-120321061D01*
X249688199Y-120084225D01*
X250202780Y-119740394D01*
X250640394Y-119302780D01*
X250984225Y-118788199D01*
X251221061Y-118216429D01*
X251341798Y-117609440D01*
X251341798Y-116990560D01*
X263558202Y-116990560D01*
X263558202Y-117609440D01*
X263678939Y-118216429D01*
X263915775Y-118788199D01*
X264259606Y-119302780D01*
X264697220Y-119740394D01*
X265211801Y-120084225D01*
X265783571Y-120321061D01*
X266390560Y-120441798D01*
X267009440Y-120441798D01*
X267616429Y-120321061D01*
X268188199Y-120084225D01*
X268702780Y-119740394D01*
X269140394Y-119302780D01*
X269484225Y-118788199D01*
X269721061Y-118216429D01*
X269841798Y-117609440D01*
X269841798Y-116990560D01*
X269721061Y-116383571D01*
X269484225Y-115811801D01*
X269140394Y-115297220D01*
X268702780Y-114859606D01*
X268188199Y-114515775D01*
X267616429Y-114278939D01*
X267009440Y-114158202D01*
X266390560Y-114158202D01*
X265783571Y-114278939D01*
X265211801Y-114515775D01*
X264697220Y-114859606D01*
X264259606Y-115297220D01*
X263915775Y-115811801D01*
X263678939Y-116383571D01*
X263558202Y-116990560D01*
X251341798Y-116990560D01*
X251221061Y-116383571D01*
X250984225Y-115811801D01*
X250640394Y-115297220D01*
X250202780Y-114859606D01*
X249688199Y-114515775D01*
X249116429Y-114278939D01*
X248509440Y-114158202D01*
X247890560Y-114158202D01*
X247283571Y-114278939D01*
X246711801Y-114515775D01*
X246197220Y-114859606D01*
X245759606Y-115297220D01*
X245415775Y-115811801D01*
X245178939Y-116383571D01*
X245058202Y-116990560D01*
X230802000Y-116990560D01*
X230802000Y-104190560D01*
X245058202Y-104190560D01*
X245058202Y-104809440D01*
X245178939Y-105416429D01*
X245415775Y-105988199D01*
X245759606Y-106502780D01*
X246197220Y-106940394D01*
X246711801Y-107284225D01*
X247283571Y-107521061D01*
X247890560Y-107641798D01*
X248509440Y-107641798D01*
X249116429Y-107521061D01*
X249688199Y-107284225D01*
X250202780Y-106940394D01*
X250640394Y-106502780D01*
X250984225Y-105988199D01*
X251221061Y-105416429D01*
X251341798Y-104809440D01*
X251341798Y-104190560D01*
X263558202Y-104190560D01*
X263558202Y-104809440D01*
X263678939Y-105416429D01*
X263915775Y-105988199D01*
X264259606Y-106502780D01*
X264697220Y-106940394D01*
X265211801Y-107284225D01*
X265783571Y-107521061D01*
X266390560Y-107641798D01*
X267009440Y-107641798D01*
X267616429Y-107521061D01*
X268188199Y-107284225D01*
X268702780Y-106940394D01*
X269140394Y-106502780D01*
X269484225Y-105988199D01*
X269721061Y-105416429D01*
X269841798Y-104809440D01*
X269841798Y-104190560D01*
X269721061Y-103583571D01*
X269484225Y-103011801D01*
X269140394Y-102497220D01*
X268702780Y-102059606D01*
X268188199Y-101715775D01*
X267616429Y-101478939D01*
X267009440Y-101358202D01*
X266390560Y-101358202D01*
X265783571Y-101478939D01*
X265211801Y-101715775D01*
X264697220Y-102059606D01*
X264259606Y-102497220D01*
X263915775Y-103011801D01*
X263678939Y-103583571D01*
X263558202Y-104190560D01*
X251341798Y-104190560D01*
X251221061Y-103583571D01*
X250984225Y-103011801D01*
X250640394Y-102497220D01*
X250202780Y-102059606D01*
X249688199Y-101715775D01*
X249116429Y-101478939D01*
X248509440Y-101358202D01*
X247890560Y-101358202D01*
X247283571Y-101478939D01*
X246711801Y-101715775D01*
X246197220Y-102059606D01*
X245759606Y-102497220D01*
X245415775Y-103011801D01*
X245178939Y-103583571D01*
X245058202Y-104190560D01*
X230802000Y-104190560D01*
X230802000Y-92775347D01*
X230799507Y-92750034D01*
X230799507Y-92737051D01*
X230798774Y-92730080D01*
X230777019Y-92536131D01*
X230767569Y-92491673D01*
X230758722Y-92446992D01*
X230756649Y-92440297D01*
X230697636Y-92254266D01*
X230679725Y-92212478D01*
X230662375Y-92170383D01*
X230659041Y-92164217D01*
X230565019Y-91993192D01*
X230564699Y-91992724D01*
X230575860Y-91981563D01*
X230649950Y-91870680D01*
X230700984Y-91747474D01*
X230727000Y-91616679D01*
X230727000Y-91483321D01*
X230708550Y-91390560D01*
X245058202Y-91390560D01*
X245058202Y-92009440D01*
X245178939Y-92616429D01*
X245415775Y-93188199D01*
X245759606Y-93702780D01*
X246197220Y-94140394D01*
X246711801Y-94484225D01*
X247283571Y-94721061D01*
X247890560Y-94841798D01*
X248509440Y-94841798D01*
X249116429Y-94721061D01*
X249688199Y-94484225D01*
X250202780Y-94140394D01*
X250640394Y-93702780D01*
X250984225Y-93188199D01*
X251221061Y-92616429D01*
X251341798Y-92009440D01*
X251341798Y-91390560D01*
X263558202Y-91390560D01*
X263558202Y-92009440D01*
X263678939Y-92616429D01*
X263915775Y-93188199D01*
X264259606Y-93702780D01*
X264697220Y-94140394D01*
X265211801Y-94484225D01*
X265783571Y-94721061D01*
X266390560Y-94841798D01*
X267009440Y-94841798D01*
X267616429Y-94721061D01*
X268188199Y-94484225D01*
X268702780Y-94140394D01*
X269140394Y-93702780D01*
X269484225Y-93188199D01*
X269721061Y-92616429D01*
X269841798Y-92009440D01*
X269841798Y-91390560D01*
X269721061Y-90783571D01*
X269484225Y-90211801D01*
X269140394Y-89697220D01*
X268702780Y-89259606D01*
X268188199Y-88915775D01*
X267616429Y-88678939D01*
X267009440Y-88558202D01*
X266390560Y-88558202D01*
X265783571Y-88678939D01*
X265211801Y-88915775D01*
X264697220Y-89259606D01*
X264259606Y-89697220D01*
X263915775Y-90211801D01*
X263678939Y-90783571D01*
X263558202Y-91390560D01*
X251341798Y-91390560D01*
X251221061Y-90783571D01*
X250984225Y-90211801D01*
X250640394Y-89697220D01*
X250202780Y-89259606D01*
X249688199Y-88915775D01*
X249116429Y-88678939D01*
X248509440Y-88558202D01*
X247890560Y-88558202D01*
X247283571Y-88678939D01*
X246711801Y-88915775D01*
X246197220Y-89259606D01*
X245759606Y-89697220D01*
X245415775Y-90211801D01*
X245178939Y-90783571D01*
X245058202Y-91390560D01*
X230708550Y-91390560D01*
X230700984Y-91352526D01*
X230649950Y-91229320D01*
X230613654Y-91175000D01*
X230649950Y-91120680D01*
X230700984Y-90997474D01*
X230727000Y-90866679D01*
X230727000Y-90733321D01*
X230700984Y-90602526D01*
X230649950Y-90479320D01*
X230613654Y-90425000D01*
X230649950Y-90370680D01*
X230700984Y-90247474D01*
X230727000Y-90116679D01*
X230727000Y-89983321D01*
X230700984Y-89852526D01*
X230649950Y-89729320D01*
X230575860Y-89618437D01*
X230564629Y-89607206D01*
X230572827Y-89595232D01*
X230576161Y-89589066D01*
X230667786Y-89416744D01*
X230685116Y-89374698D01*
X230703048Y-89332859D01*
X230705120Y-89326164D01*
X230761530Y-89139327D01*
X230770375Y-89094655D01*
X230779826Y-89050192D01*
X230780559Y-89043221D01*
X230799604Y-88848988D01*
X230799604Y-88848981D01*
X230802000Y-88824653D01*
X230802000Y-78590560D01*
X245058202Y-78590560D01*
X245058202Y-79209440D01*
X245178939Y-79816429D01*
X245415775Y-80388199D01*
X245759606Y-80902780D01*
X246197220Y-81340394D01*
X246711801Y-81684225D01*
X247283571Y-81921061D01*
X247890560Y-82041798D01*
X248509440Y-82041798D01*
X249116429Y-81921061D01*
X249688199Y-81684225D01*
X250202780Y-81340394D01*
X250640394Y-80902780D01*
X250984225Y-80388199D01*
X251221061Y-79816429D01*
X251341798Y-79209440D01*
X251341798Y-78590560D01*
X263558202Y-78590560D01*
X263558202Y-79209440D01*
X263678939Y-79816429D01*
X263915775Y-80388199D01*
X264259606Y-80902780D01*
X264697220Y-81340394D01*
X265211801Y-81684225D01*
X265783571Y-81921061D01*
X266390560Y-82041798D01*
X267009440Y-82041798D01*
X267616429Y-81921061D01*
X268188199Y-81684225D01*
X268702780Y-81340394D01*
X269140394Y-80902780D01*
X269484225Y-80388199D01*
X269721061Y-79816429D01*
X269841798Y-79209440D01*
X269841798Y-78590560D01*
X269721061Y-77983571D01*
X269484225Y-77411801D01*
X269140394Y-76897220D01*
X268702780Y-76459606D01*
X268188199Y-76115775D01*
X267616429Y-75878939D01*
X267009440Y-75758202D01*
X266390560Y-75758202D01*
X265783571Y-75878939D01*
X265211801Y-76115775D01*
X264697220Y-76459606D01*
X264259606Y-76897220D01*
X263915775Y-77411801D01*
X263678939Y-77983571D01*
X263558202Y-78590560D01*
X251341798Y-78590560D01*
X251221061Y-77983571D01*
X250984225Y-77411801D01*
X250640394Y-76897220D01*
X250202780Y-76459606D01*
X249688199Y-76115775D01*
X249116429Y-75878939D01*
X248509440Y-75758202D01*
X247890560Y-75758202D01*
X247283571Y-75878939D01*
X246711801Y-76115775D01*
X246197220Y-76459606D01*
X245759606Y-76897220D01*
X245415775Y-77411801D01*
X245178939Y-77983571D01*
X245058202Y-78590560D01*
X230802000Y-78590560D01*
X230802000Y-63807245D01*
X244212295Y-63807245D01*
X244212295Y-64592755D01*
X244365540Y-65363171D01*
X244666141Y-66088887D01*
X245102547Y-66742014D01*
X245657986Y-67297453D01*
X246311113Y-67733859D01*
X247036829Y-68034460D01*
X247807245Y-68187705D01*
X248592755Y-68187705D01*
X249363171Y-68034460D01*
X250088887Y-67733859D01*
X250742014Y-67297453D01*
X251297453Y-66742014D01*
X251733859Y-66088887D01*
X252034460Y-65363171D01*
X252187705Y-64592755D01*
X252187705Y-63890560D01*
X263558202Y-63890560D01*
X263558202Y-64509440D01*
X263678939Y-65116429D01*
X263915775Y-65688199D01*
X264259606Y-66202780D01*
X264697220Y-66640394D01*
X265211801Y-66984225D01*
X265783571Y-67221061D01*
X266390560Y-67341798D01*
X267009440Y-67341798D01*
X267616429Y-67221061D01*
X268188199Y-66984225D01*
X268702780Y-66640394D01*
X269140394Y-66202780D01*
X269484225Y-65688199D01*
X269721061Y-65116429D01*
X269841798Y-64509440D01*
X269841798Y-63890560D01*
X269721061Y-63283571D01*
X269484225Y-62711801D01*
X269140394Y-62197220D01*
X268702780Y-61759606D01*
X268188199Y-61415775D01*
X267616429Y-61178939D01*
X267009440Y-61058202D01*
X266390560Y-61058202D01*
X265783571Y-61178939D01*
X265211801Y-61415775D01*
X264697220Y-61759606D01*
X264259606Y-62197220D01*
X263915775Y-62711801D01*
X263678939Y-63283571D01*
X263558202Y-63890560D01*
X252187705Y-63890560D01*
X252187705Y-63807245D01*
X252034460Y-63036829D01*
X251733859Y-62311113D01*
X251297453Y-61657986D01*
X250742014Y-61102547D01*
X250088887Y-60666141D01*
X249363171Y-60365540D01*
X248592755Y-60212295D01*
X247807245Y-60212295D01*
X247036829Y-60365540D01*
X246311113Y-60666141D01*
X245657986Y-61102547D01*
X245102547Y-61657986D01*
X244666141Y-62311113D01*
X244365540Y-63036829D01*
X244212295Y-63807245D01*
X230802000Y-63807245D01*
X230802000Y-50275347D01*
X230800197Y-50257043D01*
X230747014Y-49532820D01*
X230745098Y-49521120D01*
X230744726Y-49509276D01*
X230734492Y-49452396D01*
X230626562Y-49002834D01*
X254073032Y-49002834D01*
X254076024Y-49027550D01*
X254276024Y-49927550D01*
X254283269Y-49950028D01*
X254583269Y-50650028D01*
X254594330Y-50670447D01*
X254994330Y-51270447D01*
X255018697Y-51297564D01*
X255618697Y-51797564D01*
X255630735Y-51806449D01*
X255652833Y-51817917D01*
X256152833Y-52017917D01*
X256165110Y-52022114D01*
X256865110Y-52222114D01*
X256885975Y-52226223D01*
X257785975Y-52326223D01*
X257815884Y-52326003D01*
X257840161Y-52320483D01*
X258440161Y-52120483D01*
X258450028Y-52116731D01*
X259150028Y-51816731D01*
X259179336Y-51799170D01*
X259679336Y-51399170D01*
X259697564Y-51381303D01*
X260197564Y-50781303D01*
X260213592Y-50756796D01*
X260513592Y-50156796D01*
X260523976Y-50127550D01*
X260723976Y-49227550D01*
X260727000Y-49200000D01*
X260727000Y-48690560D01*
X263558202Y-48690560D01*
X263558202Y-49309440D01*
X263678939Y-49916429D01*
X263915775Y-50488199D01*
X264259606Y-51002780D01*
X264697220Y-51440394D01*
X265211801Y-51784225D01*
X265783571Y-52021061D01*
X266390560Y-52141798D01*
X267009440Y-52141798D01*
X267616429Y-52021061D01*
X268188199Y-51784225D01*
X268702780Y-51440394D01*
X269140394Y-51002780D01*
X269484225Y-50488199D01*
X269721061Y-49916429D01*
X269841798Y-49309440D01*
X269841798Y-48690560D01*
X269721061Y-48083571D01*
X269484225Y-47511801D01*
X269140394Y-46997220D01*
X268702780Y-46559606D01*
X268188199Y-46215775D01*
X267616429Y-45978939D01*
X267009440Y-45858202D01*
X266390560Y-45858202D01*
X265783571Y-45978939D01*
X265211801Y-46215775D01*
X264697220Y-46559606D01*
X264259606Y-46997220D01*
X263915775Y-47511801D01*
X263678939Y-48083571D01*
X263558202Y-48690560D01*
X260727000Y-48690560D01*
X260727000Y-48400000D01*
X260726003Y-48384116D01*
X260720483Y-48359839D01*
X260420483Y-47459839D01*
X260412743Y-47441535D01*
X260399170Y-47420664D01*
X259999170Y-46920664D01*
X259989803Y-46910197D01*
X259489803Y-46410197D01*
X259463010Y-46389733D01*
X258763010Y-45989733D01*
X258740161Y-45979517D01*
X258140161Y-45779517D01*
X258117961Y-45774276D01*
X257417961Y-45674276D01*
X257400000Y-45673000D01*
X256600000Y-45673000D01*
X256583984Y-45674014D01*
X256559713Y-45679559D01*
X256536990Y-45689733D01*
X255836990Y-46089733D01*
X255826183Y-46096656D01*
X255126183Y-46596656D01*
X255100830Y-46620664D01*
X254700830Y-47120664D01*
X254691098Y-47134659D01*
X254391098Y-47634659D01*
X254377886Y-47665110D01*
X254177886Y-48365110D01*
X254174728Y-48379121D01*
X254074728Y-48979121D01*
X254073032Y-49002834D01*
X230626562Y-49002834D01*
X230526972Y-48588013D01*
X230521934Y-48573042D01*
X230518650Y-48557594D01*
X230498504Y-48503425D01*
X230141195Y-47689454D01*
X230133588Y-47675616D01*
X230127619Y-47660990D01*
X230098207Y-47611257D01*
X230098199Y-47611243D01*
X230098195Y-47611238D01*
X229602396Y-46873410D01*
X229592458Y-46861138D01*
X229583993Y-46847799D01*
X229546229Y-46804050D01*
X228927602Y-46165677D01*
X228915648Y-46155358D01*
X228904955Y-46143730D01*
X228860041Y-46107359D01*
X228138145Y-45588624D01*
X228124546Y-45580582D01*
X228111969Y-45571035D01*
X228061323Y-45543192D01*
X227258977Y-45160492D01*
X227244169Y-45154985D01*
X227230099Y-45147816D01*
X227175324Y-45129382D01*
X226317888Y-44894814D01*
X226302342Y-44892017D01*
X226287223Y-44887452D01*
X226230049Y-44879009D01*
X225346792Y-44800180D01*
X225324653Y-44798000D01*
X218775347Y-44798000D01*
X218750034Y-44800493D01*
X218737051Y-44800493D01*
X218730080Y-44801226D01*
X218536131Y-44822981D01*
X218491673Y-44832431D01*
X218446992Y-44841278D01*
X218440297Y-44843351D01*
X218254266Y-44902364D01*
X218212478Y-44920275D01*
X218170383Y-44937625D01*
X218164217Y-44940959D01*
X217993192Y-45034981D01*
X217992724Y-45035301D01*
X217981563Y-45024140D01*
X217870680Y-44950050D01*
X217747474Y-44899016D01*
X217616679Y-44873000D01*
X217483321Y-44873000D01*
X217352526Y-44899016D01*
X217229320Y-44950050D01*
X217175000Y-44986346D01*
X217120680Y-44950050D01*
X216997474Y-44899016D01*
X216866679Y-44873000D01*
X216733321Y-44873000D01*
X216602526Y-44899016D01*
X216479320Y-44950050D01*
X216425000Y-44986346D01*
X216370680Y-44950050D01*
X216247474Y-44899016D01*
X216116679Y-44873000D01*
X215983321Y-44873000D01*
X215852526Y-44899016D01*
X215729320Y-44950050D01*
X215618437Y-45024140D01*
X215607206Y-45035371D01*
X215595232Y-45027173D01*
X215589067Y-45023839D01*
X215416744Y-44932214D01*
X215374724Y-44914895D01*
X215332860Y-44896952D01*
X215326164Y-44894880D01*
X215139328Y-44838471D01*
X215094677Y-44829630D01*
X215050191Y-44820174D01*
X215043221Y-44819441D01*
X214848987Y-44800396D01*
X214848981Y-44800396D01*
X214824653Y-44798000D01*
X132275347Y-44798000D01*
X132250034Y-44800493D01*
X132237051Y-44800493D01*
X132230080Y-44801226D01*
X132036131Y-44822981D01*
X131991673Y-44832431D01*
X131946992Y-44841278D01*
X131940297Y-44843351D01*
X131754266Y-44902364D01*
X131712478Y-44920275D01*
X131670383Y-44937625D01*
X131664217Y-44940959D01*
X131493192Y-45034981D01*
X131492724Y-45035301D01*
X131481563Y-45024140D01*
X131370680Y-44950050D01*
X131247474Y-44899016D01*
X131116679Y-44873000D01*
X130983321Y-44873000D01*
X130852526Y-44899016D01*
X130729320Y-44950050D01*
X130675000Y-44986346D01*
X130620680Y-44950050D01*
X130497474Y-44899016D01*
X130366679Y-44873000D01*
X130233321Y-44873000D01*
X130102526Y-44899016D01*
X129979320Y-44950050D01*
X129925000Y-44986346D01*
X129870680Y-44950050D01*
X129747474Y-44899016D01*
X129616679Y-44873000D01*
X129483321Y-44873000D01*
X129352526Y-44899016D01*
X129229320Y-44950050D01*
X129118437Y-45024140D01*
X129107206Y-45035371D01*
X129095232Y-45027173D01*
X129089067Y-45023839D01*
X128916744Y-44932214D01*
X128874724Y-44914895D01*
X128832860Y-44896952D01*
X128826164Y-44894880D01*
X128639328Y-44838471D01*
X128594677Y-44829630D01*
X128550191Y-44820174D01*
X128543221Y-44819441D01*
X128348987Y-44800396D01*
X128348981Y-44800396D01*
X128324653Y-44798000D01*
X65775347Y-44798000D01*
X65750034Y-44800493D01*
X65737051Y-44800493D01*
X65730080Y-44801226D01*
X65536131Y-44822981D01*
X65491673Y-44832431D01*
X65446992Y-44841278D01*
X65440297Y-44843351D01*
X65254266Y-44902364D01*
X65212478Y-44920275D01*
X65170383Y-44937625D01*
X65164217Y-44940959D01*
X64993192Y-45034981D01*
X64992724Y-45035301D01*
X64981563Y-45024140D01*
X64870680Y-44950050D01*
X64747474Y-44899016D01*
X64616679Y-44873000D01*
X64483321Y-44873000D01*
X64352526Y-44899016D01*
X64229320Y-44950050D01*
X64175000Y-44986346D01*
X64120680Y-44950050D01*
X63997474Y-44899016D01*
X63866679Y-44873000D01*
X63733321Y-44873000D01*
X63602526Y-44899016D01*
X63479320Y-44950050D01*
X63425000Y-44986346D01*
X63370680Y-44950050D01*
X63247474Y-44899016D01*
X63116679Y-44873000D01*
X62983321Y-44873000D01*
X62852526Y-44899016D01*
X62729320Y-44950050D01*
X62618437Y-45024140D01*
X62607206Y-45035371D01*
X62595232Y-45027173D01*
X62589067Y-45023839D01*
X62416744Y-44932214D01*
X62374724Y-44914895D01*
X62332860Y-44896952D01*
X62326164Y-44894880D01*
X62139328Y-44838471D01*
X62094677Y-44829630D01*
X62050191Y-44820174D01*
X62043221Y-44819441D01*
X61848987Y-44800396D01*
X61848981Y-44800396D01*
X61824653Y-44798000D01*
X55275347Y-44798000D01*
X55257043Y-44799803D01*
X54532820Y-44852986D01*
X54521120Y-44854902D01*
X54509276Y-44855274D01*
X54452396Y-44865508D01*
X53588013Y-45073028D01*
X53573042Y-45078066D01*
X53557594Y-45081350D01*
X53503425Y-45101496D01*
X52689454Y-45458805D01*
X52675616Y-45466412D01*
X52660990Y-45472381D01*
X52611257Y-45501793D01*
X52611243Y-45501801D01*
X52611238Y-45501805D01*
X51873410Y-45997604D01*
X51861138Y-46007542D01*
X51847799Y-46016007D01*
X51804050Y-46053771D01*
X51165677Y-46672398D01*
X51155358Y-46684352D01*
X51143730Y-46695045D01*
X51107359Y-46739959D01*
X50588624Y-47461855D01*
X50580582Y-47475454D01*
X50571035Y-47488031D01*
X50543192Y-47538677D01*
X50160492Y-48341023D01*
X50154985Y-48355831D01*
X50147816Y-48369901D01*
X50129382Y-48424676D01*
X49894814Y-49282112D01*
X49892017Y-49297658D01*
X49887452Y-49312777D01*
X49879009Y-49369951D01*
X49800171Y-50253316D01*
X49798001Y-50275347D01*
X49798000Y-87324652D01*
X19777000Y-87324652D01*
X19777000Y-41714155D01*
X36065450Y-41714155D01*
X36461634Y-42234550D01*
X37176612Y-42624748D01*
X37953976Y-42867964D01*
X38763853Y-42954851D01*
X39575118Y-42882069D01*
X40356597Y-42652415D01*
X41078256Y-42274715D01*
X41138366Y-42234550D01*
X41534550Y-41714155D01*
X275065450Y-41714155D01*
X275461634Y-42234550D01*
X276176612Y-42624748D01*
X276953976Y-42867964D01*
X277763853Y-42954851D01*
X278575118Y-42882069D01*
X279356597Y-42652415D01*
X280078256Y-42274715D01*
X280138366Y-42234550D01*
X280534550Y-41714155D01*
X277800000Y-38979605D01*
X275065450Y-41714155D01*
X41534550Y-41714155D01*
X38800000Y-38979605D01*
X36065450Y-41714155D01*
X19777000Y-41714155D01*
X19777000Y-38763853D01*
X34645149Y-38763853D01*
X34717931Y-39575118D01*
X34947585Y-40356597D01*
X35325285Y-41078256D01*
X35365450Y-41138366D01*
X35885845Y-41534550D01*
X38620395Y-38800000D01*
X38979605Y-38800000D01*
X41714155Y-41534550D01*
X42234550Y-41138366D01*
X42624748Y-40423388D01*
X42867964Y-39646024D01*
X42954851Y-38836147D01*
X42948366Y-38763853D01*
X273645149Y-38763853D01*
X273717931Y-39575118D01*
X273947585Y-40356597D01*
X274325285Y-41078256D01*
X274365450Y-41138366D01*
X274885845Y-41534550D01*
X277620395Y-38800000D01*
X277979605Y-38800000D01*
X280714155Y-41534550D01*
X281234550Y-41138366D01*
X281624748Y-40423388D01*
X281867964Y-39646024D01*
X281954851Y-38836147D01*
X281882069Y-38024882D01*
X281652415Y-37243403D01*
X281274715Y-36521744D01*
X281234550Y-36461634D01*
X280714155Y-36065450D01*
X277979605Y-38800000D01*
X277620395Y-38800000D01*
X274885845Y-36065450D01*
X274365450Y-36461634D01*
X273975252Y-37176612D01*
X273732036Y-37953976D01*
X273645149Y-38763853D01*
X42948366Y-38763853D01*
X42882069Y-38024882D01*
X42652415Y-37243403D01*
X42274715Y-36521744D01*
X42234550Y-36461634D01*
X41714155Y-36065450D01*
X38979605Y-38800000D01*
X38620395Y-38800000D01*
X35885845Y-36065450D01*
X35365450Y-36461634D01*
X34975252Y-37176612D01*
X34732036Y-37953976D01*
X34645149Y-38763853D01*
X19777000Y-38763853D01*
X19777000Y-35885845D01*
X36065450Y-35885845D01*
X38800000Y-38620395D01*
X41534550Y-35885845D01*
X275065450Y-35885845D01*
X277800000Y-38620395D01*
X280534550Y-35885845D01*
X280138366Y-35365450D01*
X279423388Y-34975252D01*
X278646024Y-34732036D01*
X277836147Y-34645149D01*
X277024882Y-34717931D01*
X276243403Y-34947585D01*
X275521744Y-35325285D01*
X275461634Y-35365450D01*
X275065450Y-35885845D01*
X41534550Y-35885845D01*
X41138366Y-35365450D01*
X40423388Y-34975252D01*
X39646024Y-34732036D01*
X38836147Y-34645149D01*
X38024882Y-34717931D01*
X37243403Y-34947585D01*
X36521744Y-35325285D01*
X36461634Y-35365450D01*
X36065450Y-35885845D01*
X19777000Y-35885845D01*
X19777000Y-19277000D01*
X298823001Y-19277000D01*
X298823000Y-196323000D01*
G37*
X298823000Y-196323000D02*
X19777000Y-196323000D01*
X19777000Y-170714155D01*
X36065450Y-170714155D01*
X36461634Y-171234550D01*
X37176612Y-171624748D01*
X37953976Y-171867964D01*
X38763853Y-171954851D01*
X39575118Y-171882069D01*
X40356597Y-171652415D01*
X41078256Y-171274715D01*
X41138366Y-171234550D01*
X41534550Y-170714155D01*
X275065450Y-170714155D01*
X275461634Y-171234550D01*
X276176612Y-171624748D01*
X276953976Y-171867964D01*
X277763853Y-171954851D01*
X278575118Y-171882069D01*
X279356597Y-171652415D01*
X280078256Y-171274715D01*
X280138366Y-171234550D01*
X280534550Y-170714155D01*
X277800000Y-167979605D01*
X275065450Y-170714155D01*
X41534550Y-170714155D01*
X38800000Y-167979605D01*
X36065450Y-170714155D01*
X19777000Y-170714155D01*
X19777000Y-167763853D01*
X34645149Y-167763853D01*
X34717931Y-168575118D01*
X34947585Y-169356597D01*
X35325285Y-170078256D01*
X35365450Y-170138366D01*
X35885845Y-170534550D01*
X38620395Y-167800000D01*
X38979605Y-167800000D01*
X41714155Y-170534550D01*
X42234550Y-170138366D01*
X42624748Y-169423388D01*
X42867964Y-168646024D01*
X42954851Y-167836147D01*
X42948366Y-167763853D01*
X273645149Y-167763853D01*
X273717931Y-168575118D01*
X273947585Y-169356597D01*
X274325285Y-170078256D01*
X274365450Y-170138366D01*
X274885845Y-170534550D01*
X277620395Y-167800000D01*
X277979605Y-167800000D01*
X280714155Y-170534550D01*
X281234550Y-170138366D01*
X281624748Y-169423388D01*
X281867964Y-168646024D01*
X281954851Y-167836147D01*
X281882069Y-167024882D01*
X281652415Y-166243403D01*
X281274715Y-165521744D01*
X281234550Y-165461634D01*
X280714155Y-165065450D01*
X277979605Y-167800000D01*
X277620395Y-167800000D01*
X274885845Y-165065450D01*
X274365450Y-165461634D01*
X273975252Y-166176612D01*
X273732036Y-166953976D01*
X273645149Y-167763853D01*
X42948366Y-167763853D01*
X42882069Y-167024882D01*
X42652415Y-166243403D01*
X42274715Y-165521744D01*
X42234550Y-165461634D01*
X41714155Y-165065450D01*
X38979605Y-167800000D01*
X38620395Y-167800000D01*
X35885845Y-165065450D01*
X35365450Y-165461634D01*
X34975252Y-166176612D01*
X34732036Y-166953976D01*
X34645149Y-167763853D01*
X19777000Y-167763853D01*
X19777000Y-164885845D01*
X36065450Y-164885845D01*
X38800000Y-167620395D01*
X41534550Y-164885845D01*
X275065450Y-164885845D01*
X277800000Y-167620395D01*
X280534550Y-164885845D01*
X280138366Y-164365450D01*
X279423388Y-163975252D01*
X278646024Y-163732036D01*
X277836147Y-163645149D01*
X277024882Y-163717931D01*
X276243403Y-163947585D01*
X275521744Y-164325285D01*
X275461634Y-164365450D01*
X275065450Y-164885845D01*
X41534550Y-164885845D01*
X41138366Y-164365450D01*
X40423388Y-163975252D01*
X39646024Y-163732036D01*
X38836147Y-163645149D01*
X38024882Y-163717931D01*
X37243403Y-163947585D01*
X36521744Y-164325285D01*
X36461634Y-164365450D01*
X36065450Y-164885845D01*
X19777000Y-164885845D01*
X19777000Y-156607245D01*
X49212295Y-156607245D01*
X49212295Y-157392755D01*
X49365540Y-158163171D01*
X49666141Y-158888887D01*
X50102547Y-159542014D01*
X50657986Y-160097453D01*
X51311113Y-160533859D01*
X52036829Y-160834460D01*
X52807245Y-160987705D01*
X53592755Y-160987705D01*
X54363171Y-160834460D01*
X55088887Y-160533859D01*
X55742014Y-160097453D01*
X56297453Y-159542014D01*
X56733859Y-158888887D01*
X57034460Y-158163171D01*
X57187705Y-157392755D01*
X57187705Y-156607245D01*
X75212295Y-156607245D01*
X75212295Y-157392755D01*
X75365540Y-158163171D01*
X75666141Y-158888887D01*
X76102547Y-159542014D01*
X76657986Y-160097453D01*
X77311113Y-160533859D01*
X78036829Y-160834460D01*
X78807245Y-160987705D01*
X79592755Y-160987705D01*
X80363171Y-160834460D01*
X81088887Y-160533859D01*
X81742014Y-160097453D01*
X82297453Y-159542014D01*
X82733859Y-158888887D01*
X83034460Y-158163171D01*
X83187705Y-157392755D01*
X83187705Y-156607245D01*
X101212295Y-156607245D01*
X101212295Y-157392755D01*
X101365540Y-158163171D01*
X101666141Y-158888887D01*
X102102547Y-159542014D01*
X102657986Y-160097453D01*
X103311113Y-160533859D01*
X104036829Y-160834460D01*
X104807245Y-160987705D01*
X105592755Y-160987705D01*
X106363171Y-160834460D01*
X107088887Y-160533859D01*
X107742014Y-160097453D01*
X108297453Y-159542014D01*
X108733859Y-158888887D01*
X109034460Y-158163171D01*
X109187705Y-157392755D01*
X109187705Y-156690560D01*
X128258202Y-156690560D01*
X128258202Y-157309440D01*
X128378939Y-157916429D01*
X128615775Y-158488199D01*
X128959606Y-159002780D01*
X129397220Y-159440394D01*
X129911801Y-159784225D01*
X130483571Y-160021061D01*
X131090560Y-160141798D01*
X131709440Y-160141798D01*
X132316429Y-160021061D01*
X132888199Y-159784225D01*
X133402780Y-159440394D01*
X133840394Y-159002780D01*
X134184225Y-158488199D01*
X134421061Y-157916429D01*
X134541798Y-157309440D01*
X134541798Y-156690560D01*
X141958202Y-156690560D01*
X141958202Y-157309440D01*
X142078939Y-157916429D01*
X142315775Y-158488199D01*
X142659606Y-159002780D01*
X143097220Y-159440394D01*
X143611801Y-159784225D01*
X144183571Y-160021061D01*
X144790560Y-160141798D01*
X145409440Y-160141798D01*
X146016429Y-160021061D01*
X146588199Y-159784225D01*
X147102780Y-159440394D01*
X147540394Y-159002780D01*
X147884225Y-158488199D01*
X148121061Y-157916429D01*
X148241798Y-157309440D01*
X148241798Y-156690560D01*
X155658202Y-156690560D01*
X155658202Y-157309440D01*
X155778939Y-157916429D01*
X156015775Y-158488199D01*
X156359606Y-159002780D01*
X156797220Y-159440394D01*
X157311801Y-159784225D01*
X157883571Y-160021061D01*
X158490560Y-160141798D01*
X159109440Y-160141798D01*
X159716429Y-160021061D01*
X160288199Y-159784225D01*
X160802780Y-159440394D01*
X161240394Y-159002780D01*
X161584225Y-158488199D01*
X161821061Y-157916429D01*
X161941798Y-157309440D01*
X161941798Y-156690560D01*
X169358202Y-156690560D01*
X169358202Y-157309440D01*
X169478939Y-157916429D01*
X169715775Y-158488199D01*
X170059606Y-159002780D01*
X170497220Y-159440394D01*
X171011801Y-159784225D01*
X171583571Y-160021061D01*
X172190560Y-160141798D01*
X172809440Y-160141798D01*
X173416429Y-160021061D01*
X173988199Y-159784225D01*
X174502780Y-159440394D01*
X174940394Y-159002780D01*
X175284225Y-158488199D01*
X175521061Y-157916429D01*
X175641798Y-157309440D01*
X175641798Y-156690560D01*
X183058202Y-156690560D01*
X183058202Y-157309440D01*
X183178939Y-157916429D01*
X183415775Y-158488199D01*
X183759606Y-159002780D01*
X184197220Y-159440394D01*
X184711801Y-159784225D01*
X185283571Y-160021061D01*
X185890560Y-160141798D01*
X186509440Y-160141798D01*
X187116429Y-160021061D01*
X187688199Y-159784225D01*
X188202780Y-159440394D01*
X188640394Y-159002780D01*
X188984225Y-158488199D01*
X189221061Y-157916429D01*
X189341798Y-157309440D01*
X189341798Y-156690560D01*
X196758202Y-156690560D01*
X196758202Y-157309440D01*
X196878939Y-157916429D01*
X197115775Y-158488199D01*
X197459606Y-159002780D01*
X197897220Y-159440394D01*
X198411801Y-159784225D01*
X198983571Y-160021061D01*
X199590560Y-160141798D01*
X200209440Y-160141798D01*
X200816429Y-160021061D01*
X201388199Y-159784225D01*
X201902780Y-159440394D01*
X202340394Y-159002780D01*
X202684225Y-158488199D01*
X202921061Y-157916429D01*
X203041798Y-157309440D01*
X203041798Y-156690560D01*
X209258202Y-156690560D01*
X209258202Y-157309440D01*
X209378939Y-157916429D01*
X209615775Y-158488199D01*
X209959606Y-159002780D01*
X210397220Y-159440394D01*
X210911801Y-159784225D01*
X211483571Y-160021061D01*
X212090560Y-160141798D01*
X212709440Y-160141798D01*
X213316429Y-160021061D01*
X213888199Y-159784225D01*
X214402780Y-159440394D01*
X214840394Y-159002780D01*
X215184225Y-158488199D01*
X215421061Y-157916429D01*
X215541798Y-157309440D01*
X215541798Y-156690560D01*
X215421061Y-156083571D01*
X215184225Y-155511801D01*
X214840394Y-154997220D01*
X214402780Y-154559606D01*
X213888199Y-154215775D01*
X213316429Y-153978939D01*
X212709440Y-153858202D01*
X212090560Y-153858202D01*
X211483571Y-153978939D01*
X210911801Y-154215775D01*
X210397220Y-154559606D01*
X209959606Y-154997220D01*
X209615775Y-155511801D01*
X209378939Y-156083571D01*
X209258202Y-156690560D01*
X203041798Y-156690560D01*
X202921061Y-156083571D01*
X202684225Y-155511801D01*
X202340394Y-154997220D01*
X201902780Y-154559606D01*
X201388199Y-154215775D01*
X200816429Y-153978939D01*
X200209440Y-153858202D01*
X199590560Y-153858202D01*
X198983571Y-153978939D01*
X198411801Y-154215775D01*
X197897220Y-154559606D01*
X197459606Y-154997220D01*
X197115775Y-155511801D01*
X196878939Y-156083571D01*
X196758202Y-156690560D01*
X189341798Y-156690560D01*
X189221061Y-156083571D01*
X188984225Y-155511801D01*
X188640394Y-154997220D01*
X188202780Y-154559606D01*
X187688199Y-154215775D01*
X187116429Y-153978939D01*
X186509440Y-153858202D01*
X185890560Y-153858202D01*
X185283571Y-153978939D01*
X184711801Y-154215775D01*
X184197220Y-154559606D01*
X183759606Y-154997220D01*
X183415775Y-155511801D01*
X183178939Y-156083571D01*
X183058202Y-156690560D01*
X175641798Y-156690560D01*
X175521061Y-156083571D01*
X175284225Y-155511801D01*
X174940394Y-154997220D01*
X174502780Y-154559606D01*
X173988199Y-154215775D01*
X173416429Y-153978939D01*
X172809440Y-153858202D01*
X172190560Y-153858202D01*
X171583571Y-153978939D01*
X171011801Y-154215775D01*
X170497220Y-154559606D01*
X170059606Y-154997220D01*
X169715775Y-155511801D01*
X169478939Y-156083571D01*
X169358202Y-156690560D01*
X161941798Y-156690560D01*
X161821061Y-156083571D01*
X161584225Y-155511801D01*
X161240394Y-154997220D01*
X160802780Y-154559606D01*
X160288199Y-154215775D01*
X159716429Y-153978939D01*
X159109440Y-153858202D01*
X158490560Y-153858202D01*
X157883571Y-153978939D01*
X157311801Y-154215775D01*
X156797220Y-154559606D01*
X156359606Y-154997220D01*
X156015775Y-155511801D01*
X155778939Y-156083571D01*
X155658202Y-156690560D01*
X148241798Y-156690560D01*
X148121061Y-156083571D01*
X147884225Y-155511801D01*
X147540394Y-154997220D01*
X147102780Y-154559606D01*
X146588199Y-154215775D01*
X146016429Y-153978939D01*
X145409440Y-153858202D01*
X144790560Y-153858202D01*
X144183571Y-153978939D01*
X143611801Y-154215775D01*
X143097220Y-154559606D01*
X142659606Y-154997220D01*
X142315775Y-155511801D01*
X142078939Y-156083571D01*
X141958202Y-156690560D01*
X134541798Y-156690560D01*
X134421061Y-156083571D01*
X134184225Y-155511801D01*
X133840394Y-154997220D01*
X133402780Y-154559606D01*
X132888199Y-154215775D01*
X132316429Y-153978939D01*
X131709440Y-153858202D01*
X131090560Y-153858202D01*
X130483571Y-153978939D01*
X129911801Y-154215775D01*
X129397220Y-154559606D01*
X128959606Y-154997220D01*
X128615775Y-155511801D01*
X128378939Y-156083571D01*
X128258202Y-156690560D01*
X109187705Y-156690560D01*
X109187705Y-156607245D01*
X109034460Y-155836829D01*
X108733859Y-155111113D01*
X108297453Y-154457986D01*
X107742014Y-153902547D01*
X107088887Y-153466141D01*
X106363171Y-153165540D01*
X105592755Y-153012295D01*
X104807245Y-153012295D01*
X104036829Y-153165540D01*
X103311113Y-153466141D01*
X102657986Y-153902547D01*
X102102547Y-154457986D01*
X101666141Y-155111113D01*
X101365540Y-155836829D01*
X101212295Y-156607245D01*
X83187705Y-156607245D01*
X83034460Y-155836829D01*
X82733859Y-155111113D01*
X82297453Y-154457986D01*
X81742014Y-153902547D01*
X81088887Y-153466141D01*
X80363171Y-153165540D01*
X79592755Y-153012295D01*
X78807245Y-153012295D01*
X78036829Y-153165540D01*
X77311113Y-153466141D01*
X76657986Y-153902547D01*
X76102547Y-154457986D01*
X75666141Y-155111113D01*
X75365540Y-155836829D01*
X75212295Y-156607245D01*
X57187705Y-156607245D01*
X57034460Y-155836829D01*
X56733859Y-155111113D01*
X56297453Y-154457986D01*
X55742014Y-153902547D01*
X55088887Y-153466141D01*
X54363171Y-153165540D01*
X53592755Y-153012295D01*
X52807245Y-153012295D01*
X52036829Y-153165540D01*
X51311113Y-153466141D01*
X50657986Y-153902547D01*
X50102547Y-154457986D01*
X49666141Y-155111113D01*
X49365540Y-155836829D01*
X49212295Y-156607245D01*
X19777000Y-156607245D01*
X19777000Y-87324652D01*
X49798000Y-87324652D01*
X49800493Y-87349965D01*
X49800493Y-87362949D01*
X49801226Y-87369919D01*
X49822980Y-87563869D01*
X49832438Y-87608364D01*
X49841278Y-87653008D01*
X49843351Y-87659704D01*
X49902364Y-87845734D01*
X49920289Y-87887554D01*
X49937626Y-87929617D01*
X49940959Y-87935783D01*
X50034981Y-88106808D01*
X50035301Y-88107276D01*
X50024140Y-88118437D01*
X49950050Y-88229320D01*
X49899016Y-88352526D01*
X49873000Y-88483321D01*
X49873000Y-88616679D01*
X49899016Y-88747474D01*
X49950050Y-88870680D01*
X50024140Y-88981563D01*
X50118437Y-89075860D01*
X50229320Y-89149950D01*
X50352526Y-89200984D01*
X50483321Y-89227000D01*
X50616679Y-89227000D01*
X50747474Y-89200984D01*
X50870680Y-89149950D01*
X50981563Y-89075860D01*
X51075860Y-88981563D01*
X51149950Y-88870680D01*
X51182251Y-88792699D01*
X51261481Y-88799910D01*
X51306981Y-88799592D01*
X51352480Y-88799910D01*
X51359456Y-88799226D01*
X51417908Y-88793082D01*
X51450050Y-88870680D01*
X51524140Y-88981563D01*
X51618437Y-89075860D01*
X51729320Y-89149950D01*
X51852526Y-89200984D01*
X51983321Y-89227000D01*
X52116679Y-89227000D01*
X52247474Y-89200984D01*
X52370680Y-89149950D01*
X52481563Y-89075860D01*
X52575860Y-88981563D01*
X52649950Y-88870680D01*
X52700984Y-88747474D01*
X52727000Y-88616679D01*
X52727000Y-88483321D01*
X52722362Y-88460000D01*
X75545813Y-88460000D01*
X75548001Y-88482215D01*
X75548000Y-103437795D01*
X75545813Y-103460000D01*
X75554540Y-103548607D01*
X75580386Y-103633810D01*
X75622357Y-103712333D01*
X75678841Y-103781159D01*
X75747667Y-103837643D01*
X75826190Y-103879614D01*
X75911393Y-103905460D01*
X76000000Y-103914187D01*
X76022205Y-103912000D01*
X92477795Y-103912000D01*
X92500000Y-103914187D01*
X92522205Y-103912000D01*
X92588607Y-103905460D01*
X92673810Y-103879614D01*
X92752333Y-103837643D01*
X92821159Y-103781159D01*
X92877643Y-103712333D01*
X92919614Y-103633810D01*
X92945460Y-103548607D01*
X92954187Y-103460000D01*
X92952000Y-103437795D01*
X92952000Y-99460000D01*
X144245813Y-99460000D01*
X144248001Y-99482215D01*
X144248000Y-114437795D01*
X144245813Y-114460000D01*
X144254540Y-114548607D01*
X144280386Y-114633810D01*
X144322357Y-114712333D01*
X144378841Y-114781159D01*
X144447667Y-114837643D01*
X144526190Y-114879614D01*
X144611393Y-114905460D01*
X144700000Y-114914187D01*
X144722205Y-114912000D01*
X161177795Y-114912000D01*
X161200000Y-114914187D01*
X161222205Y-114912000D01*
X161288607Y-114905460D01*
X161373810Y-114879614D01*
X161452333Y-114837643D01*
X161521159Y-114781159D01*
X161577643Y-114712333D01*
X161619614Y-114633810D01*
X161645460Y-114548607D01*
X161654187Y-114460000D01*
X161652000Y-114437795D01*
X161652000Y-99482205D01*
X161654187Y-99460000D01*
X161645460Y-99371393D01*
X161619614Y-99286190D01*
X161577643Y-99207667D01*
X161521159Y-99138841D01*
X161452333Y-99082357D01*
X161373810Y-99040386D01*
X161288607Y-99014540D01*
X161222205Y-99008000D01*
X161200000Y-99005813D01*
X161177795Y-99008000D01*
X144722205Y-99008000D01*
X144700000Y-99005813D01*
X144677795Y-99008000D01*
X144611393Y-99014540D01*
X144526190Y-99040386D01*
X144447667Y-99082357D01*
X144378841Y-99138841D01*
X144322357Y-99207667D01*
X144280386Y-99286190D01*
X144254540Y-99371393D01*
X144245813Y-99460000D01*
X92952000Y-99460000D01*
X92952000Y-88482205D01*
X92954187Y-88460000D01*
X92945460Y-88371393D01*
X92919614Y-88286190D01*
X92877643Y-88207667D01*
X92821159Y-88138841D01*
X92752333Y-88082357D01*
X92673810Y-88040386D01*
X92588607Y-88014540D01*
X92522205Y-88008000D01*
X92500000Y-88005813D01*
X92477795Y-88008000D01*
X76022205Y-88008000D01*
X76000000Y-88005813D01*
X75977795Y-88008000D01*
X75911393Y-88014540D01*
X75826190Y-88040386D01*
X75747667Y-88082357D01*
X75678841Y-88138841D01*
X75622357Y-88207667D01*
X75580386Y-88286190D01*
X75554540Y-88371393D01*
X75545813Y-88460000D01*
X52722362Y-88460000D01*
X52700984Y-88352526D01*
X52649950Y-88229320D01*
X52575860Y-88118437D01*
X52564629Y-88107206D01*
X52572827Y-88095232D01*
X52576161Y-88089066D01*
X52667786Y-87916744D01*
X52685116Y-87874698D01*
X52703048Y-87832859D01*
X52705120Y-87826164D01*
X52761530Y-87639327D01*
X52770375Y-87594655D01*
X52779826Y-87550192D01*
X52780559Y-87543221D01*
X52799604Y-87348988D01*
X52799604Y-87348981D01*
X52802000Y-87324653D01*
X52802000Y-70460000D01*
X75545813Y-70460000D01*
X75548001Y-70482215D01*
X75548000Y-85437795D01*
X75545813Y-85460000D01*
X75554540Y-85548607D01*
X75580386Y-85633810D01*
X75622357Y-85712333D01*
X75678841Y-85781159D01*
X75747667Y-85837643D01*
X75826190Y-85879614D01*
X75911393Y-85905460D01*
X76000000Y-85914187D01*
X76022205Y-85912000D01*
X92477795Y-85912000D01*
X92500000Y-85914187D01*
X92522205Y-85912000D01*
X92588607Y-85905460D01*
X92673810Y-85879614D01*
X92752333Y-85837643D01*
X92821159Y-85781159D01*
X92877643Y-85712333D01*
X92919614Y-85633810D01*
X92945460Y-85548607D01*
X92954187Y-85460000D01*
X92952000Y-85437795D01*
X92952000Y-81460000D01*
X144245813Y-81460000D01*
X144248001Y-81482215D01*
X144248000Y-96437795D01*
X144245813Y-96460000D01*
X144254540Y-96548607D01*
X144280386Y-96633810D01*
X144322357Y-96712333D01*
X144378841Y-96781159D01*
X144447667Y-96837643D01*
X144526190Y-96879614D01*
X144611393Y-96905460D01*
X144700000Y-96914187D01*
X144722205Y-96912000D01*
X161177795Y-96912000D01*
X161200000Y-96914187D01*
X161222205Y-96912000D01*
X161288607Y-96905460D01*
X161373810Y-96879614D01*
X161452333Y-96837643D01*
X161521159Y-96781159D01*
X161577643Y-96712333D01*
X161619614Y-96633810D01*
X161645460Y-96548607D01*
X161654187Y-96460000D01*
X161652000Y-96437795D01*
X161652000Y-81482205D01*
X161654187Y-81460000D01*
X161645460Y-81371393D01*
X161619614Y-81286190D01*
X161577643Y-81207667D01*
X161521159Y-81138841D01*
X161452333Y-81082357D01*
X161373810Y-81040386D01*
X161288607Y-81014540D01*
X161222205Y-81008000D01*
X161200000Y-81005813D01*
X161177795Y-81008000D01*
X144722205Y-81008000D01*
X144700000Y-81005813D01*
X144677795Y-81008000D01*
X144611393Y-81014540D01*
X144526190Y-81040386D01*
X144447667Y-81082357D01*
X144378841Y-81138841D01*
X144322357Y-81207667D01*
X144280386Y-81286190D01*
X144254540Y-81371393D01*
X144245813Y-81460000D01*
X92952000Y-81460000D01*
X92952000Y-70482205D01*
X92954187Y-70460000D01*
X92945460Y-70371393D01*
X92919614Y-70286190D01*
X92877643Y-70207667D01*
X92821159Y-70138841D01*
X92752333Y-70082357D01*
X92673810Y-70040386D01*
X92588607Y-70014540D01*
X92522205Y-70008000D01*
X92500000Y-70005813D01*
X92477795Y-70008000D01*
X76022205Y-70008000D01*
X76000000Y-70005813D01*
X75977795Y-70008000D01*
X75911393Y-70014540D01*
X75826190Y-70040386D01*
X75747667Y-70082357D01*
X75678841Y-70138841D01*
X75622357Y-70207667D01*
X75580386Y-70286190D01*
X75554540Y-70371393D01*
X75545813Y-70460000D01*
X52802000Y-70460000D01*
X52802000Y-55700881D01*
X68478724Y-55700881D01*
X68838912Y-56190548D01*
X69502882Y-56550849D01*
X70224385Y-56774694D01*
X70975695Y-56853480D01*
X71727938Y-56784178D01*
X72452208Y-56569452D01*
X73120670Y-56217555D01*
X73161088Y-56190548D01*
X73521276Y-55700881D01*
X108478724Y-55700881D01*
X108838912Y-56190548D01*
X109502882Y-56550849D01*
X110224385Y-56774694D01*
X110975695Y-56853480D01*
X111727938Y-56784178D01*
X112452208Y-56569452D01*
X113120670Y-56217555D01*
X113161088Y-56190548D01*
X113521276Y-55700881D01*
X111000000Y-53179605D01*
X108478724Y-55700881D01*
X73521276Y-55700881D01*
X71000000Y-53179605D01*
X68478724Y-55700881D01*
X52802000Y-55700881D01*
X52802000Y-52975695D01*
X67146520Y-52975695D01*
X67215822Y-53727938D01*
X67430548Y-54452208D01*
X67782445Y-55120670D01*
X67809452Y-55161088D01*
X68299119Y-55521276D01*
X70820395Y-53000000D01*
X71179605Y-53000000D01*
X73700881Y-55521276D01*
X74190548Y-55161088D01*
X74550849Y-54497118D01*
X74774694Y-53775615D01*
X74853480Y-53024305D01*
X74849002Y-52975695D01*
X107146520Y-52975695D01*
X107215822Y-53727938D01*
X107430548Y-54452208D01*
X107782445Y-55120670D01*
X107809452Y-55161088D01*
X108299119Y-55521276D01*
X110820395Y-53000000D01*
X111179605Y-53000000D01*
X113700881Y-55521276D01*
X114190548Y-55161088D01*
X114550849Y-54497118D01*
X114774694Y-53775615D01*
X114853480Y-53024305D01*
X114784178Y-52272062D01*
X114569452Y-51547792D01*
X114217555Y-50879330D01*
X114190548Y-50838912D01*
X113700881Y-50478724D01*
X111179605Y-53000000D01*
X110820395Y-53000000D01*
X108299119Y-50478724D01*
X107809452Y-50838912D01*
X107449151Y-51502882D01*
X107225306Y-52224385D01*
X107146520Y-52975695D01*
X74849002Y-52975695D01*
X74784178Y-52272062D01*
X74569452Y-51547792D01*
X74217555Y-50879330D01*
X74190548Y-50838912D01*
X73700881Y-50478724D01*
X71179605Y-53000000D01*
X70820395Y-53000000D01*
X68299119Y-50478724D01*
X67809452Y-50838912D01*
X67449151Y-51502882D01*
X67225306Y-52224385D01*
X67146520Y-52975695D01*
X52802000Y-52975695D01*
X52802000Y-50324551D01*
X52804493Y-50299119D01*
X68478724Y-50299119D01*
X71000000Y-52820395D01*
X73521276Y-50299119D01*
X108478724Y-50299119D01*
X111000000Y-52820395D01*
X113521276Y-50299119D01*
X113161088Y-49809452D01*
X112497118Y-49449151D01*
X111775615Y-49225306D01*
X111024305Y-49146520D01*
X110272062Y-49215822D01*
X109547792Y-49430548D01*
X108879330Y-49782445D01*
X108838912Y-49809452D01*
X108478724Y-50299119D01*
X73521276Y-50299119D01*
X73161088Y-49809452D01*
X72497118Y-49449151D01*
X71775615Y-49225306D01*
X71024305Y-49146520D01*
X70272062Y-49215822D01*
X69547792Y-49430548D01*
X68879330Y-49782445D01*
X68838912Y-49809452D01*
X68478724Y-50299119D01*
X52804493Y-50299119D01*
X52851936Y-49815269D01*
X52992709Y-49349005D01*
X53221367Y-48918960D01*
X53529200Y-48541521D01*
X53904480Y-48231061D01*
X54332918Y-47999406D01*
X54798189Y-47855379D01*
X55306059Y-47802000D01*
X61824653Y-47802000D01*
X61849966Y-47799507D01*
X61862949Y-47799507D01*
X61869919Y-47798774D01*
X62063869Y-47777020D01*
X62108364Y-47767562D01*
X62153008Y-47758722D01*
X62159704Y-47756649D01*
X62345734Y-47697636D01*
X62387554Y-47679711D01*
X62429617Y-47662374D01*
X62435783Y-47659041D01*
X62606808Y-47565019D01*
X62607276Y-47564699D01*
X62618437Y-47575860D01*
X62729320Y-47649950D01*
X62852526Y-47700984D01*
X62983321Y-47727000D01*
X63116679Y-47727000D01*
X63247474Y-47700984D01*
X63370680Y-47649950D01*
X63425000Y-47613654D01*
X63479320Y-47649950D01*
X63602526Y-47700984D01*
X63733321Y-47727000D01*
X63866679Y-47727000D01*
X63997474Y-47700984D01*
X64120680Y-47649950D01*
X64175000Y-47613654D01*
X64229320Y-47649950D01*
X64352526Y-47700984D01*
X64483321Y-47727000D01*
X64616679Y-47727000D01*
X64747474Y-47700984D01*
X64870680Y-47649950D01*
X64981563Y-47575860D01*
X64992794Y-47564629D01*
X65004768Y-47572827D01*
X65010934Y-47576161D01*
X65183256Y-47667786D01*
X65225302Y-47685116D01*
X65267141Y-47703048D01*
X65273836Y-47705120D01*
X65460673Y-47761530D01*
X65505345Y-47770375D01*
X65549808Y-47779826D01*
X65556779Y-47780559D01*
X65751012Y-47799604D01*
X65751019Y-47799604D01*
X65775347Y-47802000D01*
X128324653Y-47802000D01*
X128349966Y-47799507D01*
X128362949Y-47799507D01*
X128369919Y-47798774D01*
X128563869Y-47777020D01*
X128608364Y-47767562D01*
X128653008Y-47758722D01*
X128659704Y-47756649D01*
X128845734Y-47697636D01*
X128887554Y-47679711D01*
X128929617Y-47662374D01*
X128935783Y-47659041D01*
X129106808Y-47565019D01*
X129107276Y-47564699D01*
X129118437Y-47575860D01*
X129229320Y-47649950D01*
X129352526Y-47700984D01*
X129483321Y-47727000D01*
X129616679Y-47727000D01*
X129747474Y-47700984D01*
X129870680Y-47649950D01*
X129925000Y-47613654D01*
X129979320Y-47649950D01*
X130102526Y-47700984D01*
X130233321Y-47727000D01*
X130366679Y-47727000D01*
X130497474Y-47700984D01*
X130620680Y-47649950D01*
X130675000Y-47613654D01*
X130729320Y-47649950D01*
X130852526Y-47700984D01*
X130983321Y-47727000D01*
X131116679Y-47727000D01*
X131247474Y-47700984D01*
X131370680Y-47649950D01*
X131481563Y-47575860D01*
X131492794Y-47564629D01*
X131504768Y-47572827D01*
X131510934Y-47576161D01*
X131683256Y-47667786D01*
X131725302Y-47685116D01*
X131767141Y-47703048D01*
X131773836Y-47705120D01*
X131960673Y-47761530D01*
X132005345Y-47770375D01*
X132049808Y-47779826D01*
X132056779Y-47780559D01*
X132251012Y-47799604D01*
X132251019Y-47799604D01*
X132275347Y-47802000D01*
X214824653Y-47802000D01*
X214849966Y-47799507D01*
X214862949Y-47799507D01*
X214869919Y-47798774D01*
X215063869Y-47777020D01*
X215108364Y-47767562D01*
X215153008Y-47758722D01*
X215159704Y-47756649D01*
X215345734Y-47697636D01*
X215387554Y-47679711D01*
X215429617Y-47662374D01*
X215435783Y-47659041D01*
X215606808Y-47565019D01*
X215607276Y-47564699D01*
X215618437Y-47575860D01*
X215729320Y-47649950D01*
X215852526Y-47700984D01*
X215983321Y-47727000D01*
X216116679Y-47727000D01*
X216247474Y-47700984D01*
X216370680Y-47649950D01*
X216425000Y-47613654D01*
X216479320Y-47649950D01*
X216602526Y-47700984D01*
X216733321Y-47727000D01*
X216866679Y-47727000D01*
X216997474Y-47700984D01*
X217120680Y-47649950D01*
X217175000Y-47613654D01*
X217229320Y-47649950D01*
X217352526Y-47700984D01*
X217483321Y-47727000D01*
X217616679Y-47727000D01*
X217747474Y-47700984D01*
X217870680Y-47649950D01*
X217981563Y-47575860D01*
X217992794Y-47564629D01*
X218004768Y-47572827D01*
X218010934Y-47576161D01*
X218183256Y-47667786D01*
X218225302Y-47685116D01*
X218267141Y-47703048D01*
X218273836Y-47705120D01*
X218460673Y-47761530D01*
X218505345Y-47770375D01*
X218549808Y-47779826D01*
X218556779Y-47780559D01*
X218751012Y-47799604D01*
X218751019Y-47799604D01*
X218775347Y-47802000D01*
X225275449Y-47802000D01*
X225784731Y-47851936D01*
X226250995Y-47992709D01*
X226681040Y-48221367D01*
X227058479Y-48529200D01*
X227368939Y-48904480D01*
X227600594Y-49332918D01*
X227744621Y-49798189D01*
X227798000Y-50306059D01*
X227798001Y-88824653D01*
X227800493Y-88849956D01*
X227800493Y-88862949D01*
X227801226Y-88869919D01*
X227822980Y-89063869D01*
X227832438Y-89108364D01*
X227841278Y-89153008D01*
X227843351Y-89159704D01*
X227902364Y-89345734D01*
X227920289Y-89387554D01*
X227937626Y-89429617D01*
X227940959Y-89435783D01*
X228034981Y-89606808D01*
X228035301Y-89607276D01*
X228024140Y-89618437D01*
X227950050Y-89729320D01*
X227899016Y-89852526D01*
X227873000Y-89983321D01*
X227873000Y-90116679D01*
X227899016Y-90247474D01*
X227950050Y-90370680D01*
X227986346Y-90425000D01*
X227950050Y-90479320D01*
X227899016Y-90602526D01*
X227873000Y-90733321D01*
X227873000Y-90866679D01*
X227899016Y-90997474D01*
X227950050Y-91120680D01*
X227986346Y-91175000D01*
X227950050Y-91229320D01*
X227899016Y-91352526D01*
X227873000Y-91483321D01*
X227873000Y-91616679D01*
X227899016Y-91747474D01*
X227950050Y-91870680D01*
X228024140Y-91981563D01*
X228035371Y-91992794D01*
X228027173Y-92004768D01*
X228023839Y-92010933D01*
X227932214Y-92183256D01*
X227914895Y-92225276D01*
X227896952Y-92267140D01*
X227894880Y-92273836D01*
X227838471Y-92460672D01*
X227829633Y-92505309D01*
X227820174Y-92549809D01*
X227819441Y-92556779D01*
X227800396Y-92751013D01*
X227800396Y-92751029D01*
X227798001Y-92775347D01*
X227798000Y-140275449D01*
X227748064Y-140784728D01*
X227607291Y-141250993D01*
X227378633Y-141681040D01*
X227070800Y-142058479D01*
X226695517Y-142368940D01*
X226267082Y-142600594D01*
X225801807Y-142744621D01*
X225293941Y-142798000D01*
X217275347Y-142798000D01*
X217250034Y-142800493D01*
X217237051Y-142800493D01*
X217230080Y-142801226D01*
X217036131Y-142822981D01*
X216991673Y-142832431D01*
X216946992Y-142841278D01*
X216940297Y-142843351D01*
X216754266Y-142902364D01*
X216712478Y-142920275D01*
X216670383Y-142937625D01*
X216664217Y-142940959D01*
X216493192Y-143034981D01*
X216492724Y-143035301D01*
X216481563Y-143024140D01*
X216370680Y-142950050D01*
X216247474Y-142899016D01*
X216116679Y-142873000D01*
X215983321Y-142873000D01*
X215852526Y-142899016D01*
X215729320Y-142950050D01*
X215675000Y-142986346D01*
X215620680Y-142950050D01*
X215497474Y-142899016D01*
X215366679Y-142873000D01*
X215233321Y-142873000D01*
X215102526Y-142899016D01*
X214979320Y-142950050D01*
X214925000Y-142986346D01*
X214870680Y-142950050D01*
X214747474Y-142899016D01*
X214616679Y-142873000D01*
X214483321Y-142873000D01*
X214352526Y-142899016D01*
X214229320Y-142950050D01*
X214118437Y-143024140D01*
X214107206Y-143035371D01*
X214095232Y-143027173D01*
X214089067Y-143023839D01*
X213916744Y-142932214D01*
X213874724Y-142914895D01*
X213832860Y-142896952D01*
X213826164Y-142894880D01*
X213639328Y-142838471D01*
X213594677Y-142829630D01*
X213550191Y-142820174D01*
X213543221Y-142819441D01*
X213348987Y-142800396D01*
X213348981Y-142800396D01*
X213324653Y-142798000D01*
X136275347Y-142798000D01*
X136250034Y-142800493D01*
X136237051Y-142800493D01*
X136230080Y-142801226D01*
X136036131Y-142822981D01*
X135991673Y-142832431D01*
X135946992Y-142841278D01*
X135940297Y-142843351D01*
X135754266Y-142902364D01*
X135712478Y-142920275D01*
X135670383Y-142937625D01*
X135664217Y-142940959D01*
X135493192Y-143034981D01*
X135492724Y-143035301D01*
X135481563Y-143024140D01*
X135370680Y-142950050D01*
X135247474Y-142899016D01*
X135116679Y-142873000D01*
X134983321Y-142873000D01*
X134852526Y-142899016D01*
X134729320Y-142950050D01*
X134675000Y-142986346D01*
X134620680Y-142950050D01*
X134497474Y-142899016D01*
X134366679Y-142873000D01*
X134233321Y-142873000D01*
X134102526Y-142899016D01*
X133979320Y-142950050D01*
X133925000Y-142986346D01*
X133870680Y-142950050D01*
X133747474Y-142899016D01*
X133616679Y-142873000D01*
X133483321Y-142873000D01*
X133352526Y-142899016D01*
X133229320Y-142950050D01*
X133118437Y-143024140D01*
X133107206Y-143035371D01*
X133095232Y-143027173D01*
X133089067Y-143023839D01*
X132916744Y-142932214D01*
X132874724Y-142914895D01*
X132832860Y-142896952D01*
X132826164Y-142894880D01*
X132639328Y-142838471D01*
X132594677Y-142829630D01*
X132550191Y-142820174D01*
X132543221Y-142819441D01*
X132348987Y-142800396D01*
X132348981Y-142800396D01*
X132324653Y-142798000D01*
X68275347Y-142798000D01*
X68250034Y-142800493D01*
X68237051Y-142800493D01*
X68230080Y-142801226D01*
X68036131Y-142822981D01*
X67991673Y-142832431D01*
X67946992Y-142841278D01*
X67940297Y-142843351D01*
X67754266Y-142902364D01*
X67712478Y-142920275D01*
X67670383Y-142937625D01*
X67664217Y-142940959D01*
X67493192Y-143034981D01*
X67492724Y-143035301D01*
X67481563Y-143024140D01*
X67370680Y-142950050D01*
X67247474Y-142899016D01*
X67116679Y-142873000D01*
X66983321Y-142873000D01*
X66852526Y-142899016D01*
X66729320Y-142950050D01*
X66675000Y-142986346D01*
X66620680Y-142950050D01*
X66497474Y-142899016D01*
X66366679Y-142873000D01*
X66233321Y-142873000D01*
X66102526Y-142899016D01*
X65979320Y-142950050D01*
X65925000Y-142986346D01*
X65870680Y-142950050D01*
X65747474Y-142899016D01*
X65616679Y-142873000D01*
X65483321Y-142873000D01*
X65352526Y-142899016D01*
X65229320Y-142950050D01*
X65118437Y-143024140D01*
X65107206Y-143035371D01*
X65095232Y-143027173D01*
X65089067Y-143023839D01*
X64916744Y-142932214D01*
X64874724Y-142914895D01*
X64832860Y-142896952D01*
X64826164Y-142894880D01*
X64639328Y-142838471D01*
X64594677Y-142829630D01*
X64550191Y-142820174D01*
X64543221Y-142819441D01*
X64348987Y-142800396D01*
X64348981Y-142800396D01*
X64324653Y-142798000D01*
X55324551Y-142798000D01*
X54815272Y-142748064D01*
X54349007Y-142607291D01*
X53918960Y-142378633D01*
X53541521Y-142070800D01*
X53231060Y-141695517D01*
X52999406Y-141267082D01*
X52855379Y-140801807D01*
X52844772Y-140700881D01*
X68478724Y-140700881D01*
X68838912Y-141190548D01*
X69502882Y-141550849D01*
X70224385Y-141774694D01*
X70975695Y-141853480D01*
X71727938Y-141784178D01*
X72452208Y-141569452D01*
X73120670Y-141217555D01*
X73161088Y-141190548D01*
X73521276Y-140700881D01*
X108478724Y-140700881D01*
X108838912Y-141190548D01*
X109502882Y-141550849D01*
X110224385Y-141774694D01*
X110975695Y-141853480D01*
X111727938Y-141784178D01*
X112452208Y-141569452D01*
X113120670Y-141217555D01*
X113161088Y-141190548D01*
X113521276Y-140700881D01*
X111000000Y-138179605D01*
X108478724Y-140700881D01*
X73521276Y-140700881D01*
X71000000Y-138179605D01*
X68478724Y-140700881D01*
X52844772Y-140700881D01*
X52802000Y-140293941D01*
X52802000Y-137975695D01*
X67146520Y-137975695D01*
X67215822Y-138727938D01*
X67430548Y-139452208D01*
X67782445Y-140120670D01*
X67809452Y-140161088D01*
X68299119Y-140521276D01*
X70820395Y-138000000D01*
X71179605Y-138000000D01*
X73700881Y-140521276D01*
X74190548Y-140161088D01*
X74550849Y-139497118D01*
X74774694Y-138775615D01*
X74853480Y-138024305D01*
X74849002Y-137975695D01*
X107146520Y-137975695D01*
X107215822Y-138727938D01*
X107430548Y-139452208D01*
X107782445Y-140120670D01*
X107809452Y-140161088D01*
X108299119Y-140521276D01*
X110820395Y-138000000D01*
X111179605Y-138000000D01*
X113700881Y-140521276D01*
X114190548Y-140161088D01*
X114550849Y-139497118D01*
X114774694Y-138775615D01*
X114853480Y-138024305D01*
X114784178Y-137272062D01*
X114569452Y-136547792D01*
X114217555Y-135879330D01*
X114190548Y-135838912D01*
X113700881Y-135478724D01*
X111179605Y-138000000D01*
X110820395Y-138000000D01*
X108299119Y-135478724D01*
X107809452Y-135838912D01*
X107449151Y-136502882D01*
X107225306Y-137224385D01*
X107146520Y-137975695D01*
X74849002Y-137975695D01*
X74784178Y-137272062D01*
X74569452Y-136547792D01*
X74217555Y-135879330D01*
X74190548Y-135838912D01*
X73700881Y-135478724D01*
X71179605Y-138000000D01*
X70820395Y-138000000D01*
X68299119Y-135478724D01*
X67809452Y-135838912D01*
X67449151Y-136502882D01*
X67225306Y-137224385D01*
X67146520Y-137975695D01*
X52802000Y-137975695D01*
X52802000Y-135299119D01*
X68478724Y-135299119D01*
X71000000Y-137820395D01*
X73521276Y-135299119D01*
X108478724Y-135299119D01*
X111000000Y-137820395D01*
X113521276Y-135299119D01*
X113161088Y-134809452D01*
X112497118Y-134449151D01*
X111775615Y-134225306D01*
X111024305Y-134146520D01*
X110272062Y-134215822D01*
X109547792Y-134430548D01*
X108879330Y-134782445D01*
X108838912Y-134809452D01*
X108478724Y-135299119D01*
X73521276Y-135299119D01*
X73161088Y-134809452D01*
X72497118Y-134449151D01*
X71775615Y-134225306D01*
X71024305Y-134146520D01*
X70272062Y-134215822D01*
X69547792Y-134430548D01*
X68879330Y-134782445D01*
X68838912Y-134809452D01*
X68478724Y-135299119D01*
X52802000Y-135299119D01*
X52802000Y-106000000D01*
X77545813Y-106000000D01*
X77548001Y-106022215D01*
X77548000Y-123477795D01*
X77545813Y-123500000D01*
X77554540Y-123588607D01*
X77580386Y-123673810D01*
X77622357Y-123752333D01*
X77678841Y-123821159D01*
X77747667Y-123877643D01*
X77826190Y-123919614D01*
X77911393Y-123945460D01*
X78000000Y-123954187D01*
X78022205Y-123952000D01*
X92477795Y-123952000D01*
X92500000Y-123954187D01*
X92522205Y-123952000D01*
X92588607Y-123945460D01*
X92673810Y-123919614D01*
X92752333Y-123877643D01*
X92821159Y-123821159D01*
X92877643Y-123752333D01*
X92919614Y-123673810D01*
X92945460Y-123588607D01*
X92954187Y-123500000D01*
X92952000Y-123477795D01*
X92952000Y-117000000D01*
X146245813Y-117000000D01*
X146248001Y-117022215D01*
X146248000Y-134477795D01*
X146245813Y-134500000D01*
X146254540Y-134588607D01*
X146280386Y-134673810D01*
X146322357Y-134752333D01*
X146369233Y-134809452D01*
X146378841Y-134821159D01*
X146447667Y-134877643D01*
X146526190Y-134919614D01*
X146611393Y-134945460D01*
X146700000Y-134954187D01*
X146722205Y-134952000D01*
X161177795Y-134952000D01*
X161200000Y-134954187D01*
X161222205Y-134952000D01*
X161288607Y-134945460D01*
X161373810Y-134919614D01*
X161452333Y-134877643D01*
X161521159Y-134821159D01*
X161577643Y-134752333D01*
X161619614Y-134673810D01*
X161645460Y-134588607D01*
X161654187Y-134500000D01*
X161652000Y-134477795D01*
X161652000Y-117022205D01*
X161654187Y-117000000D01*
X161645460Y-116911393D01*
X161619614Y-116826190D01*
X161577643Y-116747667D01*
X161521159Y-116678841D01*
X161452333Y-116622357D01*
X161373810Y-116580386D01*
X161288607Y-116554540D01*
X161222205Y-116548000D01*
X161200000Y-116545813D01*
X161177795Y-116548000D01*
X146722205Y-116548000D01*
X146700000Y-116545813D01*
X146677795Y-116548000D01*
X146611393Y-116554540D01*
X146526190Y-116580386D01*
X146447667Y-116622357D01*
X146378841Y-116678841D01*
X146322357Y-116747667D01*
X146280386Y-116826190D01*
X146254540Y-116911393D01*
X146245813Y-117000000D01*
X92952000Y-117000000D01*
X92952000Y-106022205D01*
X92954187Y-106000000D01*
X92945460Y-105911393D01*
X92919614Y-105826190D01*
X92877643Y-105747667D01*
X92821159Y-105678841D01*
X92752333Y-105622357D01*
X92673810Y-105580386D01*
X92588607Y-105554540D01*
X92522205Y-105548000D01*
X92500000Y-105545813D01*
X92477795Y-105548000D01*
X78022205Y-105548000D01*
X78000000Y-105545813D01*
X77977795Y-105548000D01*
X77911393Y-105554540D01*
X77826190Y-105580386D01*
X77747667Y-105622357D01*
X77678841Y-105678841D01*
X77622357Y-105747667D01*
X77580386Y-105826190D01*
X77554540Y-105911393D01*
X77545813Y-106000000D01*
X52802000Y-106000000D01*
X52802000Y-91275347D01*
X52799507Y-91250034D01*
X52799507Y-91237051D01*
X52798774Y-91230080D01*
X52777019Y-91036131D01*
X52767569Y-90991673D01*
X52758722Y-90946992D01*
X52756649Y-90940297D01*
X52697636Y-90754266D01*
X52679725Y-90712478D01*
X52662375Y-90670383D01*
X52659041Y-90664217D01*
X52565019Y-90493192D01*
X52564699Y-90492724D01*
X52575860Y-90481563D01*
X52649950Y-90370680D01*
X52700984Y-90247474D01*
X52727000Y-90116679D01*
X52727000Y-89983321D01*
X52700984Y-89852526D01*
X52649950Y-89729320D01*
X52575860Y-89618437D01*
X52481563Y-89524140D01*
X52370680Y-89450050D01*
X52247474Y-89399016D01*
X52116679Y-89373000D01*
X51983321Y-89373000D01*
X51852526Y-89399016D01*
X51729320Y-89450050D01*
X51618437Y-89524140D01*
X51524140Y-89618437D01*
X51450050Y-89729320D01*
X51417749Y-89807301D01*
X51338518Y-89800090D01*
X51293019Y-89800408D01*
X51247520Y-89800090D01*
X51240544Y-89800774D01*
X51182092Y-89806918D01*
X51149950Y-89729320D01*
X51075860Y-89618437D01*
X50981563Y-89524140D01*
X50870680Y-89450050D01*
X50747474Y-89399016D01*
X50616679Y-89373000D01*
X50483321Y-89373000D01*
X50352526Y-89399016D01*
X50229320Y-89450050D01*
X50118437Y-89524140D01*
X50024140Y-89618437D01*
X49950050Y-89729320D01*
X49899016Y-89852526D01*
X49873000Y-89983321D01*
X49873000Y-90116679D01*
X49899016Y-90247474D01*
X49950050Y-90370680D01*
X50024140Y-90481563D01*
X50035371Y-90492794D01*
X50027173Y-90504768D01*
X50023839Y-90510933D01*
X49932214Y-90683256D01*
X49914895Y-90725276D01*
X49896952Y-90767140D01*
X49894880Y-90773836D01*
X49838471Y-90960672D01*
X49829633Y-91005309D01*
X49820174Y-91049809D01*
X49819441Y-91056779D01*
X49800396Y-91251013D01*
X49800396Y-91251029D01*
X49798001Y-91275347D01*
X49798000Y-140324652D01*
X49799802Y-140342953D01*
X49852986Y-141067181D01*
X49854902Y-141078881D01*
X49855274Y-141090724D01*
X49865508Y-141147605D01*
X50073028Y-142011987D01*
X50078067Y-142026958D01*
X50081350Y-142042406D01*
X50101496Y-142096575D01*
X50458804Y-142910546D01*
X50466414Y-142924389D01*
X50472381Y-142939010D01*
X50501801Y-142988756D01*
X50997604Y-143726590D01*
X51007542Y-143738862D01*
X51016007Y-143752201D01*
X51053771Y-143795950D01*
X51672398Y-144434323D01*
X51684352Y-144444642D01*
X51695045Y-144456270D01*
X51739959Y-144492641D01*
X52461855Y-145011376D01*
X52475454Y-145019418D01*
X52488031Y-145028965D01*
X52538676Y-145056808D01*
X53341023Y-145439508D01*
X53355831Y-145445015D01*
X53369901Y-145452184D01*
X53424676Y-145470618D01*
X54282111Y-145705186D01*
X54297658Y-145707983D01*
X54312777Y-145712548D01*
X54369951Y-145720991D01*
X55253208Y-145799820D01*
X55275347Y-145802000D01*
X64324653Y-145802000D01*
X64349966Y-145799507D01*
X64362949Y-145799507D01*
X64369919Y-145798774D01*
X64563869Y-145777020D01*
X64608364Y-145767562D01*
X64653008Y-145758722D01*
X64659704Y-145756649D01*
X64845734Y-145697636D01*
X64887554Y-145679711D01*
X64929617Y-145662374D01*
X64935783Y-145659041D01*
X65106808Y-145565019D01*
X65107276Y-145564699D01*
X65118437Y-145575860D01*
X65229320Y-145649950D01*
X65352526Y-145700984D01*
X65483321Y-145727000D01*
X65616679Y-145727000D01*
X65747474Y-145700984D01*
X65870680Y-145649950D01*
X65925000Y-145613654D01*
X65979320Y-145649950D01*
X66102526Y-145700984D01*
X66233321Y-145727000D01*
X66366679Y-145727000D01*
X66497474Y-145700984D01*
X66620680Y-145649950D01*
X66675000Y-145613654D01*
X66729320Y-145649950D01*
X66852526Y-145700984D01*
X66983321Y-145727000D01*
X67116679Y-145727000D01*
X67247474Y-145700984D01*
X67370680Y-145649950D01*
X67481563Y-145575860D01*
X67492794Y-145564629D01*
X67504768Y-145572827D01*
X67510934Y-145576161D01*
X67683256Y-145667786D01*
X67725302Y-145685116D01*
X67767141Y-145703048D01*
X67773836Y-145705120D01*
X67960673Y-145761530D01*
X68005345Y-145770375D01*
X68049808Y-145779826D01*
X68056779Y-145780559D01*
X68251012Y-145799604D01*
X68251019Y-145799604D01*
X68275347Y-145802000D01*
X132324653Y-145802000D01*
X132349966Y-145799507D01*
X132362949Y-145799507D01*
X132369919Y-145798774D01*
X132563869Y-145777020D01*
X132608364Y-145767562D01*
X132653008Y-145758722D01*
X132659704Y-145756649D01*
X132845734Y-145697636D01*
X132887554Y-145679711D01*
X132929617Y-145662374D01*
X132935783Y-145659041D01*
X133106808Y-145565019D01*
X133107276Y-145564699D01*
X133118437Y-145575860D01*
X133229320Y-145649950D01*
X133352526Y-145700984D01*
X133483321Y-145727000D01*
X133616679Y-145727000D01*
X133747474Y-145700984D01*
X133870680Y-145649950D01*
X133925000Y-145613654D01*
X133979320Y-145649950D01*
X134102526Y-145700984D01*
X134233321Y-145727000D01*
X134366679Y-145727000D01*
X134497474Y-145700984D01*
X134620680Y-145649950D01*
X134675000Y-145613654D01*
X134729320Y-145649950D01*
X134852526Y-145700984D01*
X134983321Y-145727000D01*
X135116679Y-145727000D01*
X135247474Y-145700984D01*
X135370680Y-145649950D01*
X135481563Y-145575860D01*
X135492794Y-145564629D01*
X135504768Y-145572827D01*
X135510934Y-145576161D01*
X135683256Y-145667786D01*
X135725302Y-145685116D01*
X135767141Y-145703048D01*
X135773836Y-145705120D01*
X135960673Y-145761530D01*
X136005345Y-145770375D01*
X136049808Y-145779826D01*
X136056779Y-145780559D01*
X136251012Y-145799604D01*
X136251019Y-145799604D01*
X136275347Y-145802000D01*
X213324653Y-145802000D01*
X213349966Y-145799507D01*
X213362949Y-145799507D01*
X213369919Y-145798774D01*
X213563869Y-145777020D01*
X213608364Y-145767562D01*
X213653008Y-145758722D01*
X213659704Y-145756649D01*
X213845734Y-145697636D01*
X213887554Y-145679711D01*
X213929617Y-145662374D01*
X213935783Y-145659041D01*
X214106808Y-145565019D01*
X214107276Y-145564699D01*
X214118437Y-145575860D01*
X214229320Y-145649950D01*
X214352526Y-145700984D01*
X214483321Y-145727000D01*
X214616679Y-145727000D01*
X214747474Y-145700984D01*
X214870680Y-145649950D01*
X214925000Y-145613654D01*
X214979320Y-145649950D01*
X215102526Y-145700984D01*
X215233321Y-145727000D01*
X215366679Y-145727000D01*
X215497474Y-145700984D01*
X215620680Y-145649950D01*
X215675000Y-145613654D01*
X215729320Y-145649950D01*
X215852526Y-145700984D01*
X215983321Y-145727000D01*
X216116679Y-145727000D01*
X216247474Y-145700984D01*
X216370680Y-145649950D01*
X216481563Y-145575860D01*
X216492794Y-145564629D01*
X216504768Y-145572827D01*
X216510934Y-145576161D01*
X216683256Y-145667786D01*
X216725302Y-145685116D01*
X216767141Y-145703048D01*
X216773836Y-145705120D01*
X216960673Y-145761530D01*
X217005345Y-145770375D01*
X217049808Y-145779826D01*
X217056779Y-145780559D01*
X217251012Y-145799604D01*
X217251019Y-145799604D01*
X217275347Y-145802000D01*
X225324653Y-145802000D01*
X225342957Y-145800197D01*
X226067181Y-145747014D01*
X226078881Y-145745098D01*
X226090724Y-145744726D01*
X226147605Y-145734492D01*
X227011987Y-145526972D01*
X227026958Y-145521933D01*
X227042406Y-145518650D01*
X227096565Y-145498508D01*
X227096576Y-145498504D01*
X227096580Y-145498502D01*
X227910546Y-145141196D01*
X227924389Y-145133586D01*
X227939010Y-145127619D01*
X227988756Y-145098199D01*
X228272926Y-144907245D01*
X252312295Y-144907245D01*
X252312295Y-145692755D01*
X252465540Y-146463171D01*
X252766141Y-147188887D01*
X253202547Y-147842014D01*
X253757986Y-148397453D01*
X254411113Y-148833859D01*
X255136829Y-149134460D01*
X255907245Y-149287705D01*
X256692755Y-149287705D01*
X257463171Y-149134460D01*
X258188887Y-148833859D01*
X258842014Y-148397453D01*
X259397453Y-147842014D01*
X259833859Y-147188887D01*
X260134460Y-146463171D01*
X260287705Y-145692755D01*
X260287705Y-144907245D01*
X260134460Y-144136829D01*
X259833859Y-143411113D01*
X259397453Y-142757986D01*
X258842014Y-142202547D01*
X258188887Y-141766141D01*
X257463171Y-141465540D01*
X256692755Y-141312295D01*
X255907245Y-141312295D01*
X255136829Y-141465540D01*
X254411113Y-141766141D01*
X253757986Y-142202547D01*
X253202547Y-142757986D01*
X252766141Y-143411113D01*
X252465540Y-144136829D01*
X252312295Y-144907245D01*
X228272926Y-144907245D01*
X228726590Y-144602396D01*
X228738862Y-144592458D01*
X228752201Y-144583993D01*
X228795950Y-144546229D01*
X229434323Y-143927602D01*
X229444642Y-143915648D01*
X229456270Y-143904955D01*
X229492641Y-143860041D01*
X230011376Y-143138145D01*
X230019418Y-143124546D01*
X230028965Y-143111969D01*
X230056808Y-143061324D01*
X230439508Y-142258977D01*
X230445015Y-142244169D01*
X230452184Y-142230099D01*
X230470618Y-142175324D01*
X230705186Y-141317889D01*
X230707983Y-141302342D01*
X230712548Y-141287223D01*
X230720991Y-141230049D01*
X230799820Y-140346792D01*
X230802000Y-140324653D01*
X230802000Y-116990560D01*
X245058202Y-116990560D01*
X245058202Y-117609440D01*
X245178939Y-118216429D01*
X245415775Y-118788199D01*
X245759606Y-119302780D01*
X246197220Y-119740394D01*
X246711801Y-120084225D01*
X247283571Y-120321061D01*
X247890560Y-120441798D01*
X248509440Y-120441798D01*
X249116429Y-120321061D01*
X249688199Y-120084225D01*
X250202780Y-119740394D01*
X250640394Y-119302780D01*
X250984225Y-118788199D01*
X251221061Y-118216429D01*
X251341798Y-117609440D01*
X251341798Y-116990560D01*
X263558202Y-116990560D01*
X263558202Y-117609440D01*
X263678939Y-118216429D01*
X263915775Y-118788199D01*
X264259606Y-119302780D01*
X264697220Y-119740394D01*
X265211801Y-120084225D01*
X265783571Y-120321061D01*
X266390560Y-120441798D01*
X267009440Y-120441798D01*
X267616429Y-120321061D01*
X268188199Y-120084225D01*
X268702780Y-119740394D01*
X269140394Y-119302780D01*
X269484225Y-118788199D01*
X269721061Y-118216429D01*
X269841798Y-117609440D01*
X269841798Y-116990560D01*
X269721061Y-116383571D01*
X269484225Y-115811801D01*
X269140394Y-115297220D01*
X268702780Y-114859606D01*
X268188199Y-114515775D01*
X267616429Y-114278939D01*
X267009440Y-114158202D01*
X266390560Y-114158202D01*
X265783571Y-114278939D01*
X265211801Y-114515775D01*
X264697220Y-114859606D01*
X264259606Y-115297220D01*
X263915775Y-115811801D01*
X263678939Y-116383571D01*
X263558202Y-116990560D01*
X251341798Y-116990560D01*
X251221061Y-116383571D01*
X250984225Y-115811801D01*
X250640394Y-115297220D01*
X250202780Y-114859606D01*
X249688199Y-114515775D01*
X249116429Y-114278939D01*
X248509440Y-114158202D01*
X247890560Y-114158202D01*
X247283571Y-114278939D01*
X246711801Y-114515775D01*
X246197220Y-114859606D01*
X245759606Y-115297220D01*
X245415775Y-115811801D01*
X245178939Y-116383571D01*
X245058202Y-116990560D01*
X230802000Y-116990560D01*
X230802000Y-104190560D01*
X245058202Y-104190560D01*
X245058202Y-104809440D01*
X245178939Y-105416429D01*
X245415775Y-105988199D01*
X245759606Y-106502780D01*
X246197220Y-106940394D01*
X246711801Y-107284225D01*
X247283571Y-107521061D01*
X247890560Y-107641798D01*
X248509440Y-107641798D01*
X249116429Y-107521061D01*
X249688199Y-107284225D01*
X250202780Y-106940394D01*
X250640394Y-106502780D01*
X250984225Y-105988199D01*
X251221061Y-105416429D01*
X251341798Y-104809440D01*
X251341798Y-104190560D01*
X263558202Y-104190560D01*
X263558202Y-104809440D01*
X263678939Y-105416429D01*
X263915775Y-105988199D01*
X264259606Y-106502780D01*
X264697220Y-106940394D01*
X265211801Y-107284225D01*
X265783571Y-107521061D01*
X266390560Y-107641798D01*
X267009440Y-107641798D01*
X267616429Y-107521061D01*
X268188199Y-107284225D01*
X268702780Y-106940394D01*
X269140394Y-106502780D01*
X269484225Y-105988199D01*
X269721061Y-105416429D01*
X269841798Y-104809440D01*
X269841798Y-104190560D01*
X269721061Y-103583571D01*
X269484225Y-103011801D01*
X269140394Y-102497220D01*
X268702780Y-102059606D01*
X268188199Y-101715775D01*
X267616429Y-101478939D01*
X267009440Y-101358202D01*
X266390560Y-101358202D01*
X265783571Y-101478939D01*
X265211801Y-101715775D01*
X264697220Y-102059606D01*
X264259606Y-102497220D01*
X263915775Y-103011801D01*
X263678939Y-103583571D01*
X263558202Y-104190560D01*
X251341798Y-104190560D01*
X251221061Y-103583571D01*
X250984225Y-103011801D01*
X250640394Y-102497220D01*
X250202780Y-102059606D01*
X249688199Y-101715775D01*
X249116429Y-101478939D01*
X248509440Y-101358202D01*
X247890560Y-101358202D01*
X247283571Y-101478939D01*
X246711801Y-101715775D01*
X246197220Y-102059606D01*
X245759606Y-102497220D01*
X245415775Y-103011801D01*
X245178939Y-103583571D01*
X245058202Y-104190560D01*
X230802000Y-104190560D01*
X230802000Y-92775347D01*
X230799507Y-92750034D01*
X230799507Y-92737051D01*
X230798774Y-92730080D01*
X230777019Y-92536131D01*
X230767569Y-92491673D01*
X230758722Y-92446992D01*
X230756649Y-92440297D01*
X230697636Y-92254266D01*
X230679725Y-92212478D01*
X230662375Y-92170383D01*
X230659041Y-92164217D01*
X230565019Y-91993192D01*
X230564699Y-91992724D01*
X230575860Y-91981563D01*
X230649950Y-91870680D01*
X230700984Y-91747474D01*
X230727000Y-91616679D01*
X230727000Y-91483321D01*
X230708550Y-91390560D01*
X245058202Y-91390560D01*
X245058202Y-92009440D01*
X245178939Y-92616429D01*
X245415775Y-93188199D01*
X245759606Y-93702780D01*
X246197220Y-94140394D01*
X246711801Y-94484225D01*
X247283571Y-94721061D01*
X247890560Y-94841798D01*
X248509440Y-94841798D01*
X249116429Y-94721061D01*
X249688199Y-94484225D01*
X250202780Y-94140394D01*
X250640394Y-93702780D01*
X250984225Y-93188199D01*
X251221061Y-92616429D01*
X251341798Y-92009440D01*
X251341798Y-91390560D01*
X263558202Y-91390560D01*
X263558202Y-92009440D01*
X263678939Y-92616429D01*
X263915775Y-93188199D01*
X264259606Y-93702780D01*
X264697220Y-94140394D01*
X265211801Y-94484225D01*
X265783571Y-94721061D01*
X266390560Y-94841798D01*
X267009440Y-94841798D01*
X267616429Y-94721061D01*
X268188199Y-94484225D01*
X268702780Y-94140394D01*
X269140394Y-93702780D01*
X269484225Y-93188199D01*
X269721061Y-92616429D01*
X269841798Y-92009440D01*
X269841798Y-91390560D01*
X269721061Y-90783571D01*
X269484225Y-90211801D01*
X269140394Y-89697220D01*
X268702780Y-89259606D01*
X268188199Y-88915775D01*
X267616429Y-88678939D01*
X267009440Y-88558202D01*
X266390560Y-88558202D01*
X265783571Y-88678939D01*
X265211801Y-88915775D01*
X264697220Y-89259606D01*
X264259606Y-89697220D01*
X263915775Y-90211801D01*
X263678939Y-90783571D01*
X263558202Y-91390560D01*
X251341798Y-91390560D01*
X251221061Y-90783571D01*
X250984225Y-90211801D01*
X250640394Y-89697220D01*
X250202780Y-89259606D01*
X249688199Y-88915775D01*
X249116429Y-88678939D01*
X248509440Y-88558202D01*
X247890560Y-88558202D01*
X247283571Y-88678939D01*
X246711801Y-88915775D01*
X246197220Y-89259606D01*
X245759606Y-89697220D01*
X245415775Y-90211801D01*
X245178939Y-90783571D01*
X245058202Y-91390560D01*
X230708550Y-91390560D01*
X230700984Y-91352526D01*
X230649950Y-91229320D01*
X230613654Y-91175000D01*
X230649950Y-91120680D01*
X230700984Y-90997474D01*
X230727000Y-90866679D01*
X230727000Y-90733321D01*
X230700984Y-90602526D01*
X230649950Y-90479320D01*
X230613654Y-90425000D01*
X230649950Y-90370680D01*
X230700984Y-90247474D01*
X230727000Y-90116679D01*
X230727000Y-89983321D01*
X230700984Y-89852526D01*
X230649950Y-89729320D01*
X230575860Y-89618437D01*
X230564629Y-89607206D01*
X230572827Y-89595232D01*
X230576161Y-89589066D01*
X230667786Y-89416744D01*
X230685116Y-89374698D01*
X230703048Y-89332859D01*
X230705120Y-89326164D01*
X230761530Y-89139327D01*
X230770375Y-89094655D01*
X230779826Y-89050192D01*
X230780559Y-89043221D01*
X230799604Y-88848988D01*
X230799604Y-88848981D01*
X230802000Y-88824653D01*
X230802000Y-78590560D01*
X245058202Y-78590560D01*
X245058202Y-79209440D01*
X245178939Y-79816429D01*
X245415775Y-80388199D01*
X245759606Y-80902780D01*
X246197220Y-81340394D01*
X246711801Y-81684225D01*
X247283571Y-81921061D01*
X247890560Y-82041798D01*
X248509440Y-82041798D01*
X249116429Y-81921061D01*
X249688199Y-81684225D01*
X250202780Y-81340394D01*
X250640394Y-80902780D01*
X250984225Y-80388199D01*
X251221061Y-79816429D01*
X251341798Y-79209440D01*
X251341798Y-78590560D01*
X263558202Y-78590560D01*
X263558202Y-79209440D01*
X263678939Y-79816429D01*
X263915775Y-80388199D01*
X264259606Y-80902780D01*
X264697220Y-81340394D01*
X265211801Y-81684225D01*
X265783571Y-81921061D01*
X266390560Y-82041798D01*
X267009440Y-82041798D01*
X267616429Y-81921061D01*
X268188199Y-81684225D01*
X268702780Y-81340394D01*
X269140394Y-80902780D01*
X269484225Y-80388199D01*
X269721061Y-79816429D01*
X269841798Y-79209440D01*
X269841798Y-78590560D01*
X269721061Y-77983571D01*
X269484225Y-77411801D01*
X269140394Y-76897220D01*
X268702780Y-76459606D01*
X268188199Y-76115775D01*
X267616429Y-75878939D01*
X267009440Y-75758202D01*
X266390560Y-75758202D01*
X265783571Y-75878939D01*
X265211801Y-76115775D01*
X264697220Y-76459606D01*
X264259606Y-76897220D01*
X263915775Y-77411801D01*
X263678939Y-77983571D01*
X263558202Y-78590560D01*
X251341798Y-78590560D01*
X251221061Y-77983571D01*
X250984225Y-77411801D01*
X250640394Y-76897220D01*
X250202780Y-76459606D01*
X249688199Y-76115775D01*
X249116429Y-75878939D01*
X248509440Y-75758202D01*
X247890560Y-75758202D01*
X247283571Y-75878939D01*
X246711801Y-76115775D01*
X246197220Y-76459606D01*
X245759606Y-76897220D01*
X245415775Y-77411801D01*
X245178939Y-77983571D01*
X245058202Y-78590560D01*
X230802000Y-78590560D01*
X230802000Y-63807245D01*
X244212295Y-63807245D01*
X244212295Y-64592755D01*
X244365540Y-65363171D01*
X244666141Y-66088887D01*
X245102547Y-66742014D01*
X245657986Y-67297453D01*
X246311113Y-67733859D01*
X247036829Y-68034460D01*
X247807245Y-68187705D01*
X248592755Y-68187705D01*
X249363171Y-68034460D01*
X250088887Y-67733859D01*
X250742014Y-67297453D01*
X251297453Y-66742014D01*
X251733859Y-66088887D01*
X252034460Y-65363171D01*
X252187705Y-64592755D01*
X252187705Y-63890560D01*
X263558202Y-63890560D01*
X263558202Y-64509440D01*
X263678939Y-65116429D01*
X263915775Y-65688199D01*
X264259606Y-66202780D01*
X264697220Y-66640394D01*
X265211801Y-66984225D01*
X265783571Y-67221061D01*
X266390560Y-67341798D01*
X267009440Y-67341798D01*
X267616429Y-67221061D01*
X268188199Y-66984225D01*
X268702780Y-66640394D01*
X269140394Y-66202780D01*
X269484225Y-65688199D01*
X269721061Y-65116429D01*
X269841798Y-64509440D01*
X269841798Y-63890560D01*
X269721061Y-63283571D01*
X269484225Y-62711801D01*
X269140394Y-62197220D01*
X268702780Y-61759606D01*
X268188199Y-61415775D01*
X267616429Y-61178939D01*
X267009440Y-61058202D01*
X266390560Y-61058202D01*
X265783571Y-61178939D01*
X265211801Y-61415775D01*
X264697220Y-61759606D01*
X264259606Y-62197220D01*
X263915775Y-62711801D01*
X263678939Y-63283571D01*
X263558202Y-63890560D01*
X252187705Y-63890560D01*
X252187705Y-63807245D01*
X252034460Y-63036829D01*
X251733859Y-62311113D01*
X251297453Y-61657986D01*
X250742014Y-61102547D01*
X250088887Y-60666141D01*
X249363171Y-60365540D01*
X248592755Y-60212295D01*
X247807245Y-60212295D01*
X247036829Y-60365540D01*
X246311113Y-60666141D01*
X245657986Y-61102547D01*
X245102547Y-61657986D01*
X244666141Y-62311113D01*
X244365540Y-63036829D01*
X244212295Y-63807245D01*
X230802000Y-63807245D01*
X230802000Y-50275347D01*
X230800197Y-50257043D01*
X230747014Y-49532820D01*
X230745098Y-49521120D01*
X230744726Y-49509276D01*
X230734492Y-49452396D01*
X230626562Y-49002834D01*
X254073032Y-49002834D01*
X254076024Y-49027550D01*
X254276024Y-49927550D01*
X254283269Y-49950028D01*
X254583269Y-50650028D01*
X254594330Y-50670447D01*
X254994330Y-51270447D01*
X255018697Y-51297564D01*
X255618697Y-51797564D01*
X255630735Y-51806449D01*
X255652833Y-51817917D01*
X256152833Y-52017917D01*
X256165110Y-52022114D01*
X256865110Y-52222114D01*
X256885975Y-52226223D01*
X257785975Y-52326223D01*
X257815884Y-52326003D01*
X257840161Y-52320483D01*
X258440161Y-52120483D01*
X258450028Y-52116731D01*
X259150028Y-51816731D01*
X259179336Y-51799170D01*
X259679336Y-51399170D01*
X259697564Y-51381303D01*
X260197564Y-50781303D01*
X260213592Y-50756796D01*
X260513592Y-50156796D01*
X260523976Y-50127550D01*
X260723976Y-49227550D01*
X260727000Y-49200000D01*
X260727000Y-48690560D01*
X263558202Y-48690560D01*
X263558202Y-49309440D01*
X263678939Y-49916429D01*
X263915775Y-50488199D01*
X264259606Y-51002780D01*
X264697220Y-51440394D01*
X265211801Y-51784225D01*
X265783571Y-52021061D01*
X266390560Y-52141798D01*
X267009440Y-52141798D01*
X267616429Y-52021061D01*
X268188199Y-51784225D01*
X268702780Y-51440394D01*
X269140394Y-51002780D01*
X269484225Y-50488199D01*
X269721061Y-49916429D01*
X269841798Y-49309440D01*
X269841798Y-48690560D01*
X269721061Y-48083571D01*
X269484225Y-47511801D01*
X269140394Y-46997220D01*
X268702780Y-46559606D01*
X268188199Y-46215775D01*
X267616429Y-45978939D01*
X267009440Y-45858202D01*
X266390560Y-45858202D01*
X265783571Y-45978939D01*
X265211801Y-46215775D01*
X264697220Y-46559606D01*
X264259606Y-46997220D01*
X263915775Y-47511801D01*
X263678939Y-48083571D01*
X263558202Y-48690560D01*
X260727000Y-48690560D01*
X260727000Y-48400000D01*
X260726003Y-48384116D01*
X260720483Y-48359839D01*
X260420483Y-47459839D01*
X260412743Y-47441535D01*
X260399170Y-47420664D01*
X259999170Y-46920664D01*
X259989803Y-46910197D01*
X259489803Y-46410197D01*
X259463010Y-46389733D01*
X258763010Y-45989733D01*
X258740161Y-45979517D01*
X258140161Y-45779517D01*
X258117961Y-45774276D01*
X257417961Y-45674276D01*
X257400000Y-45673000D01*
X256600000Y-45673000D01*
X256583984Y-45674014D01*
X256559713Y-45679559D01*
X256536990Y-45689733D01*
X255836990Y-46089733D01*
X255826183Y-46096656D01*
X255126183Y-46596656D01*
X255100830Y-46620664D01*
X254700830Y-47120664D01*
X254691098Y-47134659D01*
X254391098Y-47634659D01*
X254377886Y-47665110D01*
X254177886Y-48365110D01*
X254174728Y-48379121D01*
X254074728Y-48979121D01*
X254073032Y-49002834D01*
X230626562Y-49002834D01*
X230526972Y-48588013D01*
X230521934Y-48573042D01*
X230518650Y-48557594D01*
X230498504Y-48503425D01*
X230141195Y-47689454D01*
X230133588Y-47675616D01*
X230127619Y-47660990D01*
X230098207Y-47611257D01*
X230098199Y-47611243D01*
X230098195Y-47611238D01*
X229602396Y-46873410D01*
X229592458Y-46861138D01*
X229583993Y-46847799D01*
X229546229Y-46804050D01*
X228927602Y-46165677D01*
X228915648Y-46155358D01*
X228904955Y-46143730D01*
X228860041Y-46107359D01*
X228138145Y-45588624D01*
X228124546Y-45580582D01*
X228111969Y-45571035D01*
X228061323Y-45543192D01*
X227258977Y-45160492D01*
X227244169Y-45154985D01*
X227230099Y-45147816D01*
X227175324Y-45129382D01*
X226317888Y-44894814D01*
X226302342Y-44892017D01*
X226287223Y-44887452D01*
X226230049Y-44879009D01*
X225346792Y-44800180D01*
X225324653Y-44798000D01*
X218775347Y-44798000D01*
X218750034Y-44800493D01*
X218737051Y-44800493D01*
X218730080Y-44801226D01*
X218536131Y-44822981D01*
X218491673Y-44832431D01*
X218446992Y-44841278D01*
X218440297Y-44843351D01*
X218254266Y-44902364D01*
X218212478Y-44920275D01*
X218170383Y-44937625D01*
X218164217Y-44940959D01*
X217993192Y-45034981D01*
X217992724Y-45035301D01*
X217981563Y-45024140D01*
X217870680Y-44950050D01*
X217747474Y-44899016D01*
X217616679Y-44873000D01*
X217483321Y-44873000D01*
X217352526Y-44899016D01*
X217229320Y-44950050D01*
X217175000Y-44986346D01*
X217120680Y-44950050D01*
X216997474Y-44899016D01*
X216866679Y-44873000D01*
X216733321Y-44873000D01*
X216602526Y-44899016D01*
X216479320Y-44950050D01*
X216425000Y-44986346D01*
X216370680Y-44950050D01*
X216247474Y-44899016D01*
X216116679Y-44873000D01*
X215983321Y-44873000D01*
X215852526Y-44899016D01*
X215729320Y-44950050D01*
X215618437Y-45024140D01*
X215607206Y-45035371D01*
X215595232Y-45027173D01*
X215589067Y-45023839D01*
X215416744Y-44932214D01*
X215374724Y-44914895D01*
X215332860Y-44896952D01*
X215326164Y-44894880D01*
X215139328Y-44838471D01*
X215094677Y-44829630D01*
X215050191Y-44820174D01*
X215043221Y-44819441D01*
X214848987Y-44800396D01*
X214848981Y-44800396D01*
X214824653Y-44798000D01*
X132275347Y-44798000D01*
X132250034Y-44800493D01*
X132237051Y-44800493D01*
X132230080Y-44801226D01*
X132036131Y-44822981D01*
X131991673Y-44832431D01*
X131946992Y-44841278D01*
X131940297Y-44843351D01*
X131754266Y-44902364D01*
X131712478Y-44920275D01*
X131670383Y-44937625D01*
X131664217Y-44940959D01*
X131493192Y-45034981D01*
X131492724Y-45035301D01*
X131481563Y-45024140D01*
X131370680Y-44950050D01*
X131247474Y-44899016D01*
X131116679Y-44873000D01*
X130983321Y-44873000D01*
X130852526Y-44899016D01*
X130729320Y-44950050D01*
X130675000Y-44986346D01*
X130620680Y-44950050D01*
X130497474Y-44899016D01*
X130366679Y-44873000D01*
X130233321Y-44873000D01*
X130102526Y-44899016D01*
X129979320Y-44950050D01*
X129925000Y-44986346D01*
X129870680Y-44950050D01*
X129747474Y-44899016D01*
X129616679Y-44873000D01*
X129483321Y-44873000D01*
X129352526Y-44899016D01*
X129229320Y-44950050D01*
X129118437Y-45024140D01*
X129107206Y-45035371D01*
X129095232Y-45027173D01*
X129089067Y-45023839D01*
X128916744Y-44932214D01*
X128874724Y-44914895D01*
X128832860Y-44896952D01*
X128826164Y-44894880D01*
X128639328Y-44838471D01*
X128594677Y-44829630D01*
X128550191Y-44820174D01*
X128543221Y-44819441D01*
X128348987Y-44800396D01*
X128348981Y-44800396D01*
X128324653Y-44798000D01*
X65775347Y-44798000D01*
X65750034Y-44800493D01*
X65737051Y-44800493D01*
X65730080Y-44801226D01*
X65536131Y-44822981D01*
X65491673Y-44832431D01*
X65446992Y-44841278D01*
X65440297Y-44843351D01*
X65254266Y-44902364D01*
X65212478Y-44920275D01*
X65170383Y-44937625D01*
X65164217Y-44940959D01*
X64993192Y-45034981D01*
X64992724Y-45035301D01*
X64981563Y-45024140D01*
X64870680Y-44950050D01*
X64747474Y-44899016D01*
X64616679Y-44873000D01*
X64483321Y-44873000D01*
X64352526Y-44899016D01*
X64229320Y-44950050D01*
X64175000Y-44986346D01*
X64120680Y-44950050D01*
X63997474Y-44899016D01*
X63866679Y-44873000D01*
X63733321Y-44873000D01*
X63602526Y-44899016D01*
X63479320Y-44950050D01*
X63425000Y-44986346D01*
X63370680Y-44950050D01*
X63247474Y-44899016D01*
X63116679Y-44873000D01*
X62983321Y-44873000D01*
X62852526Y-44899016D01*
X62729320Y-44950050D01*
X62618437Y-45024140D01*
X62607206Y-45035371D01*
X62595232Y-45027173D01*
X62589067Y-45023839D01*
X62416744Y-44932214D01*
X62374724Y-44914895D01*
X62332860Y-44896952D01*
X62326164Y-44894880D01*
X62139328Y-44838471D01*
X62094677Y-44829630D01*
X62050191Y-44820174D01*
X62043221Y-44819441D01*
X61848987Y-44800396D01*
X61848981Y-44800396D01*
X61824653Y-44798000D01*
X55275347Y-44798000D01*
X55257043Y-44799803D01*
X54532820Y-44852986D01*
X54521120Y-44854902D01*
X54509276Y-44855274D01*
X54452396Y-44865508D01*
X53588013Y-45073028D01*
X53573042Y-45078066D01*
X53557594Y-45081350D01*
X53503425Y-45101496D01*
X52689454Y-45458805D01*
X52675616Y-45466412D01*
X52660990Y-45472381D01*
X52611257Y-45501793D01*
X52611243Y-45501801D01*
X52611238Y-45501805D01*
X51873410Y-45997604D01*
X51861138Y-46007542D01*
X51847799Y-46016007D01*
X51804050Y-46053771D01*
X51165677Y-46672398D01*
X51155358Y-46684352D01*
X51143730Y-46695045D01*
X51107359Y-46739959D01*
X50588624Y-47461855D01*
X50580582Y-47475454D01*
X50571035Y-47488031D01*
X50543192Y-47538677D01*
X50160492Y-48341023D01*
X50154985Y-48355831D01*
X50147816Y-48369901D01*
X50129382Y-48424676D01*
X49894814Y-49282112D01*
X49892017Y-49297658D01*
X49887452Y-49312777D01*
X49879009Y-49369951D01*
X49800171Y-50253316D01*
X49798001Y-50275347D01*
X49798000Y-87324652D01*
X19777000Y-87324652D01*
X19777000Y-41714155D01*
X36065450Y-41714155D01*
X36461634Y-42234550D01*
X37176612Y-42624748D01*
X37953976Y-42867964D01*
X38763853Y-42954851D01*
X39575118Y-42882069D01*
X40356597Y-42652415D01*
X41078256Y-42274715D01*
X41138366Y-42234550D01*
X41534550Y-41714155D01*
X275065450Y-41714155D01*
X275461634Y-42234550D01*
X276176612Y-42624748D01*
X276953976Y-42867964D01*
X277763853Y-42954851D01*
X278575118Y-42882069D01*
X279356597Y-42652415D01*
X280078256Y-42274715D01*
X280138366Y-42234550D01*
X280534550Y-41714155D01*
X277800000Y-38979605D01*
X275065450Y-41714155D01*
X41534550Y-41714155D01*
X38800000Y-38979605D01*
X36065450Y-41714155D01*
X19777000Y-41714155D01*
X19777000Y-38763853D01*
X34645149Y-38763853D01*
X34717931Y-39575118D01*
X34947585Y-40356597D01*
X35325285Y-41078256D01*
X35365450Y-41138366D01*
X35885845Y-41534550D01*
X38620395Y-38800000D01*
X38979605Y-38800000D01*
X41714155Y-41534550D01*
X42234550Y-41138366D01*
X42624748Y-40423388D01*
X42867964Y-39646024D01*
X42954851Y-38836147D01*
X42948366Y-38763853D01*
X273645149Y-38763853D01*
X273717931Y-39575118D01*
X273947585Y-40356597D01*
X274325285Y-41078256D01*
X274365450Y-41138366D01*
X274885845Y-41534550D01*
X277620395Y-38800000D01*
X277979605Y-38800000D01*
X280714155Y-41534550D01*
X281234550Y-41138366D01*
X281624748Y-40423388D01*
X281867964Y-39646024D01*
X281954851Y-38836147D01*
X281882069Y-38024882D01*
X281652415Y-37243403D01*
X281274715Y-36521744D01*
X281234550Y-36461634D01*
X280714155Y-36065450D01*
X277979605Y-38800000D01*
X277620395Y-38800000D01*
X274885845Y-36065450D01*
X274365450Y-36461634D01*
X273975252Y-37176612D01*
X273732036Y-37953976D01*
X273645149Y-38763853D01*
X42948366Y-38763853D01*
X42882069Y-38024882D01*
X42652415Y-37243403D01*
X42274715Y-36521744D01*
X42234550Y-36461634D01*
X41714155Y-36065450D01*
X38979605Y-38800000D01*
X38620395Y-38800000D01*
X35885845Y-36065450D01*
X35365450Y-36461634D01*
X34975252Y-37176612D01*
X34732036Y-37953976D01*
X34645149Y-38763853D01*
X19777000Y-38763853D01*
X19777000Y-35885845D01*
X36065450Y-35885845D01*
X38800000Y-38620395D01*
X41534550Y-35885845D01*
X275065450Y-35885845D01*
X277800000Y-38620395D01*
X280534550Y-35885845D01*
X280138366Y-35365450D01*
X279423388Y-34975252D01*
X278646024Y-34732036D01*
X277836147Y-34645149D01*
X277024882Y-34717931D01*
X276243403Y-34947585D01*
X275521744Y-35325285D01*
X275461634Y-35365450D01*
X275065450Y-35885845D01*
X41534550Y-35885845D01*
X41138366Y-35365450D01*
X40423388Y-34975252D01*
X39646024Y-34732036D01*
X38836147Y-34645149D01*
X38024882Y-34717931D01*
X37243403Y-34947585D01*
X36521744Y-35325285D01*
X36461634Y-35365450D01*
X36065450Y-35885845D01*
X19777000Y-35885845D01*
X19777000Y-19277000D01*
X298823001Y-19277000D01*
X298823000Y-196323000D01*
G36*
X218085606Y-47851439D02*
G01*
X218145076Y-47875951D01*
X218204248Y-47901312D01*
X218213718Y-47904243D01*
X218400554Y-47960652D01*
X218463684Y-47973152D01*
X218526623Y-47986530D01*
X218536481Y-47987566D01*
X218730209Y-48006561D01*
X218765123Y-48010000D01*
X224873000Y-48010000D01*
X224873000Y-142590000D01*
X217265123Y-142590000D01*
X217229738Y-142593485D01*
X217216754Y-142593485D01*
X217206895Y-142594522D01*
X217012945Y-142616277D01*
X216950016Y-142629653D01*
X216886873Y-142642156D01*
X216877403Y-142645087D01*
X216691373Y-142704100D01*
X216632252Y-142729440D01*
X216572733Y-142753972D01*
X216564012Y-142758687D01*
X216506223Y-142790457D01*
X216469205Y-142765723D01*
X216308145Y-142699010D01*
X216137165Y-142665000D01*
X215962835Y-142665000D01*
X215791855Y-142699010D01*
X215675000Y-142747413D01*
X215558145Y-142699010D01*
X215387165Y-142665000D01*
X215212835Y-142665000D01*
X215041855Y-142699010D01*
X214925000Y-142747413D01*
X214808145Y-142699010D01*
X214637165Y-142665000D01*
X214462835Y-142665000D01*
X214291855Y-142699010D01*
X214130795Y-142765723D01*
X214093517Y-142790631D01*
X214014394Y-142748561D01*
X213954924Y-142724049D01*
X213895752Y-142698688D01*
X213886282Y-142695757D01*
X213699446Y-142639348D01*
X213636316Y-142626848D01*
X213573377Y-142613470D01*
X213563518Y-142612434D01*
X213369792Y-142593439D01*
X213334877Y-142590000D01*
X136265123Y-142590000D01*
X136229738Y-142593485D01*
X136216754Y-142593485D01*
X136206895Y-142594522D01*
X136012945Y-142616277D01*
X135950016Y-142629653D01*
X135886873Y-142642156D01*
X135877403Y-142645087D01*
X135691373Y-142704100D01*
X135632252Y-142729440D01*
X135572733Y-142753972D01*
X135564012Y-142758687D01*
X135506223Y-142790457D01*
X135469205Y-142765723D01*
X135308145Y-142699010D01*
X135137165Y-142665000D01*
X134962835Y-142665000D01*
X134791855Y-142699010D01*
X134675000Y-142747413D01*
X134558145Y-142699010D01*
X134387165Y-142665000D01*
X134212835Y-142665000D01*
X134041855Y-142699010D01*
X133925000Y-142747413D01*
X133808145Y-142699010D01*
X133637165Y-142665000D01*
X133462835Y-142665000D01*
X133291855Y-142699010D01*
X133130795Y-142765723D01*
X133093517Y-142790631D01*
X133014394Y-142748561D01*
X132954924Y-142724049D01*
X132895752Y-142698688D01*
X132886282Y-142695757D01*
X132699446Y-142639348D01*
X132636316Y-142626848D01*
X132573377Y-142613470D01*
X132563518Y-142612434D01*
X132369792Y-142593439D01*
X132334877Y-142590000D01*
X68265123Y-142590000D01*
X68229738Y-142593485D01*
X68216754Y-142593485D01*
X68206895Y-142594522D01*
X68012945Y-142616277D01*
X67950016Y-142629653D01*
X67886873Y-142642156D01*
X67877403Y-142645087D01*
X67691373Y-142704100D01*
X67632252Y-142729440D01*
X67572733Y-142753972D01*
X67564012Y-142758687D01*
X67506223Y-142790457D01*
X67469205Y-142765723D01*
X67308145Y-142699010D01*
X67137165Y-142665000D01*
X66962835Y-142665000D01*
X66791855Y-142699010D01*
X66675000Y-142747413D01*
X66558145Y-142699010D01*
X66387165Y-142665000D01*
X66212835Y-142665000D01*
X66041855Y-142699010D01*
X65925000Y-142747413D01*
X65808145Y-142699010D01*
X65637165Y-142665000D01*
X65462835Y-142665000D01*
X65291855Y-142699010D01*
X65130795Y-142765723D01*
X65093517Y-142790631D01*
X65014394Y-142748561D01*
X64954924Y-142724049D01*
X64895752Y-142698688D01*
X64886282Y-142695757D01*
X64699446Y-142639348D01*
X64636316Y-142626848D01*
X64573377Y-142613470D01*
X64563518Y-142612434D01*
X64369792Y-142593439D01*
X64334877Y-142590000D01*
X55334721Y-142590000D01*
X55127000Y-142569633D01*
X55127000Y-140700881D01*
X68478724Y-140700881D01*
X68838912Y-141190548D01*
X69502882Y-141550849D01*
X70224385Y-141774694D01*
X70975695Y-141853480D01*
X71727938Y-141784178D01*
X72452208Y-141569452D01*
X73120670Y-141217555D01*
X73161088Y-141190548D01*
X73521276Y-140700881D01*
X108478724Y-140700881D01*
X108838912Y-141190548D01*
X109502882Y-141550849D01*
X110224385Y-141774694D01*
X110975695Y-141853480D01*
X111727938Y-141784178D01*
X112452208Y-141569452D01*
X113120670Y-141217555D01*
X113161088Y-141190548D01*
X113521276Y-140700881D01*
X111000000Y-138179605D01*
X108478724Y-140700881D01*
X73521276Y-140700881D01*
X71000000Y-138179605D01*
X68478724Y-140700881D01*
X55127000Y-140700881D01*
X55127000Y-137975695D01*
X67146520Y-137975695D01*
X67215822Y-138727938D01*
X67430548Y-139452208D01*
X67782445Y-140120670D01*
X67809452Y-140161088D01*
X68299119Y-140521276D01*
X70820395Y-138000000D01*
X71179605Y-138000000D01*
X73700881Y-140521276D01*
X74190548Y-140161088D01*
X74550849Y-139497118D01*
X74774694Y-138775615D01*
X74853480Y-138024305D01*
X74849002Y-137975695D01*
X107146520Y-137975695D01*
X107215822Y-138727938D01*
X107430548Y-139452208D01*
X107782445Y-140120670D01*
X107809452Y-140161088D01*
X108299119Y-140521276D01*
X110820395Y-138000000D01*
X111179605Y-138000000D01*
X113700881Y-140521276D01*
X114190548Y-140161088D01*
X114550849Y-139497118D01*
X114774694Y-138775615D01*
X114853480Y-138024305D01*
X114784178Y-137272062D01*
X114569452Y-136547792D01*
X114217555Y-135879330D01*
X114190548Y-135838912D01*
X113700881Y-135478724D01*
X111179605Y-138000000D01*
X110820395Y-138000000D01*
X108299119Y-135478724D01*
X107809452Y-135838912D01*
X107449151Y-136502882D01*
X107225306Y-137224385D01*
X107146520Y-137975695D01*
X74849002Y-137975695D01*
X74784178Y-137272062D01*
X74569452Y-136547792D01*
X74217555Y-135879330D01*
X74190548Y-135838912D01*
X73700881Y-135478724D01*
X71179605Y-138000000D01*
X70820395Y-138000000D01*
X68299119Y-135478724D01*
X67809452Y-135838912D01*
X67449151Y-136502882D01*
X67225306Y-137224385D01*
X67146520Y-137975695D01*
X55127000Y-137975695D01*
X55127000Y-135299119D01*
X68478724Y-135299119D01*
X71000000Y-137820395D01*
X73521276Y-135299119D01*
X108478724Y-135299119D01*
X111000000Y-137820395D01*
X113521276Y-135299119D01*
X113161088Y-134809452D01*
X112497118Y-134449151D01*
X111775615Y-134225306D01*
X111024305Y-134146520D01*
X110272062Y-134215822D01*
X109547792Y-134430548D01*
X108879330Y-134782445D01*
X108838912Y-134809452D01*
X108478724Y-135299119D01*
X73521276Y-135299119D01*
X73161088Y-134809452D01*
X72497118Y-134449151D01*
X71775615Y-134225306D01*
X71024305Y-134146520D01*
X70272062Y-134215822D01*
X69547792Y-134430548D01*
X68879330Y-134782445D01*
X68838912Y-134809452D01*
X68478724Y-135299119D01*
X55127000Y-135299119D01*
X55127000Y-106000000D01*
X77336807Y-106000000D01*
X77340001Y-106032429D01*
X77340000Y-123467581D01*
X77336807Y-123500000D01*
X77349550Y-123629383D01*
X77387290Y-123753793D01*
X77448575Y-123868450D01*
X77531052Y-123968948D01*
X77631550Y-124051425D01*
X77746207Y-124112710D01*
X77870617Y-124150450D01*
X78000000Y-124163193D01*
X78032419Y-124160000D01*
X92467581Y-124160000D01*
X92500000Y-124163193D01*
X92532419Y-124160000D01*
X92629383Y-124150450D01*
X92753793Y-124112710D01*
X92868450Y-124051425D01*
X92968948Y-123968948D01*
X93051425Y-123868450D01*
X93112710Y-123753793D01*
X93150450Y-123629383D01*
X93163193Y-123500000D01*
X93160000Y-123467581D01*
X93160000Y-117000000D01*
X146036807Y-117000000D01*
X146040001Y-117032429D01*
X146040000Y-134467581D01*
X146036807Y-134500000D01*
X146049550Y-134629383D01*
X146087290Y-134753793D01*
X146148575Y-134868450D01*
X146231052Y-134968948D01*
X146331550Y-135051425D01*
X146446207Y-135112710D01*
X146570617Y-135150450D01*
X146700000Y-135163193D01*
X146732419Y-135160000D01*
X161167581Y-135160000D01*
X161200000Y-135163193D01*
X161232419Y-135160000D01*
X161329383Y-135150450D01*
X161453793Y-135112710D01*
X161568450Y-135051425D01*
X161668948Y-134968948D01*
X161751425Y-134868450D01*
X161812710Y-134753793D01*
X161850450Y-134629383D01*
X161863193Y-134500000D01*
X161860000Y-134467581D01*
X161860000Y-117032419D01*
X161863193Y-117000000D01*
X161850450Y-116870617D01*
X161812710Y-116746207D01*
X161751425Y-116631550D01*
X161668948Y-116531052D01*
X161568450Y-116448575D01*
X161453793Y-116387290D01*
X161329383Y-116349550D01*
X161232419Y-116340000D01*
X161200000Y-116336807D01*
X161167581Y-116340000D01*
X146732419Y-116340000D01*
X146700000Y-116336807D01*
X146667581Y-116340000D01*
X146570617Y-116349550D01*
X146446207Y-116387290D01*
X146331550Y-116448575D01*
X146231052Y-116531052D01*
X146148575Y-116631550D01*
X146087290Y-116746207D01*
X146049550Y-116870617D01*
X146036807Y-117000000D01*
X93160000Y-117000000D01*
X93160000Y-106032419D01*
X93163193Y-106000000D01*
X93150450Y-105870617D01*
X93112710Y-105746207D01*
X93051425Y-105631550D01*
X92968948Y-105531052D01*
X92868450Y-105448575D01*
X92753793Y-105387290D01*
X92629383Y-105349550D01*
X92532419Y-105340000D01*
X92500000Y-105336807D01*
X92467581Y-105340000D01*
X78032419Y-105340000D01*
X78000000Y-105336807D01*
X77967581Y-105340000D01*
X77870617Y-105349550D01*
X77746207Y-105387290D01*
X77631550Y-105448575D01*
X77531052Y-105531052D01*
X77448575Y-105631550D01*
X77387290Y-105746207D01*
X77349550Y-105870617D01*
X77336807Y-106000000D01*
X55127000Y-106000000D01*
X55127000Y-88460000D01*
X75336807Y-88460000D01*
X75340001Y-88492429D01*
X75340000Y-103427581D01*
X75336807Y-103460000D01*
X75349550Y-103589383D01*
X75387290Y-103713793D01*
X75448575Y-103828450D01*
X75531052Y-103928948D01*
X75631550Y-104011425D01*
X75746207Y-104072710D01*
X75870617Y-104110450D01*
X76000000Y-104123193D01*
X76032419Y-104120000D01*
X92467581Y-104120000D01*
X92500000Y-104123193D01*
X92532419Y-104120000D01*
X92629383Y-104110450D01*
X92753793Y-104072710D01*
X92868450Y-104011425D01*
X92968948Y-103928948D01*
X93051425Y-103828450D01*
X93112710Y-103713793D01*
X93150450Y-103589383D01*
X93163193Y-103460000D01*
X93160000Y-103427581D01*
X93160000Y-99460000D01*
X144036807Y-99460000D01*
X144040001Y-99492429D01*
X144040000Y-114427581D01*
X144036807Y-114460000D01*
X144049550Y-114589383D01*
X144087290Y-114713793D01*
X144148575Y-114828450D01*
X144231052Y-114928948D01*
X144331550Y-115011425D01*
X144446207Y-115072710D01*
X144570617Y-115110450D01*
X144700000Y-115123193D01*
X144732419Y-115120000D01*
X161167581Y-115120000D01*
X161200000Y-115123193D01*
X161232419Y-115120000D01*
X161329383Y-115110450D01*
X161453793Y-115072710D01*
X161568450Y-115011425D01*
X161668948Y-114928948D01*
X161751425Y-114828450D01*
X161812710Y-114713793D01*
X161850450Y-114589383D01*
X161863193Y-114460000D01*
X161860000Y-114427581D01*
X161860000Y-99492419D01*
X161863193Y-99460000D01*
X161850450Y-99330617D01*
X161812710Y-99206207D01*
X161751425Y-99091550D01*
X161668948Y-98991052D01*
X161568450Y-98908575D01*
X161453793Y-98847290D01*
X161329383Y-98809550D01*
X161232419Y-98800000D01*
X161200000Y-98796807D01*
X161167581Y-98800000D01*
X144732419Y-98800000D01*
X144700000Y-98796807D01*
X144667581Y-98800000D01*
X144570617Y-98809550D01*
X144446207Y-98847290D01*
X144331550Y-98908575D01*
X144231052Y-98991052D01*
X144148575Y-99091550D01*
X144087290Y-99206207D01*
X144049550Y-99330617D01*
X144036807Y-99460000D01*
X93160000Y-99460000D01*
X93160000Y-88492419D01*
X93163193Y-88460000D01*
X93150450Y-88330617D01*
X93112710Y-88206207D01*
X93051425Y-88091550D01*
X92968948Y-87991052D01*
X92868450Y-87908575D01*
X92753793Y-87847290D01*
X92629383Y-87809550D01*
X92532419Y-87800000D01*
X92500000Y-87796807D01*
X92467581Y-87800000D01*
X76032419Y-87800000D01*
X76000000Y-87796807D01*
X75967581Y-87800000D01*
X75870617Y-87809550D01*
X75746207Y-87847290D01*
X75631550Y-87908575D01*
X75531052Y-87991052D01*
X75448575Y-88091550D01*
X75387290Y-88206207D01*
X75349550Y-88330617D01*
X75336807Y-88460000D01*
X55127000Y-88460000D01*
X55127000Y-70460000D01*
X75336807Y-70460000D01*
X75340001Y-70492429D01*
X75340000Y-85427581D01*
X75336807Y-85460000D01*
X75349550Y-85589383D01*
X75387290Y-85713793D01*
X75448575Y-85828450D01*
X75531052Y-85928948D01*
X75631550Y-86011425D01*
X75746207Y-86072710D01*
X75870617Y-86110450D01*
X76000000Y-86123193D01*
X76032419Y-86120000D01*
X92467581Y-86120000D01*
X92500000Y-86123193D01*
X92532419Y-86120000D01*
X92629383Y-86110450D01*
X92753793Y-86072710D01*
X92868450Y-86011425D01*
X92968948Y-85928948D01*
X93051425Y-85828450D01*
X93112710Y-85713793D01*
X93150450Y-85589383D01*
X93163193Y-85460000D01*
X93160000Y-85427581D01*
X93160000Y-81460000D01*
X144036807Y-81460000D01*
X144040001Y-81492429D01*
X144040000Y-96427581D01*
X144036807Y-96460000D01*
X144049550Y-96589383D01*
X144087290Y-96713793D01*
X144148575Y-96828450D01*
X144231052Y-96928948D01*
X144331550Y-97011425D01*
X144446207Y-97072710D01*
X144570617Y-97110450D01*
X144700000Y-97123193D01*
X144732419Y-97120000D01*
X161167581Y-97120000D01*
X161200000Y-97123193D01*
X161232419Y-97120000D01*
X161329383Y-97110450D01*
X161453793Y-97072710D01*
X161568450Y-97011425D01*
X161668948Y-96928948D01*
X161751425Y-96828450D01*
X161812710Y-96713793D01*
X161850450Y-96589383D01*
X161863193Y-96460000D01*
X161860000Y-96427581D01*
X161860000Y-81492419D01*
X161863193Y-81460000D01*
X161850450Y-81330617D01*
X161812710Y-81206207D01*
X161751425Y-81091550D01*
X161668948Y-80991052D01*
X161568450Y-80908575D01*
X161453793Y-80847290D01*
X161329383Y-80809550D01*
X161232419Y-80800000D01*
X161200000Y-80796807D01*
X161167581Y-80800000D01*
X144732419Y-80800000D01*
X144700000Y-80796807D01*
X144667581Y-80800000D01*
X144570617Y-80809550D01*
X144446207Y-80847290D01*
X144331550Y-80908575D01*
X144231052Y-80991052D01*
X144148575Y-81091550D01*
X144087290Y-81206207D01*
X144049550Y-81330617D01*
X144036807Y-81460000D01*
X93160000Y-81460000D01*
X93160000Y-70492419D01*
X93163193Y-70460000D01*
X93150450Y-70330617D01*
X93112710Y-70206207D01*
X93051425Y-70091550D01*
X92968948Y-69991052D01*
X92868450Y-69908575D01*
X92753793Y-69847290D01*
X92629383Y-69809550D01*
X92532419Y-69800000D01*
X92500000Y-69796807D01*
X92467581Y-69800000D01*
X76032419Y-69800000D01*
X76000000Y-69796807D01*
X75967581Y-69800000D01*
X75870617Y-69809550D01*
X75746207Y-69847290D01*
X75631550Y-69908575D01*
X75531052Y-69991052D01*
X75448575Y-70091550D01*
X75387290Y-70206207D01*
X75349550Y-70330617D01*
X75336807Y-70460000D01*
X55127000Y-70460000D01*
X55127000Y-55700881D01*
X68478724Y-55700881D01*
X68838912Y-56190548D01*
X69502882Y-56550849D01*
X70224385Y-56774694D01*
X70975695Y-56853480D01*
X71727938Y-56784178D01*
X72452208Y-56569452D01*
X73120670Y-56217555D01*
X73161088Y-56190548D01*
X73521276Y-55700881D01*
X108478724Y-55700881D01*
X108838912Y-56190548D01*
X109502882Y-56550849D01*
X110224385Y-56774694D01*
X110975695Y-56853480D01*
X111727938Y-56784178D01*
X112452208Y-56569452D01*
X113120670Y-56217555D01*
X113161088Y-56190548D01*
X113521276Y-55700881D01*
X111000000Y-53179605D01*
X108478724Y-55700881D01*
X73521276Y-55700881D01*
X71000000Y-53179605D01*
X68478724Y-55700881D01*
X55127000Y-55700881D01*
X55127000Y-52975695D01*
X67146520Y-52975695D01*
X67215822Y-53727938D01*
X67430548Y-54452208D01*
X67782445Y-55120670D01*
X67809452Y-55161088D01*
X68299119Y-55521276D01*
X70820395Y-53000000D01*
X71179605Y-53000000D01*
X73700881Y-55521276D01*
X74190548Y-55161088D01*
X74550849Y-54497118D01*
X74774694Y-53775615D01*
X74853480Y-53024305D01*
X74849002Y-52975695D01*
X107146520Y-52975695D01*
X107215822Y-53727938D01*
X107430548Y-54452208D01*
X107782445Y-55120670D01*
X107809452Y-55161088D01*
X108299119Y-55521276D01*
X110820395Y-53000000D01*
X111179605Y-53000000D01*
X113700881Y-55521276D01*
X114190548Y-55161088D01*
X114550849Y-54497118D01*
X114774694Y-53775615D01*
X114853480Y-53024305D01*
X114784178Y-52272062D01*
X114569452Y-51547792D01*
X114217555Y-50879330D01*
X114190548Y-50838912D01*
X113700881Y-50478724D01*
X111179605Y-53000000D01*
X110820395Y-53000000D01*
X108299119Y-50478724D01*
X107809452Y-50838912D01*
X107449151Y-51502882D01*
X107225306Y-52224385D01*
X107146520Y-52975695D01*
X74849002Y-52975695D01*
X74784178Y-52272062D01*
X74569452Y-51547792D01*
X74217555Y-50879330D01*
X74190548Y-50838912D01*
X73700881Y-50478724D01*
X71179605Y-53000000D01*
X70820395Y-53000000D01*
X68299119Y-50478724D01*
X67809452Y-50838912D01*
X67449151Y-51502882D01*
X67225306Y-52224385D01*
X67146520Y-52975695D01*
X55127000Y-52975695D01*
X55127000Y-50299119D01*
X68478724Y-50299119D01*
X71000000Y-52820395D01*
X73521276Y-50299119D01*
X108478724Y-50299119D01*
X111000000Y-52820395D01*
X113521276Y-50299119D01*
X113161088Y-49809452D01*
X112497118Y-49449151D01*
X111775615Y-49225306D01*
X111024305Y-49146520D01*
X110272062Y-49215822D01*
X109547792Y-49430548D01*
X108879330Y-49782445D01*
X108838912Y-49809452D01*
X108478724Y-50299119D01*
X73521276Y-50299119D01*
X73161088Y-49809452D01*
X72497118Y-49449151D01*
X71775615Y-49225306D01*
X71024305Y-49146520D01*
X70272062Y-49215822D01*
X69547792Y-49430548D01*
X68879330Y-49782445D01*
X68838912Y-49809452D01*
X68478724Y-50299119D01*
X55127000Y-50299119D01*
X55127000Y-48029966D01*
X55316964Y-48010000D01*
X61834877Y-48010000D01*
X61870262Y-48006515D01*
X61883246Y-48006515D01*
X61893105Y-48005478D01*
X62087055Y-47983723D01*
X62149984Y-47970347D01*
X62213127Y-47957844D01*
X62222597Y-47954913D01*
X62408627Y-47895899D01*
X62467690Y-47870584D01*
X62527268Y-47846028D01*
X62535988Y-47841312D01*
X62593777Y-47809542D01*
X62630795Y-47834277D01*
X62791855Y-47900990D01*
X62962835Y-47935000D01*
X63137165Y-47935000D01*
X63308145Y-47900990D01*
X63425000Y-47852587D01*
X63541855Y-47900990D01*
X63712835Y-47935000D01*
X63887165Y-47935000D01*
X64058145Y-47900990D01*
X64175000Y-47852587D01*
X64291855Y-47900990D01*
X64462835Y-47935000D01*
X64637165Y-47935000D01*
X64808145Y-47900990D01*
X64969205Y-47834277D01*
X65006483Y-47809369D01*
X65085606Y-47851439D01*
X65145076Y-47875951D01*
X65204248Y-47901312D01*
X65213718Y-47904243D01*
X65400554Y-47960652D01*
X65463684Y-47973152D01*
X65526623Y-47986530D01*
X65536481Y-47987566D01*
X65730209Y-48006561D01*
X65765123Y-48010000D01*
X128334877Y-48010000D01*
X128370262Y-48006515D01*
X128383246Y-48006515D01*
X128393105Y-48005478D01*
X128587055Y-47983723D01*
X128649984Y-47970347D01*
X128713127Y-47957844D01*
X128722597Y-47954913D01*
X128908627Y-47895899D01*
X128967690Y-47870584D01*
X129027268Y-47846028D01*
X129035988Y-47841312D01*
X129093777Y-47809542D01*
X129130795Y-47834277D01*
X129291855Y-47900990D01*
X129462835Y-47935000D01*
X129637165Y-47935000D01*
X129808145Y-47900990D01*
X129925000Y-47852587D01*
X130041855Y-47900990D01*
X130212835Y-47935000D01*
X130387165Y-47935000D01*
X130558145Y-47900990D01*
X130675000Y-47852587D01*
X130791855Y-47900990D01*
X130962835Y-47935000D01*
X131137165Y-47935000D01*
X131308145Y-47900990D01*
X131469205Y-47834277D01*
X131506483Y-47809369D01*
X131585606Y-47851439D01*
X131645076Y-47875951D01*
X131704248Y-47901312D01*
X131713718Y-47904243D01*
X131900554Y-47960652D01*
X131963684Y-47973152D01*
X132026623Y-47986530D01*
X132036481Y-47987566D01*
X132230209Y-48006561D01*
X132265123Y-48010000D01*
X214834877Y-48010000D01*
X214870262Y-48006515D01*
X214883246Y-48006515D01*
X214893105Y-48005478D01*
X215087055Y-47983723D01*
X215149984Y-47970347D01*
X215213127Y-47957844D01*
X215222597Y-47954913D01*
X215408627Y-47895899D01*
X215467690Y-47870584D01*
X215527268Y-47846028D01*
X215535988Y-47841312D01*
X215593777Y-47809542D01*
X215630795Y-47834277D01*
X215791855Y-47900990D01*
X215962835Y-47935000D01*
X216137165Y-47935000D01*
X216308145Y-47900990D01*
X216425000Y-47852587D01*
X216541855Y-47900990D01*
X216712835Y-47935000D01*
X216887165Y-47935000D01*
X217058145Y-47900990D01*
X217175000Y-47852587D01*
X217291855Y-47900990D01*
X217462835Y-47935000D01*
X217637165Y-47935000D01*
X217808145Y-47900990D01*
X217969205Y-47834277D01*
X218006483Y-47809369D01*
X218085606Y-47851439D01*
G37*
X218085606Y-47851439D02*
X218145076Y-47875951D01*
X218204248Y-47901312D01*
X218213718Y-47904243D01*
X218400554Y-47960652D01*
X218463684Y-47973152D01*
X218526623Y-47986530D01*
X218536481Y-47987566D01*
X218730209Y-48006561D01*
X218765123Y-48010000D01*
X224873000Y-48010000D01*
X224873000Y-142590000D01*
X217265123Y-142590000D01*
X217229738Y-142593485D01*
X217216754Y-142593485D01*
X217206895Y-142594522D01*
X217012945Y-142616277D01*
X216950016Y-142629653D01*
X216886873Y-142642156D01*
X216877403Y-142645087D01*
X216691373Y-142704100D01*
X216632252Y-142729440D01*
X216572733Y-142753972D01*
X216564012Y-142758687D01*
X216506223Y-142790457D01*
X216469205Y-142765723D01*
X216308145Y-142699010D01*
X216137165Y-142665000D01*
X215962835Y-142665000D01*
X215791855Y-142699010D01*
X215675000Y-142747413D01*
X215558145Y-142699010D01*
X215387165Y-142665000D01*
X215212835Y-142665000D01*
X215041855Y-142699010D01*
X214925000Y-142747413D01*
X214808145Y-142699010D01*
X214637165Y-142665000D01*
X214462835Y-142665000D01*
X214291855Y-142699010D01*
X214130795Y-142765723D01*
X214093517Y-142790631D01*
X214014394Y-142748561D01*
X213954924Y-142724049D01*
X213895752Y-142698688D01*
X213886282Y-142695757D01*
X213699446Y-142639348D01*
X213636316Y-142626848D01*
X213573377Y-142613470D01*
X213563518Y-142612434D01*
X213369792Y-142593439D01*
X213334877Y-142590000D01*
X136265123Y-142590000D01*
X136229738Y-142593485D01*
X136216754Y-142593485D01*
X136206895Y-142594522D01*
X136012945Y-142616277D01*
X135950016Y-142629653D01*
X135886873Y-142642156D01*
X135877403Y-142645087D01*
X135691373Y-142704100D01*
X135632252Y-142729440D01*
X135572733Y-142753972D01*
X135564012Y-142758687D01*
X135506223Y-142790457D01*
X135469205Y-142765723D01*
X135308145Y-142699010D01*
X135137165Y-142665000D01*
X134962835Y-142665000D01*
X134791855Y-142699010D01*
X134675000Y-142747413D01*
X134558145Y-142699010D01*
X134387165Y-142665000D01*
X134212835Y-142665000D01*
X134041855Y-142699010D01*
X133925000Y-142747413D01*
X133808145Y-142699010D01*
X133637165Y-142665000D01*
X133462835Y-142665000D01*
X133291855Y-142699010D01*
X133130795Y-142765723D01*
X133093517Y-142790631D01*
X133014394Y-142748561D01*
X132954924Y-142724049D01*
X132895752Y-142698688D01*
X132886282Y-142695757D01*
X132699446Y-142639348D01*
X132636316Y-142626848D01*
X132573377Y-142613470D01*
X132563518Y-142612434D01*
X132369792Y-142593439D01*
X132334877Y-142590000D01*
X68265123Y-142590000D01*
X68229738Y-142593485D01*
X68216754Y-142593485D01*
X68206895Y-142594522D01*
X68012945Y-142616277D01*
X67950016Y-142629653D01*
X67886873Y-142642156D01*
X67877403Y-142645087D01*
X67691373Y-142704100D01*
X67632252Y-142729440D01*
X67572733Y-142753972D01*
X67564012Y-142758687D01*
X67506223Y-142790457D01*
X67469205Y-142765723D01*
X67308145Y-142699010D01*
X67137165Y-142665000D01*
X66962835Y-142665000D01*
X66791855Y-142699010D01*
X66675000Y-142747413D01*
X66558145Y-142699010D01*
X66387165Y-142665000D01*
X66212835Y-142665000D01*
X66041855Y-142699010D01*
X65925000Y-142747413D01*
X65808145Y-142699010D01*
X65637165Y-142665000D01*
X65462835Y-142665000D01*
X65291855Y-142699010D01*
X65130795Y-142765723D01*
X65093517Y-142790631D01*
X65014394Y-142748561D01*
X64954924Y-142724049D01*
X64895752Y-142698688D01*
X64886282Y-142695757D01*
X64699446Y-142639348D01*
X64636316Y-142626848D01*
X64573377Y-142613470D01*
X64563518Y-142612434D01*
X64369792Y-142593439D01*
X64334877Y-142590000D01*
X55334721Y-142590000D01*
X55127000Y-142569633D01*
X55127000Y-140700881D01*
X68478724Y-140700881D01*
X68838912Y-141190548D01*
X69502882Y-141550849D01*
X70224385Y-141774694D01*
X70975695Y-141853480D01*
X71727938Y-141784178D01*
X72452208Y-141569452D01*
X73120670Y-141217555D01*
X73161088Y-141190548D01*
X73521276Y-140700881D01*
X108478724Y-140700881D01*
X108838912Y-141190548D01*
X109502882Y-141550849D01*
X110224385Y-141774694D01*
X110975695Y-141853480D01*
X111727938Y-141784178D01*
X112452208Y-141569452D01*
X113120670Y-141217555D01*
X113161088Y-141190548D01*
X113521276Y-140700881D01*
X111000000Y-138179605D01*
X108478724Y-140700881D01*
X73521276Y-140700881D01*
X71000000Y-138179605D01*
X68478724Y-140700881D01*
X55127000Y-140700881D01*
X55127000Y-137975695D01*
X67146520Y-137975695D01*
X67215822Y-138727938D01*
X67430548Y-139452208D01*
X67782445Y-140120670D01*
X67809452Y-140161088D01*
X68299119Y-140521276D01*
X70820395Y-138000000D01*
X71179605Y-138000000D01*
X73700881Y-140521276D01*
X74190548Y-140161088D01*
X74550849Y-139497118D01*
X74774694Y-138775615D01*
X74853480Y-138024305D01*
X74849002Y-137975695D01*
X107146520Y-137975695D01*
X107215822Y-138727938D01*
X107430548Y-139452208D01*
X107782445Y-140120670D01*
X107809452Y-140161088D01*
X108299119Y-140521276D01*
X110820395Y-138000000D01*
X111179605Y-138000000D01*
X113700881Y-140521276D01*
X114190548Y-140161088D01*
X114550849Y-139497118D01*
X114774694Y-138775615D01*
X114853480Y-138024305D01*
X114784178Y-137272062D01*
X114569452Y-136547792D01*
X114217555Y-135879330D01*
X114190548Y-135838912D01*
X113700881Y-135478724D01*
X111179605Y-138000000D01*
X110820395Y-138000000D01*
X108299119Y-135478724D01*
X107809452Y-135838912D01*
X107449151Y-136502882D01*
X107225306Y-137224385D01*
X107146520Y-137975695D01*
X74849002Y-137975695D01*
X74784178Y-137272062D01*
X74569452Y-136547792D01*
X74217555Y-135879330D01*
X74190548Y-135838912D01*
X73700881Y-135478724D01*
X71179605Y-138000000D01*
X70820395Y-138000000D01*
X68299119Y-135478724D01*
X67809452Y-135838912D01*
X67449151Y-136502882D01*
X67225306Y-137224385D01*
X67146520Y-137975695D01*
X55127000Y-137975695D01*
X55127000Y-135299119D01*
X68478724Y-135299119D01*
X71000000Y-137820395D01*
X73521276Y-135299119D01*
X108478724Y-135299119D01*
X111000000Y-137820395D01*
X113521276Y-135299119D01*
X113161088Y-134809452D01*
X112497118Y-134449151D01*
X111775615Y-134225306D01*
X111024305Y-134146520D01*
X110272062Y-134215822D01*
X109547792Y-134430548D01*
X108879330Y-134782445D01*
X108838912Y-134809452D01*
X108478724Y-135299119D01*
X73521276Y-135299119D01*
X73161088Y-134809452D01*
X72497118Y-134449151D01*
X71775615Y-134225306D01*
X71024305Y-134146520D01*
X70272062Y-134215822D01*
X69547792Y-134430548D01*
X68879330Y-134782445D01*
X68838912Y-134809452D01*
X68478724Y-135299119D01*
X55127000Y-135299119D01*
X55127000Y-106000000D01*
X77336807Y-106000000D01*
X77340001Y-106032429D01*
X77340000Y-123467581D01*
X77336807Y-123500000D01*
X77349550Y-123629383D01*
X77387290Y-123753793D01*
X77448575Y-123868450D01*
X77531052Y-123968948D01*
X77631550Y-124051425D01*
X77746207Y-124112710D01*
X77870617Y-124150450D01*
X78000000Y-124163193D01*
X78032419Y-124160000D01*
X92467581Y-124160000D01*
X92500000Y-124163193D01*
X92532419Y-124160000D01*
X92629383Y-124150450D01*
X92753793Y-124112710D01*
X92868450Y-124051425D01*
X92968948Y-123968948D01*
X93051425Y-123868450D01*
X93112710Y-123753793D01*
X93150450Y-123629383D01*
X93163193Y-123500000D01*
X93160000Y-123467581D01*
X93160000Y-117000000D01*
X146036807Y-117000000D01*
X146040001Y-117032429D01*
X146040000Y-134467581D01*
X146036807Y-134500000D01*
X146049550Y-134629383D01*
X146087290Y-134753793D01*
X146148575Y-134868450D01*
X146231052Y-134968948D01*
X146331550Y-135051425D01*
X146446207Y-135112710D01*
X146570617Y-135150450D01*
X146700000Y-135163193D01*
X146732419Y-135160000D01*
X161167581Y-135160000D01*
X161200000Y-135163193D01*
X161232419Y-135160000D01*
X161329383Y-135150450D01*
X161453793Y-135112710D01*
X161568450Y-135051425D01*
X161668948Y-134968948D01*
X161751425Y-134868450D01*
X161812710Y-134753793D01*
X161850450Y-134629383D01*
X161863193Y-134500000D01*
X161860000Y-134467581D01*
X161860000Y-117032419D01*
X161863193Y-117000000D01*
X161850450Y-116870617D01*
X161812710Y-116746207D01*
X161751425Y-116631550D01*
X161668948Y-116531052D01*
X161568450Y-116448575D01*
X161453793Y-116387290D01*
X161329383Y-116349550D01*
X161232419Y-116340000D01*
X161200000Y-116336807D01*
X161167581Y-116340000D01*
X146732419Y-116340000D01*
X146700000Y-116336807D01*
X146667581Y-116340000D01*
X146570617Y-116349550D01*
X146446207Y-116387290D01*
X146331550Y-116448575D01*
X146231052Y-116531052D01*
X146148575Y-116631550D01*
X146087290Y-116746207D01*
X146049550Y-116870617D01*
X146036807Y-117000000D01*
X93160000Y-117000000D01*
X93160000Y-106032419D01*
X93163193Y-106000000D01*
X93150450Y-105870617D01*
X93112710Y-105746207D01*
X93051425Y-105631550D01*
X92968948Y-105531052D01*
X92868450Y-105448575D01*
X92753793Y-105387290D01*
X92629383Y-105349550D01*
X92532419Y-105340000D01*
X92500000Y-105336807D01*
X92467581Y-105340000D01*
X78032419Y-105340000D01*
X78000000Y-105336807D01*
X77967581Y-105340000D01*
X77870617Y-105349550D01*
X77746207Y-105387290D01*
X77631550Y-105448575D01*
X77531052Y-105531052D01*
X77448575Y-105631550D01*
X77387290Y-105746207D01*
X77349550Y-105870617D01*
X77336807Y-106000000D01*
X55127000Y-106000000D01*
X55127000Y-88460000D01*
X75336807Y-88460000D01*
X75340001Y-88492429D01*
X75340000Y-103427581D01*
X75336807Y-103460000D01*
X75349550Y-103589383D01*
X75387290Y-103713793D01*
X75448575Y-103828450D01*
X75531052Y-103928948D01*
X75631550Y-104011425D01*
X75746207Y-104072710D01*
X75870617Y-104110450D01*
X76000000Y-104123193D01*
X76032419Y-104120000D01*
X92467581Y-104120000D01*
X92500000Y-104123193D01*
X92532419Y-104120000D01*
X92629383Y-104110450D01*
X92753793Y-104072710D01*
X92868450Y-104011425D01*
X92968948Y-103928948D01*
X93051425Y-103828450D01*
X93112710Y-103713793D01*
X93150450Y-103589383D01*
X93163193Y-103460000D01*
X93160000Y-103427581D01*
X93160000Y-99460000D01*
X144036807Y-99460000D01*
X144040001Y-99492429D01*
X144040000Y-114427581D01*
X144036807Y-114460000D01*
X144049550Y-114589383D01*
X144087290Y-114713793D01*
X144148575Y-114828450D01*
X144231052Y-114928948D01*
X144331550Y-115011425D01*
X144446207Y-115072710D01*
X144570617Y-115110450D01*
X144700000Y-115123193D01*
X144732419Y-115120000D01*
X161167581Y-115120000D01*
X161200000Y-115123193D01*
X161232419Y-115120000D01*
X161329383Y-115110450D01*
X161453793Y-115072710D01*
X161568450Y-115011425D01*
X161668948Y-114928948D01*
X161751425Y-114828450D01*
X161812710Y-114713793D01*
X161850450Y-114589383D01*
X161863193Y-114460000D01*
X161860000Y-114427581D01*
X161860000Y-99492419D01*
X161863193Y-99460000D01*
X161850450Y-99330617D01*
X161812710Y-99206207D01*
X161751425Y-99091550D01*
X161668948Y-98991052D01*
X161568450Y-98908575D01*
X161453793Y-98847290D01*
X161329383Y-98809550D01*
X161232419Y-98800000D01*
X161200000Y-98796807D01*
X161167581Y-98800000D01*
X144732419Y-98800000D01*
X144700000Y-98796807D01*
X144667581Y-98800000D01*
X144570617Y-98809550D01*
X144446207Y-98847290D01*
X144331550Y-98908575D01*
X144231052Y-98991052D01*
X144148575Y-99091550D01*
X144087290Y-99206207D01*
X144049550Y-99330617D01*
X144036807Y-99460000D01*
X93160000Y-99460000D01*
X93160000Y-88492419D01*
X93163193Y-88460000D01*
X93150450Y-88330617D01*
X93112710Y-88206207D01*
X93051425Y-88091550D01*
X92968948Y-87991052D01*
X92868450Y-87908575D01*
X92753793Y-87847290D01*
X92629383Y-87809550D01*
X92532419Y-87800000D01*
X92500000Y-87796807D01*
X92467581Y-87800000D01*
X76032419Y-87800000D01*
X76000000Y-87796807D01*
X75967581Y-87800000D01*
X75870617Y-87809550D01*
X75746207Y-87847290D01*
X75631550Y-87908575D01*
X75531052Y-87991052D01*
X75448575Y-88091550D01*
X75387290Y-88206207D01*
X75349550Y-88330617D01*
X75336807Y-88460000D01*
X55127000Y-88460000D01*
X55127000Y-70460000D01*
X75336807Y-70460000D01*
X75340001Y-70492429D01*
X75340000Y-85427581D01*
X75336807Y-85460000D01*
X75349550Y-85589383D01*
X75387290Y-85713793D01*
X75448575Y-85828450D01*
X75531052Y-85928948D01*
X75631550Y-86011425D01*
X75746207Y-86072710D01*
X75870617Y-86110450D01*
X76000000Y-86123193D01*
X76032419Y-86120000D01*
X92467581Y-86120000D01*
X92500000Y-86123193D01*
X92532419Y-86120000D01*
X92629383Y-86110450D01*
X92753793Y-86072710D01*
X92868450Y-86011425D01*
X92968948Y-85928948D01*
X93051425Y-85828450D01*
X93112710Y-85713793D01*
X93150450Y-85589383D01*
X93163193Y-85460000D01*
X93160000Y-85427581D01*
X93160000Y-81460000D01*
X144036807Y-81460000D01*
X144040001Y-81492429D01*
X144040000Y-96427581D01*
X144036807Y-96460000D01*
X144049550Y-96589383D01*
X144087290Y-96713793D01*
X144148575Y-96828450D01*
X144231052Y-96928948D01*
X144331550Y-97011425D01*
X144446207Y-97072710D01*
X144570617Y-97110450D01*
X144700000Y-97123193D01*
X144732419Y-97120000D01*
X161167581Y-97120000D01*
X161200000Y-97123193D01*
X161232419Y-97120000D01*
X161329383Y-97110450D01*
X161453793Y-97072710D01*
X161568450Y-97011425D01*
X161668948Y-96928948D01*
X161751425Y-96828450D01*
X161812710Y-96713793D01*
X161850450Y-96589383D01*
X161863193Y-96460000D01*
X161860000Y-96427581D01*
X161860000Y-81492419D01*
X161863193Y-81460000D01*
X161850450Y-81330617D01*
X161812710Y-81206207D01*
X161751425Y-81091550D01*
X161668948Y-80991052D01*
X161568450Y-80908575D01*
X161453793Y-80847290D01*
X161329383Y-80809550D01*
X161232419Y-80800000D01*
X161200000Y-80796807D01*
X161167581Y-80800000D01*
X144732419Y-80800000D01*
X144700000Y-80796807D01*
X144667581Y-80800000D01*
X144570617Y-80809550D01*
X144446207Y-80847290D01*
X144331550Y-80908575D01*
X144231052Y-80991052D01*
X144148575Y-81091550D01*
X144087290Y-81206207D01*
X144049550Y-81330617D01*
X144036807Y-81460000D01*
X93160000Y-81460000D01*
X93160000Y-70492419D01*
X93163193Y-70460000D01*
X93150450Y-70330617D01*
X93112710Y-70206207D01*
X93051425Y-70091550D01*
X92968948Y-69991052D01*
X92868450Y-69908575D01*
X92753793Y-69847290D01*
X92629383Y-69809550D01*
X92532419Y-69800000D01*
X92500000Y-69796807D01*
X92467581Y-69800000D01*
X76032419Y-69800000D01*
X76000000Y-69796807D01*
X75967581Y-69800000D01*
X75870617Y-69809550D01*
X75746207Y-69847290D01*
X75631550Y-69908575D01*
X75531052Y-69991052D01*
X75448575Y-70091550D01*
X75387290Y-70206207D01*
X75349550Y-70330617D01*
X75336807Y-70460000D01*
X55127000Y-70460000D01*
X55127000Y-55700881D01*
X68478724Y-55700881D01*
X68838912Y-56190548D01*
X69502882Y-56550849D01*
X70224385Y-56774694D01*
X70975695Y-56853480D01*
X71727938Y-56784178D01*
X72452208Y-56569452D01*
X73120670Y-56217555D01*
X73161088Y-56190548D01*
X73521276Y-55700881D01*
X108478724Y-55700881D01*
X108838912Y-56190548D01*
X109502882Y-56550849D01*
X110224385Y-56774694D01*
X110975695Y-56853480D01*
X111727938Y-56784178D01*
X112452208Y-56569452D01*
X113120670Y-56217555D01*
X113161088Y-56190548D01*
X113521276Y-55700881D01*
X111000000Y-53179605D01*
X108478724Y-55700881D01*
X73521276Y-55700881D01*
X71000000Y-53179605D01*
X68478724Y-55700881D01*
X55127000Y-55700881D01*
X55127000Y-52975695D01*
X67146520Y-52975695D01*
X67215822Y-53727938D01*
X67430548Y-54452208D01*
X67782445Y-55120670D01*
X67809452Y-55161088D01*
X68299119Y-55521276D01*
X70820395Y-53000000D01*
X71179605Y-53000000D01*
X73700881Y-55521276D01*
X74190548Y-55161088D01*
X74550849Y-54497118D01*
X74774694Y-53775615D01*
X74853480Y-53024305D01*
X74849002Y-52975695D01*
X107146520Y-52975695D01*
X107215822Y-53727938D01*
X107430548Y-54452208D01*
X107782445Y-55120670D01*
X107809452Y-55161088D01*
X108299119Y-55521276D01*
X110820395Y-53000000D01*
X111179605Y-53000000D01*
X113700881Y-55521276D01*
X114190548Y-55161088D01*
X114550849Y-54497118D01*
X114774694Y-53775615D01*
X114853480Y-53024305D01*
X114784178Y-52272062D01*
X114569452Y-51547792D01*
X114217555Y-50879330D01*
X114190548Y-50838912D01*
X113700881Y-50478724D01*
X111179605Y-53000000D01*
X110820395Y-53000000D01*
X108299119Y-50478724D01*
X107809452Y-50838912D01*
X107449151Y-51502882D01*
X107225306Y-52224385D01*
X107146520Y-52975695D01*
X74849002Y-52975695D01*
X74784178Y-52272062D01*
X74569452Y-51547792D01*
X74217555Y-50879330D01*
X74190548Y-50838912D01*
X73700881Y-50478724D01*
X71179605Y-53000000D01*
X70820395Y-53000000D01*
X68299119Y-50478724D01*
X67809452Y-50838912D01*
X67449151Y-51502882D01*
X67225306Y-52224385D01*
X67146520Y-52975695D01*
X55127000Y-52975695D01*
X55127000Y-50299119D01*
X68478724Y-50299119D01*
X71000000Y-52820395D01*
X73521276Y-50299119D01*
X108478724Y-50299119D01*
X111000000Y-52820395D01*
X113521276Y-50299119D01*
X113161088Y-49809452D01*
X112497118Y-49449151D01*
X111775615Y-49225306D01*
X111024305Y-49146520D01*
X110272062Y-49215822D01*
X109547792Y-49430548D01*
X108879330Y-49782445D01*
X108838912Y-49809452D01*
X108478724Y-50299119D01*
X73521276Y-50299119D01*
X73161088Y-49809452D01*
X72497118Y-49449151D01*
X71775615Y-49225306D01*
X71024305Y-49146520D01*
X70272062Y-49215822D01*
X69547792Y-49430548D01*
X68879330Y-49782445D01*
X68838912Y-49809452D01*
X68478724Y-50299119D01*
X55127000Y-50299119D01*
X55127000Y-48029966D01*
X55316964Y-48010000D01*
X61834877Y-48010000D01*
X61870262Y-48006515D01*
X61883246Y-48006515D01*
X61893105Y-48005478D01*
X62087055Y-47983723D01*
X62149984Y-47970347D01*
X62213127Y-47957844D01*
X62222597Y-47954913D01*
X62408627Y-47895899D01*
X62467690Y-47870584D01*
X62527268Y-47846028D01*
X62535988Y-47841312D01*
X62593777Y-47809542D01*
X62630795Y-47834277D01*
X62791855Y-47900990D01*
X62962835Y-47935000D01*
X63137165Y-47935000D01*
X63308145Y-47900990D01*
X63425000Y-47852587D01*
X63541855Y-47900990D01*
X63712835Y-47935000D01*
X63887165Y-47935000D01*
X64058145Y-47900990D01*
X64175000Y-47852587D01*
X64291855Y-47900990D01*
X64462835Y-47935000D01*
X64637165Y-47935000D01*
X64808145Y-47900990D01*
X64969205Y-47834277D01*
X65006483Y-47809369D01*
X65085606Y-47851439D01*
X65145076Y-47875951D01*
X65204248Y-47901312D01*
X65213718Y-47904243D01*
X65400554Y-47960652D01*
X65463684Y-47973152D01*
X65526623Y-47986530D01*
X65536481Y-47987566D01*
X65730209Y-48006561D01*
X65765123Y-48010000D01*
X128334877Y-48010000D01*
X128370262Y-48006515D01*
X128383246Y-48006515D01*
X128393105Y-48005478D01*
X128587055Y-47983723D01*
X128649984Y-47970347D01*
X128713127Y-47957844D01*
X128722597Y-47954913D01*
X128908627Y-47895899D01*
X128967690Y-47870584D01*
X129027268Y-47846028D01*
X129035988Y-47841312D01*
X129093777Y-47809542D01*
X129130795Y-47834277D01*
X129291855Y-47900990D01*
X129462835Y-47935000D01*
X129637165Y-47935000D01*
X129808145Y-47900990D01*
X129925000Y-47852587D01*
X130041855Y-47900990D01*
X130212835Y-47935000D01*
X130387165Y-47935000D01*
X130558145Y-47900990D01*
X130675000Y-47852587D01*
X130791855Y-47900990D01*
X130962835Y-47935000D01*
X131137165Y-47935000D01*
X131308145Y-47900990D01*
X131469205Y-47834277D01*
X131506483Y-47809369D01*
X131585606Y-47851439D01*
X131645076Y-47875951D01*
X131704248Y-47901312D01*
X131713718Y-47904243D01*
X131900554Y-47960652D01*
X131963684Y-47973152D01*
X132026623Y-47986530D01*
X132036481Y-47987566D01*
X132230209Y-48006561D01*
X132265123Y-48010000D01*
X214834877Y-48010000D01*
X214870262Y-48006515D01*
X214883246Y-48006515D01*
X214893105Y-48005478D01*
X215087055Y-47983723D01*
X215149984Y-47970347D01*
X215213127Y-47957844D01*
X215222597Y-47954913D01*
X215408627Y-47895899D01*
X215467690Y-47870584D01*
X215527268Y-47846028D01*
X215535988Y-47841312D01*
X215593777Y-47809542D01*
X215630795Y-47834277D01*
X215791855Y-47900990D01*
X215962835Y-47935000D01*
X216137165Y-47935000D01*
X216308145Y-47900990D01*
X216425000Y-47852587D01*
X216541855Y-47900990D01*
X216712835Y-47935000D01*
X216887165Y-47935000D01*
X217058145Y-47900990D01*
X217175000Y-47852587D01*
X217291855Y-47900990D01*
X217462835Y-47935000D01*
X217637165Y-47935000D01*
X217808145Y-47900990D01*
X217969205Y-47834277D01*
X218006483Y-47809369D01*
X218085606Y-47851439D01*
M02*
