%TF.GenerationSoftware,KiCad,Pcbnew,(5.1.5)-3*%
%TF.CreationDate,2020-09-07T19:44:54+02:00*%
%TF.ProjectId,fusion,66757369-6f6e-42e6-9b69-6361645f7063,rev?*%
%TF.SameCoordinates,Original*%
%TF.FileFunction,Soldermask,Top*%
%TF.FilePolarity,Negative*%
%FSLAX46Y46*%
G04 Gerber Fmt 4.6, Leading zero omitted, Abs format (unit mm)*
G04 Created by KiCad (PCBNEW (5.1.5)-3) date 2020-09-07 19:44:54*
%MOMM*%
%LPD*%
G04 APERTURE LIST*
%ADD10C,0.100000*%
G04 APERTURE END LIST*
D10*
G36*
X278835787Y-164385462D02*
G01*
X278835790Y-164385463D01*
X278835789Y-164385463D01*
X279482029Y-164653144D01*
X280063631Y-165041758D01*
X280558242Y-165536369D01*
X280946856Y-166117971D01*
X280946856Y-166117972D01*
X281214538Y-166764213D01*
X281351000Y-167450256D01*
X281351000Y-168149744D01*
X281214538Y-168835787D01*
X281214537Y-168835789D01*
X280946856Y-169482029D01*
X280558242Y-170063631D01*
X280063631Y-170558242D01*
X279482029Y-170946856D01*
X279025068Y-171136135D01*
X278835787Y-171214538D01*
X278149744Y-171351000D01*
X277450256Y-171351000D01*
X276764213Y-171214538D01*
X276574932Y-171136135D01*
X276117971Y-170946856D01*
X275536369Y-170558242D01*
X275041758Y-170063631D01*
X274653144Y-169482029D01*
X274385463Y-168835789D01*
X274385462Y-168835787D01*
X274249000Y-168149744D01*
X274249000Y-167450256D01*
X274385462Y-166764213D01*
X274653144Y-166117972D01*
X274653144Y-166117971D01*
X275041758Y-165536369D01*
X275536369Y-165041758D01*
X276117971Y-164653144D01*
X276764211Y-164385463D01*
X276764210Y-164385463D01*
X276764213Y-164385462D01*
X277450256Y-164249000D01*
X278149744Y-164249000D01*
X278835787Y-164385462D01*
G37*
G36*
X39835787Y-164385462D02*
G01*
X39835790Y-164385463D01*
X39835789Y-164385463D01*
X40482029Y-164653144D01*
X41063631Y-165041758D01*
X41558242Y-165536369D01*
X41946856Y-166117971D01*
X41946856Y-166117972D01*
X42214538Y-166764213D01*
X42351000Y-167450256D01*
X42351000Y-168149744D01*
X42214538Y-168835787D01*
X42214537Y-168835789D01*
X41946856Y-169482029D01*
X41558242Y-170063631D01*
X41063631Y-170558242D01*
X40482029Y-170946856D01*
X40025068Y-171136135D01*
X39835787Y-171214538D01*
X39149744Y-171351000D01*
X38450256Y-171351000D01*
X37764213Y-171214538D01*
X37574932Y-171136135D01*
X37117971Y-170946856D01*
X36536369Y-170558242D01*
X36041758Y-170063631D01*
X35653144Y-169482029D01*
X35385463Y-168835789D01*
X35385462Y-168835787D01*
X35249000Y-168149744D01*
X35249000Y-167450256D01*
X35385462Y-166764213D01*
X35653144Y-166117972D01*
X35653144Y-166117971D01*
X36041758Y-165536369D01*
X36536369Y-165041758D01*
X37117971Y-164653144D01*
X37764211Y-164385463D01*
X37764210Y-164385463D01*
X37764213Y-164385462D01*
X38450256Y-164249000D01*
X39149744Y-164249000D01*
X39835787Y-164385462D01*
G37*
G36*
X214637797Y-144760567D02*
G01*
X214692575Y-144783257D01*
X214692577Y-144783258D01*
X214741876Y-144816198D01*
X214783802Y-144858124D01*
X214816742Y-144907423D01*
X214821067Y-144913896D01*
X214836612Y-144932838D01*
X214855554Y-144948383D01*
X214877165Y-144959934D01*
X214900614Y-144967047D01*
X214925000Y-144969449D01*
X214949386Y-144967047D01*
X214972835Y-144959934D01*
X214994446Y-144948383D01*
X215013388Y-144932838D01*
X215028933Y-144913896D01*
X215033258Y-144907423D01*
X215066198Y-144858124D01*
X215108124Y-144816198D01*
X215157423Y-144783258D01*
X215157425Y-144783257D01*
X215212203Y-144760567D01*
X215270353Y-144749000D01*
X215329647Y-144749000D01*
X215387797Y-144760567D01*
X215442575Y-144783257D01*
X215442577Y-144783258D01*
X215491876Y-144816198D01*
X215533802Y-144858124D01*
X215566742Y-144907423D01*
X215571067Y-144913896D01*
X215586612Y-144932838D01*
X215605554Y-144948383D01*
X215627165Y-144959934D01*
X215650614Y-144967047D01*
X215675000Y-144969449D01*
X215699386Y-144967047D01*
X215722835Y-144959934D01*
X215744446Y-144948383D01*
X215763388Y-144932838D01*
X215778933Y-144913896D01*
X215783258Y-144907423D01*
X215816198Y-144858124D01*
X215858124Y-144816198D01*
X215907423Y-144783258D01*
X215907425Y-144783257D01*
X215962203Y-144760567D01*
X216020353Y-144749000D01*
X216079647Y-144749000D01*
X216137797Y-144760567D01*
X216192575Y-144783257D01*
X216192577Y-144783258D01*
X216241876Y-144816198D01*
X216283802Y-144858124D01*
X216316742Y-144907423D01*
X216316743Y-144907425D01*
X216339433Y-144962203D01*
X216351000Y-145020353D01*
X216351000Y-145079647D01*
X216339433Y-145137797D01*
X216319423Y-145186104D01*
X216316742Y-145192577D01*
X216283802Y-145241876D01*
X216241876Y-145283802D01*
X216192577Y-145316742D01*
X216192576Y-145316743D01*
X216192575Y-145316743D01*
X216137797Y-145339433D01*
X216079647Y-145351000D01*
X216020353Y-145351000D01*
X215962203Y-145339433D01*
X215907425Y-145316743D01*
X215907424Y-145316743D01*
X215907423Y-145316742D01*
X215858124Y-145283802D01*
X215816198Y-145241876D01*
X215783258Y-145192577D01*
X215783257Y-145192575D01*
X215778933Y-145186104D01*
X215763388Y-145167162D01*
X215744446Y-145151617D01*
X215722835Y-145140066D01*
X215699386Y-145132953D01*
X215675000Y-145130551D01*
X215650614Y-145132953D01*
X215627165Y-145140066D01*
X215605554Y-145151617D01*
X215586612Y-145167162D01*
X215571067Y-145186104D01*
X215566743Y-145192575D01*
X215566742Y-145192577D01*
X215533802Y-145241876D01*
X215491876Y-145283802D01*
X215442577Y-145316742D01*
X215442576Y-145316743D01*
X215442575Y-145316743D01*
X215387797Y-145339433D01*
X215329647Y-145351000D01*
X215270353Y-145351000D01*
X215212203Y-145339433D01*
X215157425Y-145316743D01*
X215157424Y-145316743D01*
X215157423Y-145316742D01*
X215108124Y-145283802D01*
X215066198Y-145241876D01*
X215033258Y-145192577D01*
X215033257Y-145192575D01*
X215028933Y-145186104D01*
X215013388Y-145167162D01*
X214994446Y-145151617D01*
X214972835Y-145140066D01*
X214949386Y-145132953D01*
X214925000Y-145130551D01*
X214900614Y-145132953D01*
X214877165Y-145140066D01*
X214855554Y-145151617D01*
X214836612Y-145167162D01*
X214821067Y-145186104D01*
X214816743Y-145192575D01*
X214816742Y-145192577D01*
X214783802Y-145241876D01*
X214741876Y-145283802D01*
X214692577Y-145316742D01*
X214692576Y-145316743D01*
X214692575Y-145316743D01*
X214637797Y-145339433D01*
X214579647Y-145351000D01*
X214520353Y-145351000D01*
X214462203Y-145339433D01*
X214407425Y-145316743D01*
X214407424Y-145316743D01*
X214407423Y-145316742D01*
X214358124Y-145283802D01*
X214316198Y-145241876D01*
X214283258Y-145192577D01*
X214280577Y-145186104D01*
X214260567Y-145137797D01*
X214249000Y-145079647D01*
X214249000Y-145020353D01*
X214260567Y-144962203D01*
X214283257Y-144907425D01*
X214283258Y-144907423D01*
X214316198Y-144858124D01*
X214358124Y-144816198D01*
X214407423Y-144783258D01*
X214407425Y-144783257D01*
X214462203Y-144760567D01*
X214520353Y-144749000D01*
X214579647Y-144749000D01*
X214637797Y-144760567D01*
G37*
G36*
X133637797Y-144760567D02*
G01*
X133692575Y-144783257D01*
X133692577Y-144783258D01*
X133741876Y-144816198D01*
X133783802Y-144858124D01*
X133816742Y-144907423D01*
X133821067Y-144913896D01*
X133836612Y-144932838D01*
X133855554Y-144948383D01*
X133877165Y-144959934D01*
X133900614Y-144967047D01*
X133925000Y-144969449D01*
X133949386Y-144967047D01*
X133972835Y-144959934D01*
X133994446Y-144948383D01*
X134013388Y-144932838D01*
X134028933Y-144913896D01*
X134033258Y-144907423D01*
X134066198Y-144858124D01*
X134108124Y-144816198D01*
X134157423Y-144783258D01*
X134157425Y-144783257D01*
X134212203Y-144760567D01*
X134270353Y-144749000D01*
X134329647Y-144749000D01*
X134387797Y-144760567D01*
X134442575Y-144783257D01*
X134442577Y-144783258D01*
X134491876Y-144816198D01*
X134533802Y-144858124D01*
X134566742Y-144907423D01*
X134571067Y-144913896D01*
X134586612Y-144932838D01*
X134605554Y-144948383D01*
X134627165Y-144959934D01*
X134650614Y-144967047D01*
X134675000Y-144969449D01*
X134699386Y-144967047D01*
X134722835Y-144959934D01*
X134744446Y-144948383D01*
X134763388Y-144932838D01*
X134778933Y-144913896D01*
X134783258Y-144907423D01*
X134816198Y-144858124D01*
X134858124Y-144816198D01*
X134907423Y-144783258D01*
X134907425Y-144783257D01*
X134962203Y-144760567D01*
X135020353Y-144749000D01*
X135079647Y-144749000D01*
X135137797Y-144760567D01*
X135192575Y-144783257D01*
X135192577Y-144783258D01*
X135241876Y-144816198D01*
X135283802Y-144858124D01*
X135316742Y-144907423D01*
X135316743Y-144907425D01*
X135339433Y-144962203D01*
X135351000Y-145020353D01*
X135351000Y-145079647D01*
X135339433Y-145137797D01*
X135319423Y-145186104D01*
X135316742Y-145192577D01*
X135283802Y-145241876D01*
X135241876Y-145283802D01*
X135192577Y-145316742D01*
X135192576Y-145316743D01*
X135192575Y-145316743D01*
X135137797Y-145339433D01*
X135079647Y-145351000D01*
X135020353Y-145351000D01*
X134962203Y-145339433D01*
X134907425Y-145316743D01*
X134907424Y-145316743D01*
X134907423Y-145316742D01*
X134858124Y-145283802D01*
X134816198Y-145241876D01*
X134783258Y-145192577D01*
X134783257Y-145192575D01*
X134778933Y-145186104D01*
X134763388Y-145167162D01*
X134744446Y-145151617D01*
X134722835Y-145140066D01*
X134699386Y-145132953D01*
X134675000Y-145130551D01*
X134650614Y-145132953D01*
X134627165Y-145140066D01*
X134605554Y-145151617D01*
X134586612Y-145167162D01*
X134571067Y-145186104D01*
X134566743Y-145192575D01*
X134566742Y-145192577D01*
X134533802Y-145241876D01*
X134491876Y-145283802D01*
X134442577Y-145316742D01*
X134442576Y-145316743D01*
X134442575Y-145316743D01*
X134387797Y-145339433D01*
X134329647Y-145351000D01*
X134270353Y-145351000D01*
X134212203Y-145339433D01*
X134157425Y-145316743D01*
X134157424Y-145316743D01*
X134157423Y-145316742D01*
X134108124Y-145283802D01*
X134066198Y-145241876D01*
X134033258Y-145192577D01*
X134033257Y-145192575D01*
X134028933Y-145186104D01*
X134013388Y-145167162D01*
X133994446Y-145151617D01*
X133972835Y-145140066D01*
X133949386Y-145132953D01*
X133925000Y-145130551D01*
X133900614Y-145132953D01*
X133877165Y-145140066D01*
X133855554Y-145151617D01*
X133836612Y-145167162D01*
X133821067Y-145186104D01*
X133816743Y-145192575D01*
X133816742Y-145192577D01*
X133783802Y-145241876D01*
X133741876Y-145283802D01*
X133692577Y-145316742D01*
X133692576Y-145316743D01*
X133692575Y-145316743D01*
X133637797Y-145339433D01*
X133579647Y-145351000D01*
X133520353Y-145351000D01*
X133462203Y-145339433D01*
X133407425Y-145316743D01*
X133407424Y-145316743D01*
X133407423Y-145316742D01*
X133358124Y-145283802D01*
X133316198Y-145241876D01*
X133283258Y-145192577D01*
X133280577Y-145186104D01*
X133260567Y-145137797D01*
X133249000Y-145079647D01*
X133249000Y-145020353D01*
X133260567Y-144962203D01*
X133283257Y-144907425D01*
X133283258Y-144907423D01*
X133316198Y-144858124D01*
X133358124Y-144816198D01*
X133407423Y-144783258D01*
X133407425Y-144783257D01*
X133462203Y-144760567D01*
X133520353Y-144749000D01*
X133579647Y-144749000D01*
X133637797Y-144760567D01*
G37*
G36*
X65637797Y-144760567D02*
G01*
X65692575Y-144783257D01*
X65692577Y-144783258D01*
X65741876Y-144816198D01*
X65783802Y-144858124D01*
X65816742Y-144907423D01*
X65821067Y-144913896D01*
X65836612Y-144932838D01*
X65855554Y-144948383D01*
X65877165Y-144959934D01*
X65900614Y-144967047D01*
X65925000Y-144969449D01*
X65949386Y-144967047D01*
X65972835Y-144959934D01*
X65994446Y-144948383D01*
X66013388Y-144932838D01*
X66028933Y-144913896D01*
X66033258Y-144907423D01*
X66066198Y-144858124D01*
X66108124Y-144816198D01*
X66157423Y-144783258D01*
X66157425Y-144783257D01*
X66212203Y-144760567D01*
X66270353Y-144749000D01*
X66329647Y-144749000D01*
X66387797Y-144760567D01*
X66442575Y-144783257D01*
X66442577Y-144783258D01*
X66491876Y-144816198D01*
X66533802Y-144858124D01*
X66566742Y-144907423D01*
X66571067Y-144913896D01*
X66586612Y-144932838D01*
X66605554Y-144948383D01*
X66627165Y-144959934D01*
X66650614Y-144967047D01*
X66675000Y-144969449D01*
X66699386Y-144967047D01*
X66722835Y-144959934D01*
X66744446Y-144948383D01*
X66763388Y-144932838D01*
X66778933Y-144913896D01*
X66783258Y-144907423D01*
X66816198Y-144858124D01*
X66858124Y-144816198D01*
X66907423Y-144783258D01*
X66907425Y-144783257D01*
X66962203Y-144760567D01*
X67020353Y-144749000D01*
X67079647Y-144749000D01*
X67137797Y-144760567D01*
X67192575Y-144783257D01*
X67192577Y-144783258D01*
X67241876Y-144816198D01*
X67283802Y-144858124D01*
X67316742Y-144907423D01*
X67316743Y-144907425D01*
X67339433Y-144962203D01*
X67351000Y-145020353D01*
X67351000Y-145079647D01*
X67339433Y-145137797D01*
X67319423Y-145186104D01*
X67316742Y-145192577D01*
X67283802Y-145241876D01*
X67241876Y-145283802D01*
X67192577Y-145316742D01*
X67192576Y-145316743D01*
X67192575Y-145316743D01*
X67137797Y-145339433D01*
X67079647Y-145351000D01*
X67020353Y-145351000D01*
X66962203Y-145339433D01*
X66907425Y-145316743D01*
X66907424Y-145316743D01*
X66907423Y-145316742D01*
X66858124Y-145283802D01*
X66816198Y-145241876D01*
X66783258Y-145192577D01*
X66783257Y-145192575D01*
X66778933Y-145186104D01*
X66763388Y-145167162D01*
X66744446Y-145151617D01*
X66722835Y-145140066D01*
X66699386Y-145132953D01*
X66675000Y-145130551D01*
X66650614Y-145132953D01*
X66627165Y-145140066D01*
X66605554Y-145151617D01*
X66586612Y-145167162D01*
X66571067Y-145186104D01*
X66566743Y-145192575D01*
X66566742Y-145192577D01*
X66533802Y-145241876D01*
X66491876Y-145283802D01*
X66442577Y-145316742D01*
X66442576Y-145316743D01*
X66442575Y-145316743D01*
X66387797Y-145339433D01*
X66329647Y-145351000D01*
X66270353Y-145351000D01*
X66212203Y-145339433D01*
X66157425Y-145316743D01*
X66157424Y-145316743D01*
X66157423Y-145316742D01*
X66108124Y-145283802D01*
X66066198Y-145241876D01*
X66033258Y-145192577D01*
X66033257Y-145192575D01*
X66028933Y-145186104D01*
X66013388Y-145167162D01*
X65994446Y-145151617D01*
X65972835Y-145140066D01*
X65949386Y-145132953D01*
X65925000Y-145130551D01*
X65900614Y-145132953D01*
X65877165Y-145140066D01*
X65855554Y-145151617D01*
X65836612Y-145167162D01*
X65821067Y-145186104D01*
X65816743Y-145192575D01*
X65816742Y-145192577D01*
X65783802Y-145241876D01*
X65741876Y-145283802D01*
X65692577Y-145316742D01*
X65692576Y-145316743D01*
X65692575Y-145316743D01*
X65637797Y-145339433D01*
X65579647Y-145351000D01*
X65520353Y-145351000D01*
X65462203Y-145339433D01*
X65407425Y-145316743D01*
X65407424Y-145316743D01*
X65407423Y-145316742D01*
X65358124Y-145283802D01*
X65316198Y-145241876D01*
X65283258Y-145192577D01*
X65280577Y-145186104D01*
X65260567Y-145137797D01*
X65249000Y-145079647D01*
X65249000Y-145020353D01*
X65260567Y-144962203D01*
X65283257Y-144907425D01*
X65283258Y-144907423D01*
X65316198Y-144858124D01*
X65358124Y-144816198D01*
X65407423Y-144783258D01*
X65407425Y-144783257D01*
X65462203Y-144760567D01*
X65520353Y-144749000D01*
X65579647Y-144749000D01*
X65637797Y-144760567D01*
G37*
G36*
X214637797Y-143260567D02*
G01*
X214692575Y-143283257D01*
X214692577Y-143283258D01*
X214741876Y-143316198D01*
X214783802Y-143358124D01*
X214816742Y-143407423D01*
X214821067Y-143413896D01*
X214836612Y-143432838D01*
X214855554Y-143448383D01*
X214877165Y-143459934D01*
X214900614Y-143467047D01*
X214925000Y-143469449D01*
X214949386Y-143467047D01*
X214972835Y-143459934D01*
X214994446Y-143448383D01*
X215013388Y-143432838D01*
X215028933Y-143413896D01*
X215033258Y-143407423D01*
X215066198Y-143358124D01*
X215108124Y-143316198D01*
X215157423Y-143283258D01*
X215157425Y-143283257D01*
X215212203Y-143260567D01*
X215270353Y-143249000D01*
X215329647Y-143249000D01*
X215387797Y-143260567D01*
X215442575Y-143283257D01*
X215442577Y-143283258D01*
X215491876Y-143316198D01*
X215533802Y-143358124D01*
X215566742Y-143407423D01*
X215571067Y-143413896D01*
X215586612Y-143432838D01*
X215605554Y-143448383D01*
X215627165Y-143459934D01*
X215650614Y-143467047D01*
X215675000Y-143469449D01*
X215699386Y-143467047D01*
X215722835Y-143459934D01*
X215744446Y-143448383D01*
X215763388Y-143432838D01*
X215778933Y-143413896D01*
X215783258Y-143407423D01*
X215816198Y-143358124D01*
X215858124Y-143316198D01*
X215907423Y-143283258D01*
X215907425Y-143283257D01*
X215962203Y-143260567D01*
X216020353Y-143249000D01*
X216079647Y-143249000D01*
X216137797Y-143260567D01*
X216192575Y-143283257D01*
X216192577Y-143283258D01*
X216241876Y-143316198D01*
X216283802Y-143358124D01*
X216316742Y-143407423D01*
X216316743Y-143407425D01*
X216339433Y-143462203D01*
X216351000Y-143520353D01*
X216351000Y-143579647D01*
X216339433Y-143637797D01*
X216319423Y-143686104D01*
X216316742Y-143692577D01*
X216283802Y-143741876D01*
X216241876Y-143783802D01*
X216192577Y-143816742D01*
X216192576Y-143816743D01*
X216192575Y-143816743D01*
X216137797Y-143839433D01*
X216079647Y-143851000D01*
X216020353Y-143851000D01*
X215962203Y-143839433D01*
X215907425Y-143816743D01*
X215907424Y-143816743D01*
X215907423Y-143816742D01*
X215858124Y-143783802D01*
X215816198Y-143741876D01*
X215783258Y-143692577D01*
X215783257Y-143692575D01*
X215778933Y-143686104D01*
X215763388Y-143667162D01*
X215744446Y-143651617D01*
X215722835Y-143640066D01*
X215699386Y-143632953D01*
X215675000Y-143630551D01*
X215650614Y-143632953D01*
X215627165Y-143640066D01*
X215605554Y-143651617D01*
X215586612Y-143667162D01*
X215571067Y-143686104D01*
X215566743Y-143692575D01*
X215566742Y-143692577D01*
X215533802Y-143741876D01*
X215491876Y-143783802D01*
X215442577Y-143816742D01*
X215442576Y-143816743D01*
X215442575Y-143816743D01*
X215387797Y-143839433D01*
X215329647Y-143851000D01*
X215270353Y-143851000D01*
X215212203Y-143839433D01*
X215157425Y-143816743D01*
X215157424Y-143816743D01*
X215157423Y-143816742D01*
X215108124Y-143783802D01*
X215066198Y-143741876D01*
X215033258Y-143692577D01*
X215033257Y-143692575D01*
X215028933Y-143686104D01*
X215013388Y-143667162D01*
X214994446Y-143651617D01*
X214972835Y-143640066D01*
X214949386Y-143632953D01*
X214925000Y-143630551D01*
X214900614Y-143632953D01*
X214877165Y-143640066D01*
X214855554Y-143651617D01*
X214836612Y-143667162D01*
X214821067Y-143686104D01*
X214816743Y-143692575D01*
X214816742Y-143692577D01*
X214783802Y-143741876D01*
X214741876Y-143783802D01*
X214692577Y-143816742D01*
X214692576Y-143816743D01*
X214692575Y-143816743D01*
X214637797Y-143839433D01*
X214579647Y-143851000D01*
X214520353Y-143851000D01*
X214462203Y-143839433D01*
X214407425Y-143816743D01*
X214407424Y-143816743D01*
X214407423Y-143816742D01*
X214358124Y-143783802D01*
X214316198Y-143741876D01*
X214283258Y-143692577D01*
X214280577Y-143686104D01*
X214260567Y-143637797D01*
X214249000Y-143579647D01*
X214249000Y-143520353D01*
X214260567Y-143462203D01*
X214283257Y-143407425D01*
X214283258Y-143407423D01*
X214316198Y-143358124D01*
X214358124Y-143316198D01*
X214407423Y-143283258D01*
X214407425Y-143283257D01*
X214462203Y-143260567D01*
X214520353Y-143249000D01*
X214579647Y-143249000D01*
X214637797Y-143260567D01*
G37*
G36*
X133637797Y-143260567D02*
G01*
X133692575Y-143283257D01*
X133692577Y-143283258D01*
X133741876Y-143316198D01*
X133783802Y-143358124D01*
X133816742Y-143407423D01*
X133821067Y-143413896D01*
X133836612Y-143432838D01*
X133855554Y-143448383D01*
X133877165Y-143459934D01*
X133900614Y-143467047D01*
X133925000Y-143469449D01*
X133949386Y-143467047D01*
X133972835Y-143459934D01*
X133994446Y-143448383D01*
X134013388Y-143432838D01*
X134028933Y-143413896D01*
X134033258Y-143407423D01*
X134066198Y-143358124D01*
X134108124Y-143316198D01*
X134157423Y-143283258D01*
X134157425Y-143283257D01*
X134212203Y-143260567D01*
X134270353Y-143249000D01*
X134329647Y-143249000D01*
X134387797Y-143260567D01*
X134442575Y-143283257D01*
X134442577Y-143283258D01*
X134491876Y-143316198D01*
X134533802Y-143358124D01*
X134566742Y-143407423D01*
X134571067Y-143413896D01*
X134586612Y-143432838D01*
X134605554Y-143448383D01*
X134627165Y-143459934D01*
X134650614Y-143467047D01*
X134675000Y-143469449D01*
X134699386Y-143467047D01*
X134722835Y-143459934D01*
X134744446Y-143448383D01*
X134763388Y-143432838D01*
X134778933Y-143413896D01*
X134783258Y-143407423D01*
X134816198Y-143358124D01*
X134858124Y-143316198D01*
X134907423Y-143283258D01*
X134907425Y-143283257D01*
X134962203Y-143260567D01*
X135020353Y-143249000D01*
X135079647Y-143249000D01*
X135137797Y-143260567D01*
X135192575Y-143283257D01*
X135192577Y-143283258D01*
X135241876Y-143316198D01*
X135283802Y-143358124D01*
X135316742Y-143407423D01*
X135316743Y-143407425D01*
X135339433Y-143462203D01*
X135351000Y-143520353D01*
X135351000Y-143579647D01*
X135339433Y-143637797D01*
X135319423Y-143686104D01*
X135316742Y-143692577D01*
X135283802Y-143741876D01*
X135241876Y-143783802D01*
X135192577Y-143816742D01*
X135192576Y-143816743D01*
X135192575Y-143816743D01*
X135137797Y-143839433D01*
X135079647Y-143851000D01*
X135020353Y-143851000D01*
X134962203Y-143839433D01*
X134907425Y-143816743D01*
X134907424Y-143816743D01*
X134907423Y-143816742D01*
X134858124Y-143783802D01*
X134816198Y-143741876D01*
X134783258Y-143692577D01*
X134783257Y-143692575D01*
X134778933Y-143686104D01*
X134763388Y-143667162D01*
X134744446Y-143651617D01*
X134722835Y-143640066D01*
X134699386Y-143632953D01*
X134675000Y-143630551D01*
X134650614Y-143632953D01*
X134627165Y-143640066D01*
X134605554Y-143651617D01*
X134586612Y-143667162D01*
X134571067Y-143686104D01*
X134566743Y-143692575D01*
X134566742Y-143692577D01*
X134533802Y-143741876D01*
X134491876Y-143783802D01*
X134442577Y-143816742D01*
X134442576Y-143816743D01*
X134442575Y-143816743D01*
X134387797Y-143839433D01*
X134329647Y-143851000D01*
X134270353Y-143851000D01*
X134212203Y-143839433D01*
X134157425Y-143816743D01*
X134157424Y-143816743D01*
X134157423Y-143816742D01*
X134108124Y-143783802D01*
X134066198Y-143741876D01*
X134033258Y-143692577D01*
X134033257Y-143692575D01*
X134028933Y-143686104D01*
X134013388Y-143667162D01*
X133994446Y-143651617D01*
X133972835Y-143640066D01*
X133949386Y-143632953D01*
X133925000Y-143630551D01*
X133900614Y-143632953D01*
X133877165Y-143640066D01*
X133855554Y-143651617D01*
X133836612Y-143667162D01*
X133821067Y-143686104D01*
X133816743Y-143692575D01*
X133816742Y-143692577D01*
X133783802Y-143741876D01*
X133741876Y-143783802D01*
X133692577Y-143816742D01*
X133692576Y-143816743D01*
X133692575Y-143816743D01*
X133637797Y-143839433D01*
X133579647Y-143851000D01*
X133520353Y-143851000D01*
X133462203Y-143839433D01*
X133407425Y-143816743D01*
X133407424Y-143816743D01*
X133407423Y-143816742D01*
X133358124Y-143783802D01*
X133316198Y-143741876D01*
X133283258Y-143692577D01*
X133280577Y-143686104D01*
X133260567Y-143637797D01*
X133249000Y-143579647D01*
X133249000Y-143520353D01*
X133260567Y-143462203D01*
X133283257Y-143407425D01*
X133283258Y-143407423D01*
X133316198Y-143358124D01*
X133358124Y-143316198D01*
X133407423Y-143283258D01*
X133407425Y-143283257D01*
X133462203Y-143260567D01*
X133520353Y-143249000D01*
X133579647Y-143249000D01*
X133637797Y-143260567D01*
G37*
G36*
X65637797Y-143260567D02*
G01*
X65692575Y-143283257D01*
X65692577Y-143283258D01*
X65741876Y-143316198D01*
X65783802Y-143358124D01*
X65816742Y-143407423D01*
X65821067Y-143413896D01*
X65836612Y-143432838D01*
X65855554Y-143448383D01*
X65877165Y-143459934D01*
X65900614Y-143467047D01*
X65925000Y-143469449D01*
X65949386Y-143467047D01*
X65972835Y-143459934D01*
X65994446Y-143448383D01*
X66013388Y-143432838D01*
X66028933Y-143413896D01*
X66033258Y-143407423D01*
X66066198Y-143358124D01*
X66108124Y-143316198D01*
X66157423Y-143283258D01*
X66157425Y-143283257D01*
X66212203Y-143260567D01*
X66270353Y-143249000D01*
X66329647Y-143249000D01*
X66387797Y-143260567D01*
X66442575Y-143283257D01*
X66442577Y-143283258D01*
X66491876Y-143316198D01*
X66533802Y-143358124D01*
X66566742Y-143407423D01*
X66571067Y-143413896D01*
X66586612Y-143432838D01*
X66605554Y-143448383D01*
X66627165Y-143459934D01*
X66650614Y-143467047D01*
X66675000Y-143469449D01*
X66699386Y-143467047D01*
X66722835Y-143459934D01*
X66744446Y-143448383D01*
X66763388Y-143432838D01*
X66778933Y-143413896D01*
X66783258Y-143407423D01*
X66816198Y-143358124D01*
X66858124Y-143316198D01*
X66907423Y-143283258D01*
X66907425Y-143283257D01*
X66962203Y-143260567D01*
X67020353Y-143249000D01*
X67079647Y-143249000D01*
X67137797Y-143260567D01*
X67192575Y-143283257D01*
X67192577Y-143283258D01*
X67241876Y-143316198D01*
X67283802Y-143358124D01*
X67316742Y-143407423D01*
X67316743Y-143407425D01*
X67339433Y-143462203D01*
X67351000Y-143520353D01*
X67351000Y-143579647D01*
X67339433Y-143637797D01*
X67319423Y-143686104D01*
X67316742Y-143692577D01*
X67283802Y-143741876D01*
X67241876Y-143783802D01*
X67192577Y-143816742D01*
X67192576Y-143816743D01*
X67192575Y-143816743D01*
X67137797Y-143839433D01*
X67079647Y-143851000D01*
X67020353Y-143851000D01*
X66962203Y-143839433D01*
X66907425Y-143816743D01*
X66907424Y-143816743D01*
X66907423Y-143816742D01*
X66858124Y-143783802D01*
X66816198Y-143741876D01*
X66783258Y-143692577D01*
X66783257Y-143692575D01*
X66778933Y-143686104D01*
X66763388Y-143667162D01*
X66744446Y-143651617D01*
X66722835Y-143640066D01*
X66699386Y-143632953D01*
X66675000Y-143630551D01*
X66650614Y-143632953D01*
X66627165Y-143640066D01*
X66605554Y-143651617D01*
X66586612Y-143667162D01*
X66571067Y-143686104D01*
X66566743Y-143692575D01*
X66566742Y-143692577D01*
X66533802Y-143741876D01*
X66491876Y-143783802D01*
X66442577Y-143816742D01*
X66442576Y-143816743D01*
X66442575Y-143816743D01*
X66387797Y-143839433D01*
X66329647Y-143851000D01*
X66270353Y-143851000D01*
X66212203Y-143839433D01*
X66157425Y-143816743D01*
X66157424Y-143816743D01*
X66157423Y-143816742D01*
X66108124Y-143783802D01*
X66066198Y-143741876D01*
X66033258Y-143692577D01*
X66033257Y-143692575D01*
X66028933Y-143686104D01*
X66013388Y-143667162D01*
X65994446Y-143651617D01*
X65972835Y-143640066D01*
X65949386Y-143632953D01*
X65925000Y-143630551D01*
X65900614Y-143632953D01*
X65877165Y-143640066D01*
X65855554Y-143651617D01*
X65836612Y-143667162D01*
X65821067Y-143686104D01*
X65816743Y-143692575D01*
X65816742Y-143692577D01*
X65783802Y-143741876D01*
X65741876Y-143783802D01*
X65692577Y-143816742D01*
X65692576Y-143816743D01*
X65692575Y-143816743D01*
X65637797Y-143839433D01*
X65579647Y-143851000D01*
X65520353Y-143851000D01*
X65462203Y-143839433D01*
X65407425Y-143816743D01*
X65407424Y-143816743D01*
X65407423Y-143816742D01*
X65358124Y-143783802D01*
X65316198Y-143741876D01*
X65283258Y-143692577D01*
X65280577Y-143686104D01*
X65260567Y-143637797D01*
X65249000Y-143579647D01*
X65249000Y-143520353D01*
X65260567Y-143462203D01*
X65283257Y-143407425D01*
X65283258Y-143407423D01*
X65316198Y-143358124D01*
X65358124Y-143316198D01*
X65407423Y-143283258D01*
X65407425Y-143283257D01*
X65462203Y-143260567D01*
X65520353Y-143249000D01*
X65579647Y-143249000D01*
X65637797Y-143260567D01*
G37*
G36*
X111634239Y-134811467D02*
G01*
X111948282Y-134873934D01*
X112539926Y-135119001D01*
X113072392Y-135474784D01*
X113525216Y-135927608D01*
X113880999Y-136460074D01*
X114126066Y-137051718D01*
X114251000Y-137679804D01*
X114251000Y-138320196D01*
X114126066Y-138948282D01*
X113880999Y-139539926D01*
X113525216Y-140072392D01*
X113072392Y-140525216D01*
X112539926Y-140880999D01*
X111948282Y-141126066D01*
X111634239Y-141188533D01*
X111320197Y-141251000D01*
X110679803Y-141251000D01*
X110365761Y-141188533D01*
X110051718Y-141126066D01*
X109460074Y-140880999D01*
X108927608Y-140525216D01*
X108474784Y-140072392D01*
X108119001Y-139539926D01*
X107873934Y-138948282D01*
X107749000Y-138320196D01*
X107749000Y-137679804D01*
X107873934Y-137051718D01*
X108119001Y-136460074D01*
X108474784Y-135927608D01*
X108927608Y-135474784D01*
X109460074Y-135119001D01*
X110051718Y-134873934D01*
X110365761Y-134811467D01*
X110679803Y-134749000D01*
X111320197Y-134749000D01*
X111634239Y-134811467D01*
G37*
G36*
X71634239Y-134811467D02*
G01*
X71948282Y-134873934D01*
X72539926Y-135119001D01*
X73072392Y-135474784D01*
X73525216Y-135927608D01*
X73880999Y-136460074D01*
X74126066Y-137051718D01*
X74251000Y-137679804D01*
X74251000Y-138320196D01*
X74126066Y-138948282D01*
X73880999Y-139539926D01*
X73525216Y-140072392D01*
X73072392Y-140525216D01*
X72539926Y-140880999D01*
X71948282Y-141126066D01*
X71634239Y-141188533D01*
X71320197Y-141251000D01*
X70679803Y-141251000D01*
X70365761Y-141188533D01*
X70051718Y-141126066D01*
X69460074Y-140880999D01*
X68927608Y-140525216D01*
X68474784Y-140072392D01*
X68119001Y-139539926D01*
X67873934Y-138948282D01*
X67749000Y-138320196D01*
X67749000Y-137679804D01*
X67873934Y-137051718D01*
X68119001Y-136460074D01*
X68474784Y-135927608D01*
X68927608Y-135474784D01*
X69460074Y-135119001D01*
X70051718Y-134873934D01*
X70365761Y-134811467D01*
X70679803Y-134749000D01*
X71320197Y-134749000D01*
X71634239Y-134811467D01*
G37*
G36*
X230137797Y-89760567D02*
G01*
X230192575Y-89783257D01*
X230192577Y-89783258D01*
X230241876Y-89816198D01*
X230283802Y-89858124D01*
X230316742Y-89907423D01*
X230316743Y-89907425D01*
X230339433Y-89962203D01*
X230351000Y-90020353D01*
X230351000Y-90079647D01*
X230339433Y-90137797D01*
X230316743Y-90192575D01*
X230316742Y-90192577D01*
X230283802Y-90241876D01*
X230241876Y-90283802D01*
X230192577Y-90316742D01*
X230186104Y-90321067D01*
X230167162Y-90336612D01*
X230151617Y-90355554D01*
X230140066Y-90377165D01*
X230132953Y-90400614D01*
X230130551Y-90425000D01*
X230132953Y-90449386D01*
X230140066Y-90472835D01*
X230151617Y-90494446D01*
X230167162Y-90513388D01*
X230186104Y-90528933D01*
X230192577Y-90533258D01*
X230241876Y-90566198D01*
X230283802Y-90608124D01*
X230316742Y-90657423D01*
X230316743Y-90657425D01*
X230339433Y-90712203D01*
X230351000Y-90770353D01*
X230351000Y-90829647D01*
X230339433Y-90887797D01*
X230316743Y-90942575D01*
X230316742Y-90942577D01*
X230283802Y-90991876D01*
X230241876Y-91033802D01*
X230192577Y-91066742D01*
X230186104Y-91071067D01*
X230167162Y-91086612D01*
X230151617Y-91105554D01*
X230140066Y-91127165D01*
X230132953Y-91150614D01*
X230130551Y-91175000D01*
X230132953Y-91199386D01*
X230140066Y-91222835D01*
X230151617Y-91244446D01*
X230167162Y-91263388D01*
X230186104Y-91278933D01*
X230192577Y-91283258D01*
X230241876Y-91316198D01*
X230283802Y-91358124D01*
X230316742Y-91407423D01*
X230316743Y-91407425D01*
X230339433Y-91462203D01*
X230351000Y-91520353D01*
X230351000Y-91579647D01*
X230339433Y-91637797D01*
X230316743Y-91692575D01*
X230316742Y-91692577D01*
X230283802Y-91741876D01*
X230241876Y-91783802D01*
X230192577Y-91816742D01*
X230192576Y-91816743D01*
X230192575Y-91816743D01*
X230137797Y-91839433D01*
X230079647Y-91851000D01*
X230020353Y-91851000D01*
X229962203Y-91839433D01*
X229907425Y-91816743D01*
X229907424Y-91816743D01*
X229907423Y-91816742D01*
X229858124Y-91783802D01*
X229816198Y-91741876D01*
X229783258Y-91692577D01*
X229783257Y-91692575D01*
X229760567Y-91637797D01*
X229749000Y-91579647D01*
X229749000Y-91520353D01*
X229760567Y-91462203D01*
X229783257Y-91407425D01*
X229783258Y-91407423D01*
X229816198Y-91358124D01*
X229858124Y-91316198D01*
X229907423Y-91283258D01*
X229913896Y-91278933D01*
X229932838Y-91263388D01*
X229948383Y-91244446D01*
X229959934Y-91222835D01*
X229967047Y-91199386D01*
X229969449Y-91175000D01*
X229967047Y-91150614D01*
X229959934Y-91127165D01*
X229948383Y-91105554D01*
X229932838Y-91086612D01*
X229913896Y-91071067D01*
X229907423Y-91066742D01*
X229858124Y-91033802D01*
X229816198Y-90991876D01*
X229783258Y-90942577D01*
X229783257Y-90942575D01*
X229760567Y-90887797D01*
X229749000Y-90829647D01*
X229749000Y-90770353D01*
X229760567Y-90712203D01*
X229783257Y-90657425D01*
X229783258Y-90657423D01*
X229816198Y-90608124D01*
X229858124Y-90566198D01*
X229907423Y-90533258D01*
X229913896Y-90528933D01*
X229932838Y-90513388D01*
X229948383Y-90494446D01*
X229959934Y-90472835D01*
X229967047Y-90449386D01*
X229969449Y-90425000D01*
X229967047Y-90400614D01*
X229959934Y-90377165D01*
X229948383Y-90355554D01*
X229932838Y-90336612D01*
X229913896Y-90321067D01*
X229907423Y-90316742D01*
X229858124Y-90283802D01*
X229816198Y-90241876D01*
X229783258Y-90192577D01*
X229783257Y-90192575D01*
X229760567Y-90137797D01*
X229749000Y-90079647D01*
X229749000Y-90020353D01*
X229760567Y-89962203D01*
X229783257Y-89907425D01*
X229783258Y-89907423D01*
X229816198Y-89858124D01*
X229858124Y-89816198D01*
X229907423Y-89783258D01*
X229907425Y-89783257D01*
X229962203Y-89760567D01*
X230020353Y-89749000D01*
X230079647Y-89749000D01*
X230137797Y-89760567D01*
G37*
G36*
X228637797Y-89760567D02*
G01*
X228692575Y-89783257D01*
X228692577Y-89783258D01*
X228741876Y-89816198D01*
X228783802Y-89858124D01*
X228816742Y-89907423D01*
X228816743Y-89907425D01*
X228839433Y-89962203D01*
X228851000Y-90020353D01*
X228851000Y-90079647D01*
X228839433Y-90137797D01*
X228816743Y-90192575D01*
X228816742Y-90192577D01*
X228783802Y-90241876D01*
X228741876Y-90283802D01*
X228692577Y-90316742D01*
X228686104Y-90321067D01*
X228667162Y-90336612D01*
X228651617Y-90355554D01*
X228640066Y-90377165D01*
X228632953Y-90400614D01*
X228630551Y-90425000D01*
X228632953Y-90449386D01*
X228640066Y-90472835D01*
X228651617Y-90494446D01*
X228667162Y-90513388D01*
X228686104Y-90528933D01*
X228692577Y-90533258D01*
X228741876Y-90566198D01*
X228783802Y-90608124D01*
X228816742Y-90657423D01*
X228816743Y-90657425D01*
X228839433Y-90712203D01*
X228851000Y-90770353D01*
X228851000Y-90829647D01*
X228839433Y-90887797D01*
X228816743Y-90942575D01*
X228816742Y-90942577D01*
X228783802Y-90991876D01*
X228741876Y-91033802D01*
X228692577Y-91066742D01*
X228686104Y-91071067D01*
X228667162Y-91086612D01*
X228651617Y-91105554D01*
X228640066Y-91127165D01*
X228632953Y-91150614D01*
X228630551Y-91175000D01*
X228632953Y-91199386D01*
X228640066Y-91222835D01*
X228651617Y-91244446D01*
X228667162Y-91263388D01*
X228686104Y-91278933D01*
X228692577Y-91283258D01*
X228741876Y-91316198D01*
X228783802Y-91358124D01*
X228816742Y-91407423D01*
X228816743Y-91407425D01*
X228839433Y-91462203D01*
X228851000Y-91520353D01*
X228851000Y-91579647D01*
X228839433Y-91637797D01*
X228816743Y-91692575D01*
X228816742Y-91692577D01*
X228783802Y-91741876D01*
X228741876Y-91783802D01*
X228692577Y-91816742D01*
X228692576Y-91816743D01*
X228692575Y-91816743D01*
X228637797Y-91839433D01*
X228579647Y-91851000D01*
X228520353Y-91851000D01*
X228462203Y-91839433D01*
X228407425Y-91816743D01*
X228407424Y-91816743D01*
X228407423Y-91816742D01*
X228358124Y-91783802D01*
X228316198Y-91741876D01*
X228283258Y-91692577D01*
X228283257Y-91692575D01*
X228260567Y-91637797D01*
X228249000Y-91579647D01*
X228249000Y-91520353D01*
X228260567Y-91462203D01*
X228283257Y-91407425D01*
X228283258Y-91407423D01*
X228316198Y-91358124D01*
X228358124Y-91316198D01*
X228407423Y-91283258D01*
X228413896Y-91278933D01*
X228432838Y-91263388D01*
X228448383Y-91244446D01*
X228459934Y-91222835D01*
X228467047Y-91199386D01*
X228469449Y-91175000D01*
X228467047Y-91150614D01*
X228459934Y-91127165D01*
X228448383Y-91105554D01*
X228432838Y-91086612D01*
X228413896Y-91071067D01*
X228407423Y-91066742D01*
X228358124Y-91033802D01*
X228316198Y-90991876D01*
X228283258Y-90942577D01*
X228283257Y-90942575D01*
X228260567Y-90887797D01*
X228249000Y-90829647D01*
X228249000Y-90770353D01*
X228260567Y-90712203D01*
X228283257Y-90657425D01*
X228283258Y-90657423D01*
X228316198Y-90608124D01*
X228358124Y-90566198D01*
X228407423Y-90533258D01*
X228413896Y-90528933D01*
X228432838Y-90513388D01*
X228448383Y-90494446D01*
X228459934Y-90472835D01*
X228467047Y-90449386D01*
X228469449Y-90425000D01*
X228467047Y-90400614D01*
X228459934Y-90377165D01*
X228448383Y-90355554D01*
X228432838Y-90336612D01*
X228413896Y-90321067D01*
X228407423Y-90316742D01*
X228358124Y-90283802D01*
X228316198Y-90241876D01*
X228283258Y-90192577D01*
X228283257Y-90192575D01*
X228260567Y-90137797D01*
X228249000Y-90079647D01*
X228249000Y-90020353D01*
X228260567Y-89962203D01*
X228283257Y-89907425D01*
X228283258Y-89907423D01*
X228316198Y-89858124D01*
X228358124Y-89816198D01*
X228407423Y-89783258D01*
X228407425Y-89783257D01*
X228462203Y-89760567D01*
X228520353Y-89749000D01*
X228579647Y-89749000D01*
X228637797Y-89760567D01*
G37*
G36*
X52137797Y-89760567D02*
G01*
X52192575Y-89783257D01*
X52192577Y-89783258D01*
X52241876Y-89816198D01*
X52283802Y-89858124D01*
X52316742Y-89907423D01*
X52316743Y-89907425D01*
X52339433Y-89962203D01*
X52351000Y-90020353D01*
X52351000Y-90079647D01*
X52339433Y-90137797D01*
X52316743Y-90192575D01*
X52316742Y-90192577D01*
X52283802Y-90241876D01*
X52241876Y-90283802D01*
X52192577Y-90316742D01*
X52192576Y-90316743D01*
X52192575Y-90316743D01*
X52137797Y-90339433D01*
X52079647Y-90351000D01*
X52020353Y-90351000D01*
X51962203Y-90339433D01*
X51907425Y-90316743D01*
X51907424Y-90316743D01*
X51907423Y-90316742D01*
X51858124Y-90283802D01*
X51816198Y-90241876D01*
X51783258Y-90192577D01*
X51783257Y-90192575D01*
X51760567Y-90137797D01*
X51749000Y-90079647D01*
X51749000Y-90020353D01*
X51760567Y-89962203D01*
X51783257Y-89907425D01*
X51783258Y-89907423D01*
X51816198Y-89858124D01*
X51858124Y-89816198D01*
X51907423Y-89783258D01*
X51907425Y-89783257D01*
X51962203Y-89760567D01*
X52020353Y-89749000D01*
X52079647Y-89749000D01*
X52137797Y-89760567D01*
G37*
G36*
X50637797Y-89760567D02*
G01*
X50692575Y-89783257D01*
X50692577Y-89783258D01*
X50741876Y-89816198D01*
X50783802Y-89858124D01*
X50816742Y-89907423D01*
X50816743Y-89907425D01*
X50839433Y-89962203D01*
X50851000Y-90020353D01*
X50851000Y-90079647D01*
X50839433Y-90137797D01*
X50816743Y-90192575D01*
X50816742Y-90192577D01*
X50783802Y-90241876D01*
X50741876Y-90283802D01*
X50692577Y-90316742D01*
X50692576Y-90316743D01*
X50692575Y-90316743D01*
X50637797Y-90339433D01*
X50579647Y-90351000D01*
X50520353Y-90351000D01*
X50462203Y-90339433D01*
X50407425Y-90316743D01*
X50407424Y-90316743D01*
X50407423Y-90316742D01*
X50358124Y-90283802D01*
X50316198Y-90241876D01*
X50283258Y-90192577D01*
X50283257Y-90192575D01*
X50260567Y-90137797D01*
X50249000Y-90079647D01*
X50249000Y-90020353D01*
X50260567Y-89962203D01*
X50283257Y-89907425D01*
X50283258Y-89907423D01*
X50316198Y-89858124D01*
X50358124Y-89816198D01*
X50407423Y-89783258D01*
X50407425Y-89783257D01*
X50462203Y-89760567D01*
X50520353Y-89749000D01*
X50579647Y-89749000D01*
X50637797Y-89760567D01*
G37*
G36*
X52137797Y-88260567D02*
G01*
X52192575Y-88283257D01*
X52192577Y-88283258D01*
X52241876Y-88316198D01*
X52283802Y-88358124D01*
X52316742Y-88407423D01*
X52316743Y-88407425D01*
X52339433Y-88462203D01*
X52351000Y-88520353D01*
X52351000Y-88579647D01*
X52339433Y-88637797D01*
X52316743Y-88692575D01*
X52316742Y-88692577D01*
X52283802Y-88741876D01*
X52241876Y-88783802D01*
X52192577Y-88816742D01*
X52192576Y-88816743D01*
X52192575Y-88816743D01*
X52137797Y-88839433D01*
X52079647Y-88851000D01*
X52020353Y-88851000D01*
X51962203Y-88839433D01*
X51907425Y-88816743D01*
X51907424Y-88816743D01*
X51907423Y-88816742D01*
X51858124Y-88783802D01*
X51816198Y-88741876D01*
X51783258Y-88692577D01*
X51783257Y-88692575D01*
X51760567Y-88637797D01*
X51749000Y-88579647D01*
X51749000Y-88520353D01*
X51760567Y-88462203D01*
X51783257Y-88407425D01*
X51783258Y-88407423D01*
X51816198Y-88358124D01*
X51858124Y-88316198D01*
X51907423Y-88283258D01*
X51907425Y-88283257D01*
X51962203Y-88260567D01*
X52020353Y-88249000D01*
X52079647Y-88249000D01*
X52137797Y-88260567D01*
G37*
G36*
X50637797Y-88260567D02*
G01*
X50692575Y-88283257D01*
X50692577Y-88283258D01*
X50741876Y-88316198D01*
X50783802Y-88358124D01*
X50816742Y-88407423D01*
X50816743Y-88407425D01*
X50839433Y-88462203D01*
X50851000Y-88520353D01*
X50851000Y-88579647D01*
X50839433Y-88637797D01*
X50816743Y-88692575D01*
X50816742Y-88692577D01*
X50783802Y-88741876D01*
X50741876Y-88783802D01*
X50692577Y-88816742D01*
X50692576Y-88816743D01*
X50692575Y-88816743D01*
X50637797Y-88839433D01*
X50579647Y-88851000D01*
X50520353Y-88851000D01*
X50462203Y-88839433D01*
X50407425Y-88816743D01*
X50407424Y-88816743D01*
X50407423Y-88816742D01*
X50358124Y-88783802D01*
X50316198Y-88741876D01*
X50283258Y-88692577D01*
X50283257Y-88692575D01*
X50260567Y-88637797D01*
X50249000Y-88579647D01*
X50249000Y-88520353D01*
X50260567Y-88462203D01*
X50283257Y-88407425D01*
X50283258Y-88407423D01*
X50316198Y-88358124D01*
X50358124Y-88316198D01*
X50407423Y-88283258D01*
X50407425Y-88283257D01*
X50462203Y-88260567D01*
X50520353Y-88249000D01*
X50579647Y-88249000D01*
X50637797Y-88260567D01*
G37*
G36*
X111634239Y-49811467D02*
G01*
X111948282Y-49873934D01*
X112539926Y-50119001D01*
X113072392Y-50474784D01*
X113525216Y-50927608D01*
X113880999Y-51460074D01*
X114126066Y-52051718D01*
X114251000Y-52679804D01*
X114251000Y-53320196D01*
X114126066Y-53948282D01*
X113880999Y-54539926D01*
X113525216Y-55072392D01*
X113072392Y-55525216D01*
X112539926Y-55880999D01*
X111948282Y-56126066D01*
X111634239Y-56188533D01*
X111320197Y-56251000D01*
X110679803Y-56251000D01*
X110365761Y-56188533D01*
X110051718Y-56126066D01*
X109460074Y-55880999D01*
X108927608Y-55525216D01*
X108474784Y-55072392D01*
X108119001Y-54539926D01*
X107873934Y-53948282D01*
X107749000Y-53320196D01*
X107749000Y-52679804D01*
X107873934Y-52051718D01*
X108119001Y-51460074D01*
X108474784Y-50927608D01*
X108927608Y-50474784D01*
X109460074Y-50119001D01*
X110051718Y-49873934D01*
X110365761Y-49811467D01*
X110679803Y-49749000D01*
X111320197Y-49749000D01*
X111634239Y-49811467D01*
G37*
G36*
X71634239Y-49811467D02*
G01*
X71948282Y-49873934D01*
X72539926Y-50119001D01*
X73072392Y-50474784D01*
X73525216Y-50927608D01*
X73880999Y-51460074D01*
X74126066Y-52051718D01*
X74251000Y-52679804D01*
X74251000Y-53320196D01*
X74126066Y-53948282D01*
X73880999Y-54539926D01*
X73525216Y-55072392D01*
X73072392Y-55525216D01*
X72539926Y-55880999D01*
X71948282Y-56126066D01*
X71634239Y-56188533D01*
X71320197Y-56251000D01*
X70679803Y-56251000D01*
X70365761Y-56188533D01*
X70051718Y-56126066D01*
X69460074Y-55880999D01*
X68927608Y-55525216D01*
X68474784Y-55072392D01*
X68119001Y-54539926D01*
X67873934Y-53948282D01*
X67749000Y-53320196D01*
X67749000Y-52679804D01*
X67873934Y-52051718D01*
X68119001Y-51460074D01*
X68474784Y-50927608D01*
X68927608Y-50474784D01*
X69460074Y-50119001D01*
X70051718Y-49873934D01*
X70365761Y-49811467D01*
X70679803Y-49749000D01*
X71320197Y-49749000D01*
X71634239Y-49811467D01*
G37*
G36*
X129637797Y-46760567D02*
G01*
X129692575Y-46783257D01*
X129692577Y-46783258D01*
X129741876Y-46816198D01*
X129783802Y-46858124D01*
X129816742Y-46907423D01*
X129821067Y-46913896D01*
X129836612Y-46932838D01*
X129855554Y-46948383D01*
X129877165Y-46959934D01*
X129900614Y-46967047D01*
X129925000Y-46969449D01*
X129949386Y-46967047D01*
X129972835Y-46959934D01*
X129994446Y-46948383D01*
X130013388Y-46932838D01*
X130028933Y-46913896D01*
X130033258Y-46907423D01*
X130066198Y-46858124D01*
X130108124Y-46816198D01*
X130157423Y-46783258D01*
X130157425Y-46783257D01*
X130212203Y-46760567D01*
X130270353Y-46749000D01*
X130329647Y-46749000D01*
X130387797Y-46760567D01*
X130442575Y-46783257D01*
X130442577Y-46783258D01*
X130491876Y-46816198D01*
X130533802Y-46858124D01*
X130566742Y-46907423D01*
X130571067Y-46913896D01*
X130586612Y-46932838D01*
X130605554Y-46948383D01*
X130627165Y-46959934D01*
X130650614Y-46967047D01*
X130675000Y-46969449D01*
X130699386Y-46967047D01*
X130722835Y-46959934D01*
X130744446Y-46948383D01*
X130763388Y-46932838D01*
X130778933Y-46913896D01*
X130783258Y-46907423D01*
X130816198Y-46858124D01*
X130858124Y-46816198D01*
X130907423Y-46783258D01*
X130907425Y-46783257D01*
X130962203Y-46760567D01*
X131020353Y-46749000D01*
X131079647Y-46749000D01*
X131137797Y-46760567D01*
X131192575Y-46783257D01*
X131192577Y-46783258D01*
X131241876Y-46816198D01*
X131283802Y-46858124D01*
X131316742Y-46907423D01*
X131316743Y-46907425D01*
X131339433Y-46962203D01*
X131351000Y-47020353D01*
X131351000Y-47079647D01*
X131339433Y-47137797D01*
X131319423Y-47186104D01*
X131316742Y-47192577D01*
X131283802Y-47241876D01*
X131241876Y-47283802D01*
X131192577Y-47316742D01*
X131192576Y-47316743D01*
X131192575Y-47316743D01*
X131137797Y-47339433D01*
X131079647Y-47351000D01*
X131020353Y-47351000D01*
X130962203Y-47339433D01*
X130907425Y-47316743D01*
X130907424Y-47316743D01*
X130907423Y-47316742D01*
X130858124Y-47283802D01*
X130816198Y-47241876D01*
X130783258Y-47192577D01*
X130783257Y-47192575D01*
X130778933Y-47186104D01*
X130763388Y-47167162D01*
X130744446Y-47151617D01*
X130722835Y-47140066D01*
X130699386Y-47132953D01*
X130675000Y-47130551D01*
X130650614Y-47132953D01*
X130627165Y-47140066D01*
X130605554Y-47151617D01*
X130586612Y-47167162D01*
X130571067Y-47186104D01*
X130566743Y-47192575D01*
X130566742Y-47192577D01*
X130533802Y-47241876D01*
X130491876Y-47283802D01*
X130442577Y-47316742D01*
X130442576Y-47316743D01*
X130442575Y-47316743D01*
X130387797Y-47339433D01*
X130329647Y-47351000D01*
X130270353Y-47351000D01*
X130212203Y-47339433D01*
X130157425Y-47316743D01*
X130157424Y-47316743D01*
X130157423Y-47316742D01*
X130108124Y-47283802D01*
X130066198Y-47241876D01*
X130033258Y-47192577D01*
X130033257Y-47192575D01*
X130028933Y-47186104D01*
X130013388Y-47167162D01*
X129994446Y-47151617D01*
X129972835Y-47140066D01*
X129949386Y-47132953D01*
X129925000Y-47130551D01*
X129900614Y-47132953D01*
X129877165Y-47140066D01*
X129855554Y-47151617D01*
X129836612Y-47167162D01*
X129821067Y-47186104D01*
X129816743Y-47192575D01*
X129816742Y-47192577D01*
X129783802Y-47241876D01*
X129741876Y-47283802D01*
X129692577Y-47316742D01*
X129692576Y-47316743D01*
X129692575Y-47316743D01*
X129637797Y-47339433D01*
X129579647Y-47351000D01*
X129520353Y-47351000D01*
X129462203Y-47339433D01*
X129407425Y-47316743D01*
X129407424Y-47316743D01*
X129407423Y-47316742D01*
X129358124Y-47283802D01*
X129316198Y-47241876D01*
X129283258Y-47192577D01*
X129280577Y-47186104D01*
X129260567Y-47137797D01*
X129249000Y-47079647D01*
X129249000Y-47020353D01*
X129260567Y-46962203D01*
X129283257Y-46907425D01*
X129283258Y-46907423D01*
X129316198Y-46858124D01*
X129358124Y-46816198D01*
X129407423Y-46783258D01*
X129407425Y-46783257D01*
X129462203Y-46760567D01*
X129520353Y-46749000D01*
X129579647Y-46749000D01*
X129637797Y-46760567D01*
G37*
G36*
X63137797Y-46760567D02*
G01*
X63192575Y-46783257D01*
X63192577Y-46783258D01*
X63241876Y-46816198D01*
X63283802Y-46858124D01*
X63316742Y-46907423D01*
X63321067Y-46913896D01*
X63336612Y-46932838D01*
X63355554Y-46948383D01*
X63377165Y-46959934D01*
X63400614Y-46967047D01*
X63425000Y-46969449D01*
X63449386Y-46967047D01*
X63472835Y-46959934D01*
X63494446Y-46948383D01*
X63513388Y-46932838D01*
X63528933Y-46913896D01*
X63533258Y-46907423D01*
X63566198Y-46858124D01*
X63608124Y-46816198D01*
X63657423Y-46783258D01*
X63657425Y-46783257D01*
X63712203Y-46760567D01*
X63770353Y-46749000D01*
X63829647Y-46749000D01*
X63887797Y-46760567D01*
X63942575Y-46783257D01*
X63942577Y-46783258D01*
X63991876Y-46816198D01*
X64033802Y-46858124D01*
X64066742Y-46907423D01*
X64071067Y-46913896D01*
X64086612Y-46932838D01*
X64105554Y-46948383D01*
X64127165Y-46959934D01*
X64150614Y-46967047D01*
X64175000Y-46969449D01*
X64199386Y-46967047D01*
X64222835Y-46959934D01*
X64244446Y-46948383D01*
X64263388Y-46932838D01*
X64278933Y-46913896D01*
X64283258Y-46907423D01*
X64316198Y-46858124D01*
X64358124Y-46816198D01*
X64407423Y-46783258D01*
X64407425Y-46783257D01*
X64462203Y-46760567D01*
X64520353Y-46749000D01*
X64579647Y-46749000D01*
X64637797Y-46760567D01*
X64692575Y-46783257D01*
X64692577Y-46783258D01*
X64741876Y-46816198D01*
X64783802Y-46858124D01*
X64816742Y-46907423D01*
X64816743Y-46907425D01*
X64839433Y-46962203D01*
X64851000Y-47020353D01*
X64851000Y-47079647D01*
X64839433Y-47137797D01*
X64819423Y-47186104D01*
X64816742Y-47192577D01*
X64783802Y-47241876D01*
X64741876Y-47283802D01*
X64692577Y-47316742D01*
X64692576Y-47316743D01*
X64692575Y-47316743D01*
X64637797Y-47339433D01*
X64579647Y-47351000D01*
X64520353Y-47351000D01*
X64462203Y-47339433D01*
X64407425Y-47316743D01*
X64407424Y-47316743D01*
X64407423Y-47316742D01*
X64358124Y-47283802D01*
X64316198Y-47241876D01*
X64283258Y-47192577D01*
X64283257Y-47192575D01*
X64278933Y-47186104D01*
X64263388Y-47167162D01*
X64244446Y-47151617D01*
X64222835Y-47140066D01*
X64199386Y-47132953D01*
X64175000Y-47130551D01*
X64150614Y-47132953D01*
X64127165Y-47140066D01*
X64105554Y-47151617D01*
X64086612Y-47167162D01*
X64071067Y-47186104D01*
X64066743Y-47192575D01*
X64066742Y-47192577D01*
X64033802Y-47241876D01*
X63991876Y-47283802D01*
X63942577Y-47316742D01*
X63942576Y-47316743D01*
X63942575Y-47316743D01*
X63887797Y-47339433D01*
X63829647Y-47351000D01*
X63770353Y-47351000D01*
X63712203Y-47339433D01*
X63657425Y-47316743D01*
X63657424Y-47316743D01*
X63657423Y-47316742D01*
X63608124Y-47283802D01*
X63566198Y-47241876D01*
X63533258Y-47192577D01*
X63533257Y-47192575D01*
X63528933Y-47186104D01*
X63513388Y-47167162D01*
X63494446Y-47151617D01*
X63472835Y-47140066D01*
X63449386Y-47132953D01*
X63425000Y-47130551D01*
X63400614Y-47132953D01*
X63377165Y-47140066D01*
X63355554Y-47151617D01*
X63336612Y-47167162D01*
X63321067Y-47186104D01*
X63316743Y-47192575D01*
X63316742Y-47192577D01*
X63283802Y-47241876D01*
X63241876Y-47283802D01*
X63192577Y-47316742D01*
X63192576Y-47316743D01*
X63192575Y-47316743D01*
X63137797Y-47339433D01*
X63079647Y-47351000D01*
X63020353Y-47351000D01*
X62962203Y-47339433D01*
X62907425Y-47316743D01*
X62907424Y-47316743D01*
X62907423Y-47316742D01*
X62858124Y-47283802D01*
X62816198Y-47241876D01*
X62783258Y-47192577D01*
X62780577Y-47186104D01*
X62760567Y-47137797D01*
X62749000Y-47079647D01*
X62749000Y-47020353D01*
X62760567Y-46962203D01*
X62783257Y-46907425D01*
X62783258Y-46907423D01*
X62816198Y-46858124D01*
X62858124Y-46816198D01*
X62907423Y-46783258D01*
X62907425Y-46783257D01*
X62962203Y-46760567D01*
X63020353Y-46749000D01*
X63079647Y-46749000D01*
X63137797Y-46760567D01*
G37*
G36*
X216137797Y-46760567D02*
G01*
X216192575Y-46783257D01*
X216192577Y-46783258D01*
X216241876Y-46816198D01*
X216283802Y-46858124D01*
X216316742Y-46907423D01*
X216321067Y-46913896D01*
X216336612Y-46932838D01*
X216355554Y-46948383D01*
X216377165Y-46959934D01*
X216400614Y-46967047D01*
X216425000Y-46969449D01*
X216449386Y-46967047D01*
X216472835Y-46959934D01*
X216494446Y-46948383D01*
X216513388Y-46932838D01*
X216528933Y-46913896D01*
X216533258Y-46907423D01*
X216566198Y-46858124D01*
X216608124Y-46816198D01*
X216657423Y-46783258D01*
X216657425Y-46783257D01*
X216712203Y-46760567D01*
X216770353Y-46749000D01*
X216829647Y-46749000D01*
X216887797Y-46760567D01*
X216942575Y-46783257D01*
X216942577Y-46783258D01*
X216991876Y-46816198D01*
X217033802Y-46858124D01*
X217066742Y-46907423D01*
X217071067Y-46913896D01*
X217086612Y-46932838D01*
X217105554Y-46948383D01*
X217127165Y-46959934D01*
X217150614Y-46967047D01*
X217175000Y-46969449D01*
X217199386Y-46967047D01*
X217222835Y-46959934D01*
X217244446Y-46948383D01*
X217263388Y-46932838D01*
X217278933Y-46913896D01*
X217283258Y-46907423D01*
X217316198Y-46858124D01*
X217358124Y-46816198D01*
X217407423Y-46783258D01*
X217407425Y-46783257D01*
X217462203Y-46760567D01*
X217520353Y-46749000D01*
X217579647Y-46749000D01*
X217637797Y-46760567D01*
X217692575Y-46783257D01*
X217692577Y-46783258D01*
X217741876Y-46816198D01*
X217783802Y-46858124D01*
X217816742Y-46907423D01*
X217816743Y-46907425D01*
X217839433Y-46962203D01*
X217851000Y-47020353D01*
X217851000Y-47079647D01*
X217839433Y-47137797D01*
X217819423Y-47186104D01*
X217816742Y-47192577D01*
X217783802Y-47241876D01*
X217741876Y-47283802D01*
X217692577Y-47316742D01*
X217692576Y-47316743D01*
X217692575Y-47316743D01*
X217637797Y-47339433D01*
X217579647Y-47351000D01*
X217520353Y-47351000D01*
X217462203Y-47339433D01*
X217407425Y-47316743D01*
X217407424Y-47316743D01*
X217407423Y-47316742D01*
X217358124Y-47283802D01*
X217316198Y-47241876D01*
X217283258Y-47192577D01*
X217283257Y-47192575D01*
X217278933Y-47186104D01*
X217263388Y-47167162D01*
X217244446Y-47151617D01*
X217222835Y-47140066D01*
X217199386Y-47132953D01*
X217175000Y-47130551D01*
X217150614Y-47132953D01*
X217127165Y-47140066D01*
X217105554Y-47151617D01*
X217086612Y-47167162D01*
X217071067Y-47186104D01*
X217066743Y-47192575D01*
X217066742Y-47192577D01*
X217033802Y-47241876D01*
X216991876Y-47283802D01*
X216942577Y-47316742D01*
X216942576Y-47316743D01*
X216942575Y-47316743D01*
X216887797Y-47339433D01*
X216829647Y-47351000D01*
X216770353Y-47351000D01*
X216712203Y-47339433D01*
X216657425Y-47316743D01*
X216657424Y-47316743D01*
X216657423Y-47316742D01*
X216608124Y-47283802D01*
X216566198Y-47241876D01*
X216533258Y-47192577D01*
X216533257Y-47192575D01*
X216528933Y-47186104D01*
X216513388Y-47167162D01*
X216494446Y-47151617D01*
X216472835Y-47140066D01*
X216449386Y-47132953D01*
X216425000Y-47130551D01*
X216400614Y-47132953D01*
X216377165Y-47140066D01*
X216355554Y-47151617D01*
X216336612Y-47167162D01*
X216321067Y-47186104D01*
X216316743Y-47192575D01*
X216316742Y-47192577D01*
X216283802Y-47241876D01*
X216241876Y-47283802D01*
X216192577Y-47316742D01*
X216192576Y-47316743D01*
X216192575Y-47316743D01*
X216137797Y-47339433D01*
X216079647Y-47351000D01*
X216020353Y-47351000D01*
X215962203Y-47339433D01*
X215907425Y-47316743D01*
X215907424Y-47316743D01*
X215907423Y-47316742D01*
X215858124Y-47283802D01*
X215816198Y-47241876D01*
X215783258Y-47192577D01*
X215780577Y-47186104D01*
X215760567Y-47137797D01*
X215749000Y-47079647D01*
X215749000Y-47020353D01*
X215760567Y-46962203D01*
X215783257Y-46907425D01*
X215783258Y-46907423D01*
X215816198Y-46858124D01*
X215858124Y-46816198D01*
X215907423Y-46783258D01*
X215907425Y-46783257D01*
X215962203Y-46760567D01*
X216020353Y-46749000D01*
X216079647Y-46749000D01*
X216137797Y-46760567D01*
G37*
G36*
X216137797Y-45260567D02*
G01*
X216192575Y-45283257D01*
X216192577Y-45283258D01*
X216241876Y-45316198D01*
X216283802Y-45358124D01*
X216316742Y-45407423D01*
X216321067Y-45413896D01*
X216336612Y-45432838D01*
X216355554Y-45448383D01*
X216377165Y-45459934D01*
X216400614Y-45467047D01*
X216425000Y-45469449D01*
X216449386Y-45467047D01*
X216472835Y-45459934D01*
X216494446Y-45448383D01*
X216513388Y-45432838D01*
X216528933Y-45413896D01*
X216533258Y-45407423D01*
X216566198Y-45358124D01*
X216608124Y-45316198D01*
X216657423Y-45283258D01*
X216657425Y-45283257D01*
X216712203Y-45260567D01*
X216770353Y-45249000D01*
X216829647Y-45249000D01*
X216887797Y-45260567D01*
X216942575Y-45283257D01*
X216942577Y-45283258D01*
X216991876Y-45316198D01*
X217033802Y-45358124D01*
X217066742Y-45407423D01*
X217071067Y-45413896D01*
X217086612Y-45432838D01*
X217105554Y-45448383D01*
X217127165Y-45459934D01*
X217150614Y-45467047D01*
X217175000Y-45469449D01*
X217199386Y-45467047D01*
X217222835Y-45459934D01*
X217244446Y-45448383D01*
X217263388Y-45432838D01*
X217278933Y-45413896D01*
X217283258Y-45407423D01*
X217316198Y-45358124D01*
X217358124Y-45316198D01*
X217407423Y-45283258D01*
X217407425Y-45283257D01*
X217462203Y-45260567D01*
X217520353Y-45249000D01*
X217579647Y-45249000D01*
X217637797Y-45260567D01*
X217692575Y-45283257D01*
X217692577Y-45283258D01*
X217741876Y-45316198D01*
X217783802Y-45358124D01*
X217816742Y-45407423D01*
X217816743Y-45407425D01*
X217839433Y-45462203D01*
X217851000Y-45520353D01*
X217851000Y-45579647D01*
X217839433Y-45637797D01*
X217819423Y-45686104D01*
X217816742Y-45692577D01*
X217783802Y-45741876D01*
X217741876Y-45783802D01*
X217692577Y-45816742D01*
X217692576Y-45816743D01*
X217692575Y-45816743D01*
X217637797Y-45839433D01*
X217579647Y-45851000D01*
X217520353Y-45851000D01*
X217462203Y-45839433D01*
X217407425Y-45816743D01*
X217407424Y-45816743D01*
X217407423Y-45816742D01*
X217358124Y-45783802D01*
X217316198Y-45741876D01*
X217283258Y-45692577D01*
X217283257Y-45692575D01*
X217278933Y-45686104D01*
X217263388Y-45667162D01*
X217244446Y-45651617D01*
X217222835Y-45640066D01*
X217199386Y-45632953D01*
X217175000Y-45630551D01*
X217150614Y-45632953D01*
X217127165Y-45640066D01*
X217105554Y-45651617D01*
X217086612Y-45667162D01*
X217071067Y-45686104D01*
X217066743Y-45692575D01*
X217066742Y-45692577D01*
X217033802Y-45741876D01*
X216991876Y-45783802D01*
X216942577Y-45816742D01*
X216942576Y-45816743D01*
X216942575Y-45816743D01*
X216887797Y-45839433D01*
X216829647Y-45851000D01*
X216770353Y-45851000D01*
X216712203Y-45839433D01*
X216657425Y-45816743D01*
X216657424Y-45816743D01*
X216657423Y-45816742D01*
X216608124Y-45783802D01*
X216566198Y-45741876D01*
X216533258Y-45692577D01*
X216533257Y-45692575D01*
X216528933Y-45686104D01*
X216513388Y-45667162D01*
X216494446Y-45651617D01*
X216472835Y-45640066D01*
X216449386Y-45632953D01*
X216425000Y-45630551D01*
X216400614Y-45632953D01*
X216377165Y-45640066D01*
X216355554Y-45651617D01*
X216336612Y-45667162D01*
X216321067Y-45686104D01*
X216316743Y-45692575D01*
X216316742Y-45692577D01*
X216283802Y-45741876D01*
X216241876Y-45783802D01*
X216192577Y-45816742D01*
X216192576Y-45816743D01*
X216192575Y-45816743D01*
X216137797Y-45839433D01*
X216079647Y-45851000D01*
X216020353Y-45851000D01*
X215962203Y-45839433D01*
X215907425Y-45816743D01*
X215907424Y-45816743D01*
X215907423Y-45816742D01*
X215858124Y-45783802D01*
X215816198Y-45741876D01*
X215783258Y-45692577D01*
X215780577Y-45686104D01*
X215760567Y-45637797D01*
X215749000Y-45579647D01*
X215749000Y-45520353D01*
X215760567Y-45462203D01*
X215783257Y-45407425D01*
X215783258Y-45407423D01*
X215816198Y-45358124D01*
X215858124Y-45316198D01*
X215907423Y-45283258D01*
X215907425Y-45283257D01*
X215962203Y-45260567D01*
X216020353Y-45249000D01*
X216079647Y-45249000D01*
X216137797Y-45260567D01*
G37*
G36*
X63137797Y-45260567D02*
G01*
X63192575Y-45283257D01*
X63192577Y-45283258D01*
X63241876Y-45316198D01*
X63283802Y-45358124D01*
X63316742Y-45407423D01*
X63321067Y-45413896D01*
X63336612Y-45432838D01*
X63355554Y-45448383D01*
X63377165Y-45459934D01*
X63400614Y-45467047D01*
X63425000Y-45469449D01*
X63449386Y-45467047D01*
X63472835Y-45459934D01*
X63494446Y-45448383D01*
X63513388Y-45432838D01*
X63528933Y-45413896D01*
X63533258Y-45407423D01*
X63566198Y-45358124D01*
X63608124Y-45316198D01*
X63657423Y-45283258D01*
X63657425Y-45283257D01*
X63712203Y-45260567D01*
X63770353Y-45249000D01*
X63829647Y-45249000D01*
X63887797Y-45260567D01*
X63942575Y-45283257D01*
X63942577Y-45283258D01*
X63991876Y-45316198D01*
X64033802Y-45358124D01*
X64066742Y-45407423D01*
X64071067Y-45413896D01*
X64086612Y-45432838D01*
X64105554Y-45448383D01*
X64127165Y-45459934D01*
X64150614Y-45467047D01*
X64175000Y-45469449D01*
X64199386Y-45467047D01*
X64222835Y-45459934D01*
X64244446Y-45448383D01*
X64263388Y-45432838D01*
X64278933Y-45413896D01*
X64283258Y-45407423D01*
X64316198Y-45358124D01*
X64358124Y-45316198D01*
X64407423Y-45283258D01*
X64407425Y-45283257D01*
X64462203Y-45260567D01*
X64520353Y-45249000D01*
X64579647Y-45249000D01*
X64637797Y-45260567D01*
X64692575Y-45283257D01*
X64692577Y-45283258D01*
X64741876Y-45316198D01*
X64783802Y-45358124D01*
X64816742Y-45407423D01*
X64816743Y-45407425D01*
X64839433Y-45462203D01*
X64851000Y-45520353D01*
X64851000Y-45579647D01*
X64839433Y-45637797D01*
X64819423Y-45686104D01*
X64816742Y-45692577D01*
X64783802Y-45741876D01*
X64741876Y-45783802D01*
X64692577Y-45816742D01*
X64692576Y-45816743D01*
X64692575Y-45816743D01*
X64637797Y-45839433D01*
X64579647Y-45851000D01*
X64520353Y-45851000D01*
X64462203Y-45839433D01*
X64407425Y-45816743D01*
X64407424Y-45816743D01*
X64407423Y-45816742D01*
X64358124Y-45783802D01*
X64316198Y-45741876D01*
X64283258Y-45692577D01*
X64283257Y-45692575D01*
X64278933Y-45686104D01*
X64263388Y-45667162D01*
X64244446Y-45651617D01*
X64222835Y-45640066D01*
X64199386Y-45632953D01*
X64175000Y-45630551D01*
X64150614Y-45632953D01*
X64127165Y-45640066D01*
X64105554Y-45651617D01*
X64086612Y-45667162D01*
X64071067Y-45686104D01*
X64066743Y-45692575D01*
X64066742Y-45692577D01*
X64033802Y-45741876D01*
X63991876Y-45783802D01*
X63942577Y-45816742D01*
X63942576Y-45816743D01*
X63942575Y-45816743D01*
X63887797Y-45839433D01*
X63829647Y-45851000D01*
X63770353Y-45851000D01*
X63712203Y-45839433D01*
X63657425Y-45816743D01*
X63657424Y-45816743D01*
X63657423Y-45816742D01*
X63608124Y-45783802D01*
X63566198Y-45741876D01*
X63533258Y-45692577D01*
X63533257Y-45692575D01*
X63528933Y-45686104D01*
X63513388Y-45667162D01*
X63494446Y-45651617D01*
X63472835Y-45640066D01*
X63449386Y-45632953D01*
X63425000Y-45630551D01*
X63400614Y-45632953D01*
X63377165Y-45640066D01*
X63355554Y-45651617D01*
X63336612Y-45667162D01*
X63321067Y-45686104D01*
X63316743Y-45692575D01*
X63316742Y-45692577D01*
X63283802Y-45741876D01*
X63241876Y-45783802D01*
X63192577Y-45816742D01*
X63192576Y-45816743D01*
X63192575Y-45816743D01*
X63137797Y-45839433D01*
X63079647Y-45851000D01*
X63020353Y-45851000D01*
X62962203Y-45839433D01*
X62907425Y-45816743D01*
X62907424Y-45816743D01*
X62907423Y-45816742D01*
X62858124Y-45783802D01*
X62816198Y-45741876D01*
X62783258Y-45692577D01*
X62780577Y-45686104D01*
X62760567Y-45637797D01*
X62749000Y-45579647D01*
X62749000Y-45520353D01*
X62760567Y-45462203D01*
X62783257Y-45407425D01*
X62783258Y-45407423D01*
X62816198Y-45358124D01*
X62858124Y-45316198D01*
X62907423Y-45283258D01*
X62907425Y-45283257D01*
X62962203Y-45260567D01*
X63020353Y-45249000D01*
X63079647Y-45249000D01*
X63137797Y-45260567D01*
G37*
G36*
X129637797Y-45260567D02*
G01*
X129692575Y-45283257D01*
X129692577Y-45283258D01*
X129741876Y-45316198D01*
X129783802Y-45358124D01*
X129816742Y-45407423D01*
X129821067Y-45413896D01*
X129836612Y-45432838D01*
X129855554Y-45448383D01*
X129877165Y-45459934D01*
X129900614Y-45467047D01*
X129925000Y-45469449D01*
X129949386Y-45467047D01*
X129972835Y-45459934D01*
X129994446Y-45448383D01*
X130013388Y-45432838D01*
X130028933Y-45413896D01*
X130033258Y-45407423D01*
X130066198Y-45358124D01*
X130108124Y-45316198D01*
X130157423Y-45283258D01*
X130157425Y-45283257D01*
X130212203Y-45260567D01*
X130270353Y-45249000D01*
X130329647Y-45249000D01*
X130387797Y-45260567D01*
X130442575Y-45283257D01*
X130442577Y-45283258D01*
X130491876Y-45316198D01*
X130533802Y-45358124D01*
X130566742Y-45407423D01*
X130571067Y-45413896D01*
X130586612Y-45432838D01*
X130605554Y-45448383D01*
X130627165Y-45459934D01*
X130650614Y-45467047D01*
X130675000Y-45469449D01*
X130699386Y-45467047D01*
X130722835Y-45459934D01*
X130744446Y-45448383D01*
X130763388Y-45432838D01*
X130778933Y-45413896D01*
X130783258Y-45407423D01*
X130816198Y-45358124D01*
X130858124Y-45316198D01*
X130907423Y-45283258D01*
X130907425Y-45283257D01*
X130962203Y-45260567D01*
X131020353Y-45249000D01*
X131079647Y-45249000D01*
X131137797Y-45260567D01*
X131192575Y-45283257D01*
X131192577Y-45283258D01*
X131241876Y-45316198D01*
X131283802Y-45358124D01*
X131316742Y-45407423D01*
X131316743Y-45407425D01*
X131339433Y-45462203D01*
X131351000Y-45520353D01*
X131351000Y-45579647D01*
X131339433Y-45637797D01*
X131319423Y-45686104D01*
X131316742Y-45692577D01*
X131283802Y-45741876D01*
X131241876Y-45783802D01*
X131192577Y-45816742D01*
X131192576Y-45816743D01*
X131192575Y-45816743D01*
X131137797Y-45839433D01*
X131079647Y-45851000D01*
X131020353Y-45851000D01*
X130962203Y-45839433D01*
X130907425Y-45816743D01*
X130907424Y-45816743D01*
X130907423Y-45816742D01*
X130858124Y-45783802D01*
X130816198Y-45741876D01*
X130783258Y-45692577D01*
X130783257Y-45692575D01*
X130778933Y-45686104D01*
X130763388Y-45667162D01*
X130744446Y-45651617D01*
X130722835Y-45640066D01*
X130699386Y-45632953D01*
X130675000Y-45630551D01*
X130650614Y-45632953D01*
X130627165Y-45640066D01*
X130605554Y-45651617D01*
X130586612Y-45667162D01*
X130571067Y-45686104D01*
X130566743Y-45692575D01*
X130566742Y-45692577D01*
X130533802Y-45741876D01*
X130491876Y-45783802D01*
X130442577Y-45816742D01*
X130442576Y-45816743D01*
X130442575Y-45816743D01*
X130387797Y-45839433D01*
X130329647Y-45851000D01*
X130270353Y-45851000D01*
X130212203Y-45839433D01*
X130157425Y-45816743D01*
X130157424Y-45816743D01*
X130157423Y-45816742D01*
X130108124Y-45783802D01*
X130066198Y-45741876D01*
X130033258Y-45692577D01*
X130033257Y-45692575D01*
X130028933Y-45686104D01*
X130013388Y-45667162D01*
X129994446Y-45651617D01*
X129972835Y-45640066D01*
X129949386Y-45632953D01*
X129925000Y-45630551D01*
X129900614Y-45632953D01*
X129877165Y-45640066D01*
X129855554Y-45651617D01*
X129836612Y-45667162D01*
X129821067Y-45686104D01*
X129816743Y-45692575D01*
X129816742Y-45692577D01*
X129783802Y-45741876D01*
X129741876Y-45783802D01*
X129692577Y-45816742D01*
X129692576Y-45816743D01*
X129692575Y-45816743D01*
X129637797Y-45839433D01*
X129579647Y-45851000D01*
X129520353Y-45851000D01*
X129462203Y-45839433D01*
X129407425Y-45816743D01*
X129407424Y-45816743D01*
X129407423Y-45816742D01*
X129358124Y-45783802D01*
X129316198Y-45741876D01*
X129283258Y-45692577D01*
X129280577Y-45686104D01*
X129260567Y-45637797D01*
X129249000Y-45579647D01*
X129249000Y-45520353D01*
X129260567Y-45462203D01*
X129283257Y-45407425D01*
X129283258Y-45407423D01*
X129316198Y-45358124D01*
X129358124Y-45316198D01*
X129407423Y-45283258D01*
X129407425Y-45283257D01*
X129462203Y-45260567D01*
X129520353Y-45249000D01*
X129579647Y-45249000D01*
X129637797Y-45260567D01*
G37*
G36*
X278835787Y-35385462D02*
G01*
X278835790Y-35385463D01*
X278835789Y-35385463D01*
X279482029Y-35653144D01*
X280063631Y-36041758D01*
X280558242Y-36536369D01*
X280946856Y-37117971D01*
X280946856Y-37117972D01*
X281214538Y-37764213D01*
X281351000Y-38450256D01*
X281351000Y-39149744D01*
X281214538Y-39835787D01*
X281214537Y-39835789D01*
X280946856Y-40482029D01*
X280558242Y-41063631D01*
X280063631Y-41558242D01*
X279482029Y-41946856D01*
X279025068Y-42136135D01*
X278835787Y-42214538D01*
X278149744Y-42351000D01*
X277450256Y-42351000D01*
X276764213Y-42214538D01*
X276574932Y-42136135D01*
X276117971Y-41946856D01*
X275536369Y-41558242D01*
X275041758Y-41063631D01*
X274653144Y-40482029D01*
X274385463Y-39835789D01*
X274385462Y-39835787D01*
X274249000Y-39149744D01*
X274249000Y-38450256D01*
X274385462Y-37764213D01*
X274653144Y-37117972D01*
X274653144Y-37117971D01*
X275041758Y-36536369D01*
X275536369Y-36041758D01*
X276117971Y-35653144D01*
X276764211Y-35385463D01*
X276764210Y-35385463D01*
X276764213Y-35385462D01*
X277450256Y-35249000D01*
X278149744Y-35249000D01*
X278835787Y-35385462D01*
G37*
G36*
X39835787Y-35385462D02*
G01*
X39835790Y-35385463D01*
X39835789Y-35385463D01*
X40482029Y-35653144D01*
X41063631Y-36041758D01*
X41558242Y-36536369D01*
X41946856Y-37117971D01*
X41946856Y-37117972D01*
X42214538Y-37764213D01*
X42351000Y-38450256D01*
X42351000Y-39149744D01*
X42214538Y-39835787D01*
X42214537Y-39835789D01*
X41946856Y-40482029D01*
X41558242Y-41063631D01*
X41063631Y-41558242D01*
X40482029Y-41946856D01*
X40025068Y-42136135D01*
X39835787Y-42214538D01*
X39149744Y-42351000D01*
X38450256Y-42351000D01*
X37764213Y-42214538D01*
X37574932Y-42136135D01*
X37117971Y-41946856D01*
X36536369Y-41558242D01*
X36041758Y-41063631D01*
X35653144Y-40482029D01*
X35385463Y-39835789D01*
X35385462Y-39835787D01*
X35249000Y-39149744D01*
X35249000Y-38450256D01*
X35385462Y-37764213D01*
X35653144Y-37117972D01*
X35653144Y-37117971D01*
X36041758Y-36536369D01*
X36536369Y-36041758D01*
X37117971Y-35653144D01*
X37764211Y-35385463D01*
X37764210Y-35385463D01*
X37764213Y-35385462D01*
X38450256Y-35249000D01*
X39149744Y-35249000D01*
X39835787Y-35385462D01*
G37*
M02*
